<svg xmlns="http://www.w3.org/2000/svg" width="13.02" height="14.813"><path fill="#A90019" d="M6.502 1.628a2.849 2.849 0 00-1.535 5.25 2.91 2.91 0 002.834.155.408.408 0 10-.341-.74 2.102 2.102 0 01-2.052-.101 2.035 2.035 0 113.128-1.715.406.406 0 11-.813.006v-.006a1.223 1.223 0 10-.406.91 1.22 1.22 0 002.035-.909 2.853 2.853 0 00-2.85-2.85zm.404 2.915a.403.403 0 110-.111.413.413 0 00-.003.111h.003z"/><path fill="#A90019" d="M13.005 5.692a.435.435 0 00-.128-.306l-1.605-1.605V.434A.433.433 0 0010.838 0h-8.67a.434.434 0 00-.434.434v3.347L.127 5.386l-.004.006a.433.433 0 00-.123.3v7.804c0 .719.583 1.301 1.301 1.302h10.402a1.3 1.3 0 001.3-1.301V5.693l.002-.001zm-1.734-.686l.688.688-.688.688V5.006zm-8.67-1.047V.866h7.801v6.383L8.055 9.595H4.948L2.601 7.248V3.959zm-.867 1.047v1.375l-.687-.688.687-.687zm-.867 8.31V6.74l3.288 3.287-3.288 3.289zm.613.614l3.468-3.468h3.108l3.468 3.468H1.48zm10.658-.614L8.85 10.028l3.288-3.287v6.575z"/></svg>