<svg xmlns="http://www.w3.org/2000/svg" width="200" height="200"><path fill="#CCC" d="M102.717 1.288c-54.519 0-98.713 44.193-98.713 98.711s44.194 98.713 98.713 98.713c54.516 0 98.711-44.195 98.711-98.713S157.232 1.288 102.717 1.288zM76.139 153.294H54.453V83.463h21.686v69.831zM65.284 73.938c-6.935 0-12.558-5.744-12.558-12.677 0-6.936 5.623-12.559 12.56-12.557 6.935 0 12.556 5.621 12.556 12.557 0 6.933-5.627 12.677-12.558 12.677zm92.034 79.356h-21.66V119.3c0-8.101-.162-18.49-11.273-18.49-11.275 0-13.002 8.803-13.002 17.908v34.576H89.721V83.463h20.797v9.524h.305c2.895-5.485 9.967-11.275 20.518-11.275 21.945 0 25.979 14.451 25.979 33.222v38.36h-.002z"/></svg>