<svg xmlns="http://www.w3.org/2000/svg" width="200" height="200" viewBox="200.14 320.945 200 200"><path fill="#CCC" d="M300.14 322.933c-54.518 0-98.712 44.194-98.712 98.712 0 54.517 44.194 98.712 98.712 98.712 54.517 0 98.712-44.195 98.712-98.712 0-54.518-44.196-98.712-98.712-98.712zm34.545 56.795H324.46c-10.072 0-13.215 6.251-13.215 12.664v15.209h22.49l-3.597 23.439h-18.894v56.662h-25.338V431.04H265.32v-23.439h20.588v-17.863c0-20.323 12.106-31.549 30.627-31.549 8.873 0 18.15 1.584 18.15 1.584v19.955z"/></svg>