<svg xmlns="http://www.w3.org/2000/svg" width="200" height="200"><g fill="#CCC"><path d="M145.836 68.442c-1.967-4.904-5.727-8.664-10.605-10.605-7.318-2.889-24.771-2.24-32.889-2.24s-25.545-.672-32.889 2.24c-4.906 1.968-8.666 5.727-10.607 10.605-2.887 7.32-2.24 24.773-2.24 32.889 0 8.117-.672 25.546 2.24 32.89 1.968 4.906 5.727 8.666 10.607 10.606 7.319 2.888 24.771 2.24 32.889 2.24 8.115 0 25.543.672 32.889-2.24 4.904-1.967 8.664-5.727 10.605-10.606 2.914-7.318 2.24-24.771 2.24-32.89 0-8.114.674-25.544-2.24-32.889zm-43.494 61.497c-15.834 0-28.607-12.773-28.607-28.607s12.771-28.605 28.607-28.605c15.834 0 28.605 12.771 28.605 28.605 0 15.835-12.771 28.607-28.605 28.607zm29.775-51.711a6.656 6.656 0 01-6.672-6.672 6.674 6.674 0 0113.346 0 6.658 6.658 0 01-6.674 6.672z"/><path d="M102.342 82.733c-10.258 0-18.6 8.341-18.6 18.598 0 10.259 8.366 18.599 18.6 18.599 10.232 0 18.598-8.34 18.598-18.599-.002-10.257-8.342-18.598-18.598-18.598z"/><path d="M101.289 1.288c-54.519 0-98.713 44.193-98.713 98.711s44.194 98.713 98.713 98.713c54.516 0 98.711-44.195 98.711-98.713S155.805 1.288 101.289 1.288zm56.447 123.05c-.447 8.938-2.49 16.854-9.014 23.377-6.521 6.549-14.439 8.59-23.377 9.014-9.213.521-36.823.521-46.035 0-8.938-.447-16.831-2.49-23.378-9.014-6.548-6.521-8.589-14.439-9.013-23.377-.523-9.214-.523-36.824 0-46.036.447-8.938 2.465-16.855 9.013-23.379 6.548-6.522 14.465-8.564 23.378-8.987 9.212-.522 36.822-.522 46.035 0 8.938.448 16.855 2.489 23.377 9.013 6.549 6.523 8.59 14.441 9.014 23.379.524 9.211.524 36.798 0 46.01z"/></g></svg>