<svg xmlns="http://www.w3.org/2000/svg" width="200" height="200"><g fill="#CCC"><path d="M90.626 119.316l29.066-16.535-29.066-16.537z"/><path d="M100.001 1.288c-54.519 0-98.713 44.193-98.713 98.711s44.194 98.713 98.713 98.713c54.516 0 98.711-44.195 98.711-98.713S154.517 1.288 100.001 1.288zm55.283 128.435c-1.279 4.814-5.051 8.451-9.832 9.738-8.676 2.339-43.451 2.339-43.451 2.339s-34.779 0-43.451-2.339c-4.785-1.287-8.555-4.924-9.834-9.738-2.323-8.729-2.323-26.942-2.323-26.942s0-18.213 2.323-26.942c1.279-4.815 5.047-8.608 9.834-9.896 8.672-2.339 43.451-2.339 43.451-2.339s34.777 0 43.451 2.339c4.781 1.287 8.553 5.081 9.832 9.896 2.322 8.729 2.322 26.942 2.322 26.942s0 18.212-2.322 26.942z"/></g></svg>