<svg xmlns="http://www.w3.org/2000/svg" width="200" height="200" viewBox="200.14 320.945 200 200"><path fill="#A90019" d="M297.156 383.466c-21.565 0-38.961 17.396-38.961 38.961 0 21.569 17.396 38.962 38.961 38.962 21.567 0 38.962-17.393 38.962-38.962-.001-21.564-17.395-38.961-38.962-38.961zm0 64.293c-13.936 0-25.329-11.36-25.329-25.331 0-13.97 11.359-25.329 25.329-25.329 13.972 0 25.332 11.359 25.332 25.329s-11.395 25.331-25.332 25.331zm49.645-65.886a9.068 9.068 0 01-9.088 9.088 9.068 9.068 0 01-9.089-9.088 9.088 9.088 0 0118.177 0zm25.805 9.223c-.578-12.174-3.356-22.957-12.276-31.841-8.883-8.884-19.667-11.665-31.839-12.275-12.547-.712-50.153-.712-62.701 0-12.14.577-22.922 3.357-31.841 12.241-8.918 8.885-11.665 19.667-12.275 31.841-.712 12.547-.712 50.152 0 62.7.576 12.174 3.356 22.957 12.275 31.839 8.919 8.885 19.667 11.668 31.841 12.277 12.547.712 50.154.712 62.701 0 12.172-.578 22.956-3.356 31.839-12.277 8.884-8.882 11.665-19.665 12.276-31.839.713-12.548.713-50.119 0-62.666zm-16.209 76.129c-2.646 6.646-7.765 11.764-14.446 14.443-10.003 3.967-33.739 3.053-44.795 3.053-11.054 0-34.824.88-44.794-3.053-6.646-2.644-11.766-7.766-14.445-14.443-3.967-10.005-3.052-33.741-3.052-44.797 0-11.054-.881-34.825 3.052-44.793 2.645-6.647 7.766-11.767 14.445-14.446 10.004-3.968 33.74-3.052 44.794-3.052 11.056 0 34.828-.881 44.795 3.052 6.646 2.645 11.769 7.766 14.446 14.446 3.966 10.003 3.052 33.74 3.052 44.793-.001 11.055.914 34.825-3.052 44.797z"/></svg>