<svg xmlns="http://www.w3.org/2000/svg" width="200" height="200" viewBox="200.14 320.945 200 200"><path fill="#A90019" d="M254.885 499.445h-31.721V397.293h31.721v102.152zm-15.877-116.087c-10.143 0-18.371-8.402-18.371-18.545.002-10.146 8.228-18.369 18.373-18.368 10.144.001 18.367 8.224 18.369 18.368 0 10.144-8.231 18.545-18.371 18.545zm134.601 116.087h-31.653v-49.727c0-11.852-.238-27.05-16.492-27.05-16.492 0-19.02 12.876-19.02 26.196v50.58h-31.688V397.293h30.423v13.934h.445c4.234-8.026 14.579-16.495 30.013-16.495 32.105 0 38.006 21.14 38.006 48.599v56.114h-.034z"/></svg>