<svg xmlns="http://www.w3.org/2000/svg" width="200" height="200"><circle fill="#F3F3F3" cx="100" cy="100" r="100"/><path d="M141.047 89.09c8.07 0 14.635-6.557 14.635-14.616a14.59 14.59 0 00-.453-3.545c-.003-.031.006-.06 0-.09-.012-.056-.046-.099-.062-.15-1.675-6.233-7.361-10.842-14.12-10.842-8.067 0-14.628 6.561-14.628 14.627 0 8.059 6.56 14.616 14.628 14.616zm0-25.343c4.137 0 7.729 2.355 9.52 5.79-2.407-.042-4.809-.871-6.671-2.359-.411-.328-.988-.48-1.465-.41a1.957 1.957 0 00-1.325.768c-2.022 2.729-5.152 4.294-8.582 4.294-.614 0-1.22-.055-1.816-.158 1.235-4.558 5.397-7.925 10.339-7.925zm10.734 10.727c0 5.907-4.816 10.712-10.734 10.712-5.546 0-10.123-4.227-10.668-9.627.707.104 1.42.175 2.145.175 3.949 0 7.746-1.606 10.485-4.425 2.562 1.551 5.691 2.277 8.719 2.085.034.354.053.715.053 1.08zM151.142 91h-19.509C123.113 91 116 98.057 116 106.576v19.966c0 3.387 2.548 6.144 5.942 6.144.803 0 2.058-.164 2.058-.445v6.456c0 1.076 1.488.304 2.564.304h29.64c1.077 0 .796.772.796-.304v-6.453c3 .278 1.239.442 2.038.442 3.247 0 5.962-2.564 5.962-6.144v-19.966C165 98.057 159.664 91 151.142 91zM157 121.424v-5.412c0-1.077-.426-1.954-1.505-1.954-1.074 0-1.495.877-1.495 1.954V135h-26v-18.988c0-1.077-.922-1.954-2-1.954-1.074 0-2 .877-2 1.954v10.499c0 1.251-.756 2.27-2.01 2.27-1.242 0-1.99-1.003-1.99-2.238v-19.966C120 100.209 125.265 94 131.633 94h19.509c6.372 0 11.556 5.694 11.556 12.062l.007 20.035c-.112 1.171-1.456 2.556-2.869 2.556-1.243 0-2.835-.891-2.835-2.142v-5.087zM67.572 87.942c8.07 0 14.635-6.556 14.635-14.613a14.72 14.72 0 00-.299-2.952c.034-.229.04-.464-.012-.703a1.838 1.838 0 00-.37-.754C79.648 63 74.104 58.698 67.572 58.698c-8.068 0-14.634 6.564-14.634 14.632 0 8.057 6.565 14.612 14.634 14.612zm0-25.339c4.133 0 7.721 2.352 9.512 5.782a10.697 10.697 0 01-6.49-2.352 1.912 1.912 0 00-1.467-.411 1.94 1.94 0 00-1.313.764c-2.05 2.733-5.182 4.302-8.591 4.302-.669 0-1.33-.079-1.985-.203 1.252-4.536 5.404-7.882 10.334-7.882zM78.303 73.33c0 5.905-4.814 10.708-10.731 10.708-5.555 0-10.136-4.234-10.676-9.639.766.123 1.542.19 2.327.19 4.02 0 7.729-1.569 10.487-4.423a14.681 14.681 0 007.623 2.146c.311 0 .61-.029.916-.046.034.349.054.705.054 1.064zM77.663 91H58.167C49.64 91 42 96.911 42 105.432v19.967c0 3.387 3.545 6.143 6.951 6.143.804 0 1.049-.165 3.049-.444v6.455c0 1.075.028 1.448 1.105 1.448h29.624c1.077 0 1.271-.373 1.271-1.448v-6.455c0 .279 1.745.444 2.55.444 3.251 0 6.45-2.565 6.45-6.143v-19.967C93 96.911 86.192 91 77.663 91zM84 120.278v-5.409c0-1.077.077-1.951-1-1.951s-1 .874-1 1.951V135H56v-20.131c0-1.077-.923-1.951-2-1.951s-2 .874-2 1.951v10.512c0 1.225-2.268 2.26-3.5 2.26-1.253 0-3.5-1.007-3.5-2.242v-19.967C45 99.063 51.79 94 58.167 94h19.496c6.377 0 11.564 5.122 11.564 11.491l.008 19.757c-.114 1.204-1.274 2.408-2.62 2.408-1.232 0-2.615-1.051-2.615-2.275v-5.103zm24.452-18.722a1.674 1.674 0 00-2.347.313c-.563.734-.424 2.004.313 2.566l.446.564h-8.857c-.926 0-1.674.575-1.674 1.5s.748 1.5 1.674 1.5h8.293c-.628 0-.722 1.523-.166 2.21.328.409.813.596 1.301.596.368 0 .741-.13 1.052-.382l5.619-4.54-5.654-4.327z" fill="#A91F24"/></svg>