<svg xmlns="http://www.w3.org/2000/svg" width="200" height="200"><circle fill="#F3F3F3" cx="100" cy="100" r="100"/><g fill="#A91F24"><path d="M118.58 125.547a1.338 1.338 0 01-.596-2.537c3.987-1.979 6.182-4.366 6.182-6.725 0-.478-.093-.964-.278-1.446a1.338 1.338 0 011.43-1.805c2.646.362 5.375.502 8.095.42.51-.001.967-.025 1.429-.053l.1-.005c.221-.011.435-.021.646-.044a48.285 48.285 0 001.605-.141l1.012-.125c.254-.026.479-.051.688-.087l.146-.025.1-.018a36.117 36.117 0 004.621-.972c.378-.106.731-.214 1.081-.33a21.778 21.778 0 001.966-.728 8.79 8.79 0 00.844-.377c.057-.029.113-.054.171-.074.236-.118.459-.233.674-.353a10.038 10.038 0 001.388-.862 1.344 1.344 0 011.596-.014c2.77 2.019 3.351 4.076 3.351 5.446 0 1.388-.583 3.458-3.36 5.443-.448.321-.956.642-1.598 1.007l-.001-.001-.091.05c-.173.096-.353.188-.537.28l-.322.167a1.386 1.386 0 01-.194.084c-.203.095-.402.182-.608.27l-.243.106c-.65.281-1.367.547-2.2.817-.372.127-.77.248-1.193.364-1.473.423-3.133.773-4.919 1.04-.123.022-.194.035-.273.044-.206.038-.492.07-.772.101-.182.029-.424.057-.666.084l-.347.04c-.559.059-1.108.103-1.669.146-.256.026-.551.043-.859.056-.148.007-.299.017-.452.025-.188.012-.38.023-.573.031-.176.001-.3.005-.424.007-.15.005-.3.01-.451.01-.344.011-.726.011-1.111.011-3.556 0-7.037-.348-10.111-1.006a21.892 21.892 0 01-2.688 1.543 1.34 1.34 0 01-.589.136zm20.313-3.827l.373 1.295-.24-1.316.143-.024a35.92 35.92 0 004.589-.969c.383-.105.729-.211 1.071-.328.773-.25 1.412-.485 1.977-.731l.255-.108c.208-.09.412-.178.617-.279.044-.021.089-.041.135-.059l.222-.113c.156-.08.31-.156.455-.239l.081-.041c.547-.312.973-.581 1.34-.844 1.025-.732 2.243-1.893 2.243-3.268 0-1.045-.726-1.985-1.528-2.702-.271.166-.555.328-.854.484-.254.144-.553.296-.877.457a1.654 1.654 0 01-.144.063c-.272.136-.575.269-.921.405a24.21 24.21 0 01-2.153.797c-.379.127-.769.245-1.184.363a38.868 38.868 0 01-4.934 1.04l-.243.042c-.235.041-.524.074-.81.103l-1.01.125c-.546.062-1.099.104-1.661.147-.22.024-.485.038-.762.051-.588.035-1.098.062-1.617.062-.47.016-.98.028-1.492.028-1.717 0-3.437-.084-5.132-.252.009.126.012.251.012.378 0 1.9-.791 3.704-2.327 5.356 2.353.368 4.901.56 7.486.558.345 0 .688 0 1.031-.01.168-.001.291-.005.415-.009.149-.004.3-.008.451-.008.12-.006.29-.018.458-.027.17-.011.34-.021.507-.028.254-.009.493-.022.731-.047a57.551 57.551 0 001.604-.14l.354-.041c.205-.022.41-.045.615-.077.283-.033.511-.057.724-.094zm-6.93-14.293a50.12 50.12 0 01-6.907-.459 1.34 1.34 0 01-1.084-1.755c.129-.378.194-.788.194-1.218 0-1.82-1.311-3.374-2.646-4.483-.292.187-.588.365-.886.533a1.338 1.338 0 01-1.326-2.325c1.086-.629 2.017-1.311 2.765-2.027a1.323 1.323 0 011.343-.305c2.663.493 5.538.743 8.548.743.45 0 .889-.012 1.325-.024l.14-.004c.485-.013.97-.027 1.44-.054 1.2-.07 2.347-.179 3.408-.325.328-.03.588-.068.837-.115 2.576-.38 4.862-.948 6.851-1.696.301-.112.603-.226.881-.354.317-.138.591-.256.841-.374a13.08 13.08 0 001.409-.758c.196-.115.34-.2.479-.301.032-.023.067-.045.102-.066.084-.049.157-.107.231-.164.473-.354 1.159-.389 1.634-.042 2.719 1.981 3.289 4.025 3.289 5.392 0 1.375-.582 3.435-3.355 5.436-.468.354-1.032.708-1.699 1.062-.167.095-.371.199-.58.306l-.282.145c-.06.029-.119.056-.182.078-.299.144-.594.275-.902.396-.601.262-1.298.521-2.153.798-.38.126-.771.245-1.189.361-1.47.426-3.132.776-4.928 1.041.013 0-.061.013-.142.027-.34.056-.623.089-.9.118-.196.035-.469.065-.742.094l-.279.031c-.57.061-1.127.116-1.697.148-.213.024-.522.041-.815.055-.382.022-.777.036-1.179.049l-.493.016c-.453.009-.902.02-1.351.02zm-5.138-2.939c2.044.216 4.225.29 6.421.242l.467-.015c.378-.013.752-.025 1.129-.048.256-.012.511-.024.739-.048a31.537 31.537 0 001.615-.142l.292-.032c.222-.023.441-.047.664-.083.303-.036.534-.061.749-.097l.179-.031c1.765-.263 3.309-.589 4.674-.982.388-.108.739-.216 1.087-.33.78-.254 1.401-.483 1.962-.727.327-.13.598-.253.874-.391.045-.021.09-.04.136-.057l.168-.087c.176-.09.35-.178.515-.27.564-.3 1.01-.578 1.387-.864 1.05-.757 2.271-1.923 2.271-3.283 0-1.032-.697-1.948-1.472-2.648-.067.041-.136.08-.204.121-.467.294-1.038.603-1.657.891-.268.126-.564.255-.865.385-.329.151-.692.29-1.051.424-2.164.813-4.637 1.429-7.345 1.828a9.698 9.698 0 01-.984.135 45.91 45.91 0 01-5.075.395l-.139.003c-.459.013-.924.025-1.398.025-2.745 0-5.393-.198-7.885-.59 1.816 1.777 2.765 3.746 2.765 5.779a7.35 7.35 0 01-.019.497zm-61.512 15.325c-.073 0-.146-.005-.22-.018-8.97-1.493-14.543-5.137-14.543-9.509 0-1.961 1.119-3.79 3.325-5.439a1.387 1.387 0 011.624.006c.129.099.261.183.392.269l.111.073c.768.491 1.632.937 2.556 1.313.237.097.474.192.722.288.028.012.056.023.083.037.059.026.127.046.199.067.033.011.066.022.099.035.186.072.385.143.583.203 2.475.833 5.436 1.423 8.596 1.719a1.338 1.338 0 01.666 2.414c-1.516 1.108-3.324 2.878-3.324 5.015 0 .487.099.991.294 1.495a1.338 1.338 0 01-1.143 2.033l-.02-.001zm-10.552-12.236c-1.019.918-1.533 1.827-1.533 2.71 0 2.567 4.141 5.123 10.295 6.481a6.034 6.034 0 01-.019-.483c0-1.786.733-3.523 2.143-5.127-2.26-.35-4.374-.849-6.224-1.471a10.247 10.247 0 01-.689-.241 4.079 4.079 0 01-.463-.17 43.777 43.777 0 01-.725-.29 18.714 18.714 0 01-2.785-1.409zm10.92-5.143h-.01c-.07 0-.14-.005-.21-.017a38.295 38.295 0 01-4.413-.956l-1.024-.295a22.1 22.1 0 01-1.123-.383l-.446-.159a15.894 15.894 0 01-1.239-.505 17.405 17.405 0 01-2.021-1.012c-.44-.245-.882-.525-1.287-.817-2.776-2-3.358-4.071-3.358-5.456 0-1.966 1.16-3.845 3.354-5.435a1.338 1.338 0 011.555-.011c.505.354 1.113.717 1.808 1.077.853.44 1.789.831 2.784 1.159.417.161.752.264 1.088.341.053.012.105.028.157.046.334.121.7.209 1.054.294l.352.094c.878.215 1.649.381 2.38.513.594.095 1.069.58 1.128 1.194.197 2.058 2.068 3.77 3.655 4.868a1.337 1.337 0 01-.612 2.527 1.351 1.351 0 01-.356-.042c-.922.752-1.612 1.522-2.055 2.297a1.332 1.332 0 01-1.161.678zM54.768 90.133c-.807.714-1.54 1.652-1.54 2.702 0 1.376 1.221 2.545 2.245 3.283.322.231.678.457 1.055.667.566.332 1.152.625 1.766.883.371.169.717.311 1.064.436l.47.167c.336.128.658.231.979.334l.969.278c1.015.288 2.108.538 3.263.746.443-.609.986-1.202 1.625-1.777-1.535-1.391-2.53-2.905-2.937-4.475a43.185 43.185 0 01-1.636-.372 5.232 5.232 0 01-.259-.068l-.115-.031a13.246 13.246 0 01-1.25-.35 9.894 9.894 0 01-1.319-.414 21.471 21.471 0 01-4.38-2.009zm11.971-4.9c-.058 0-.117-.003-.176-.012-.555-.073-1.1-.161-1.639-.258a45.833 45.833 0 01-1.55-.285 39.29 39.29 0 01-2.975-.756c-.92-.273-1.78-.571-2.558-.886a1.525 1.525 0 01-.119-.043c-.412-.174-.8-.348-1.172-.524a18.837 18.837 0 01-1.11-.563l-.21-.12a6.556 6.556 0 01-.36-.212l-.228-.14a2.76 2.76 0 00-.199-.127c-3.227-2.124-3.893-4.329-3.893-5.813 0-5.804 9.829-10.181 22.863-10.181.917 0 9.591.621 11.362 1.393a1.338 1.338 0 01-.325 2.549c-10.757 1.707-18.27 5.942-18.27 10.3 0 1.111.483 2.226 1.438 3.315a1.337 1.337 0 01-.862 2.361c-.007.002-.011.001-.017.002zm-8.066-4.745c.032.01.063.021.093.034a25.33 25.33 0 002.391.833 36.446 36.446 0 002.836.719 6.759 6.759 0 01-.49-2.517c0-4.662 5.058-8.82 13.359-11.33-1.581-.142-2.944-.236-3.449-.236-11.896 0-20.186 3.955-20.186 7.504 0 1.495 1.432 2.751 2.633 3.542.044.025.121.072.2.126l.247.152c.083.053.155.092.228.133l.226.129c.26.14.578.308.921.466.323.152.65.299.991.445z"/><path d="M131.963 133.598c-2.599 0-5.162-.188-7.623-.56a1.337 1.337 0 01-.924-2.048c.497-.773.75-1.58.75-2.399 0-2.166-1.84-3.953-3.383-5.07a1.34 1.34 0 011.087-2.387c3.02.697 6.509 1.066 10.093 1.066.366.001.713.001 1.07-.01.169-.001.297-.005.423-.01.15-.003.298-.007.443-.007.12-.006.29-.018.458-.027.17-.011.34-.021.507-.028.254-.009.493-.022.731-.047a57.551 57.551 0 001.604-.14l1.012-.123c.241-.026.469-.051.682-.088l.373 1.295-.24-1.316.143-.024a35.92 35.92 0 004.589-.969c.383-.105.729-.211 1.071-.328.773-.25 1.412-.485 1.977-.731.321-.126.595-.245.853-.378.062-.031.127-.059.193-.081.225-.107.436-.224.638-.34a11.293 11.293 0 001.404-.872 1.334 1.334 0 011.585-.008c2.225 1.62 3.352 3.457 3.352 5.463-.002 5.796-9.832 10.167-22.868 10.167zm-5.435-2.973c1.773.197 3.594.296 5.435.296 11.897 0 20.189-3.948 20.189-7.491 0-.908-.514-1.82-1.529-2.722a16.87 16.87 0 01-.771.447l-.001-.001c-.023.014-.047.025-.07.038-.293.165-.6.331-.93.481a.985.985 0 01-.106.044c-.284.141-.593.276-.922.404a24.52 24.52 0 01-2.148.796c-.372.127-.77.248-1.193.364-1.473.423-3.133.773-4.919 1.04-.123.022-.194.035-.273.044-.206.038-.492.07-.772.101l-1.017.125c-.555.058-1.104.102-1.665.145-.256.026-.551.043-.859.056-.148.007-.299.017-.452.025-.188.012-.38.023-.573.031-.171.001-.293.005-.418.007-.151.005-.305.01-.457.01-.344.011-.726.011-1.111.011-2.209 0-4.391-.134-6.463-.394.886 1.31 1.343 2.693 1.343 4.107a6.844 6.844 0 01-.318 2.036zm5.435-14.466c-2.354 0-4.713-.159-7.007-.473a1.337 1.337 0 01-1.074-.862c-.454-1.23-1.496-2.443-3.099-3.605a1.34 1.34 0 01.005-2.171c1.67-1.198 2.768-2.516 3.176-3.809a1.332 1.332 0 011.461-.922c2.448.341 5.121.474 7.822.413l.178-.005c.468 0 .896-.026 1.329-.052l.106-.006c.24-.012.484-.024.728-.049a30.862 30.862 0 001.608-.141l1.015-.125c.244-.026.476-.051.69-.087l.179-.031a.663.663 0 01.089-.016c1.676-.247 3.22-.573 4.585-.967.388-.108.739-.216 1.087-.33.78-.254 1.401-.483 1.962-.727.319-.128.596-.247.854-.379.054-.028.107-.052.164-.072.236-.119.459-.232.674-.353.564-.3 1.01-.578 1.387-.864a1.341 1.341 0 011.597-.014c2.77 2.02 3.351 4.085 3.351 5.463 0 1.376-.582 3.436-3.355 5.438a12.56 12.56 0 01-1.704 1.062c-.162.092-.366.196-.575.303l-.282.145a1.113 1.113 0 01-.178.077c-.3.146-.597.278-.906.4a24.21 24.21 0 01-2.153.797c-.379.127-.769.245-1.184.363a38.868 38.868 0 01-4.934 1.04l-.243.042c-.235.041-.524.074-.81.103-.174.032-.436.062-.697.09l-.308.035c-.551.062-1.104.104-1.666.147-.22.024-.486.038-.763.051-.574.034-1.072.048-1.581.062-.506.016-1.016.029-1.528.029zm-5.903-3.029c2.414.291 4.889.4 7.354.324.486-.013.955-.024 1.429-.053l.099-.005c.221-.01.435-.021.646-.044a48.523 48.523 0 001.605-.141l.324-.036c.212-.023.424-.047.636-.082.306-.033.53-.058.74-.094l.146-.025.1-.018a36.117 36.117 0 004.621-.972c.378-.106.731-.214 1.081-.33a21.636 21.636 0 001.965-.728c.322-.128.592-.25.866-.388.046-.022.092-.043.141-.061l.168-.086c.176-.089.35-.178.515-.27a10.038 10.038 0 001.388-.862c1.049-.757 2.27-1.923 2.27-3.284 0-1.056-.726-1.999-1.529-2.718-.263.162-.545.322-.849.483-.259.146-.558.297-.882.459a1.304 1.304 0 01-.149.063 11.94 11.94 0 01-.915.402c-.601.262-1.298.521-2.153.798-.38.126-.771.245-1.189.361-1.459.422-3.107.771-4.889 1.034-.059.013-.117.022-.181.034-.34.056-.623.089-.9.118l-1.027.125a32.66 32.66 0 01-1.691.148c-.231.024-.525.041-.815.055-.554.032-1.035.061-1.526.061l-.146.004c-2.475.056-4.926-.041-7.218-.306-.525 1.064-1.325 2.08-2.39 3.038 1.044.953 1.832 1.953 2.355 2.996zm5.903-14.324c-3.235 0-6.332-.275-9.204-.819a1.353 1.353 0 01-.674-2.307c1.38-1.29 2.081-2.626 2.081-3.973 0-2.117-1.797-3.892-3.304-5.008a1.336 1.336 0 01.008-2.157c1.952-1.423 3.083-2.982 3.271-4.509a1.34 1.34 0 011.156-1.163 51.86 51.86 0 016.665-.43c13.036 0 22.866 4.377 22.866 10.183 0 1.958-1.137 3.824-3.289 5.393-.18.135-.336.249-.508.35a8.177 8.177 0 01-.556.352c-.467.294-1.038.603-1.657.891-.29.148-.598.286-.903.403-.322.145-.67.278-1.013.406-2.164.813-4.637 1.429-7.345 1.828a9.698 9.698 0 01-.984.135 45.91 45.91 0 01-5.075.395l-.138.003c-.458.014-.922.027-1.397.027zm-6.41-3.082c2.043.27 4.189.405 6.41.405.45 0 .89-.012 1.326-.024l.139-.004a49.42 49.42 0 001.443-.054 44.01 44.01 0 003.405-.325c.328-.03.588-.068.837-.115 2.576-.38 4.862-.948 6.851-1.696.301-.112.603-.226.881-.354l.086-.036c.248-.092.48-.199.717-.32.56-.262 1.032-.516 1.447-.776.208-.122.369-.229.51-.323.154-.093.228-.151.302-.208 1.056-.77 2.246-1.922 2.246-3.272 0-3.551-8.292-7.506-20.189-7.506-1.792 0-3.597.1-5.379.295-.428 1.495-1.37 2.907-2.813 4.22 2.016 1.863 3.072 3.94 3.072 6.075-.001 1.378-.442 2.738-1.291 4.018zm-56.828 15.804h-.01a1.03 1.03 0 01-.124-.007c-3.364-.313-6.534-.947-9.168-1.834a10.247 10.247 0 01-.689-.241 4.079 4.079 0 01-.463-.17 43.777 43.777 0 01-.725-.29 18.496 18.496 0 01-3.003-1.548l-.145-.094a9.852 9.852 0 01-.411-.278 1.026 1.026 0 01-.094-.063c-2.761-2-3.341-4.062-3.341-5.438 0-1.976 1.16-3.858 3.355-5.446a1.34 1.34 0 011.566-.002c.323.232.679.458 1.056.668.566.332 1.152.625 1.766.883.36.169.696.307 1.053.431l.458.163c.359.136.681.24 1.002.343l.969.278c1.259.357 2.639.656 4.106.889a1.338 1.338 0 01.947 1.996c-.43.737-.647 1.485-.647 2.227 0 2.166 1.844 3.943 3.39 5.053a1.335 1.335 0 01.03 2.152c-.245.21-.557.328-.878.328zm-13.36-6.762c.056.031.11.069.161.108.101.081.213.151.323.222l.152.1c.768.491 1.632.937 2.555 1.313.238.097.474.192.722.288.028.012.056.023.083.037.059.026.127.046.199.067.033.011.066.022.099.035.186.072.385.143.583.203 1.445.486 3.056.891 4.775 1.201-.999-1.377-1.515-2.842-1.515-4.345 0-.633.092-1.262.273-1.88a35.967 35.967 0 01-2.729-.654l-1.024-.295a22.1 22.1 0 01-1.123-.383 10.878 10.878 0 01-.295-.104l-.151-.055c-.44-.153-.865-.327-1.256-.513a16.8 16.8 0 01-2.003-1.004 14.708 14.708 0 01-.433-.252c-.805.714-1.536 1.654-1.536 2.71.003 1.324 1.142 2.459 2.14 3.201zm9.504-11.203c-.08 0-.159-.007-.239-.021a57.797 57.797 0 01-2.52-.529 6.838 6.838 0 01-.28-.073l-.462-.125c-.315-.085-.627-.17-.937-.269a18.489 18.489 0 01-1.107-.341l-.111-.037a25.802 25.802 0 01-3.161-1.316 18.75 18.75 0 01-2.133-1.272c-2.787-2.028-3.369-4.088-3.369-5.462 0-1.966 1.099-3.778 3.265-5.387a1.337 1.337 0 011.616.016c.131.101.262.188.402.275.077.044.168.102.258.164l.082.058a.91.91 0 01.149.083c.118.076.247.15.375.217.369.216.656.362.942.482a.955.955 0 01.086.04c.293.148.599.288.92.416.048.014.094.03.139.05.741.318 1.531.593 2.348.818.828.26 1.719.487 2.773.708.527.118.993.204 1.44.265.54.098 1.047.179 1.553.246.338.04.659.207.879.469.222.265.475.511.772.752.038.031.075.064.109.099.11.112.221.206.328.278.048.033.094.067.138.106.111.099.23.185.35.272a1.337 1.337 0 01.009 2.159c-1.507 1.116-3.303 2.891-3.303 5.008 0 .063.002.127.005.192.026.104.04.212.04.324 0 .743-.613 1.337-1.346 1.338-.004-.003-.006-.003-.01-.003zM54.688 81.47c-.971.882-1.461 1.771-1.461 2.647 0 1.362 1.224 2.539 2.25 3.285.487.342 1.096.705 1.791 1.064a23.01 23.01 0 002.8 1.165l.096.032c.326.107.67.222 1.021.314.335.106.606.178.879.252l.64.172c.295.067.593.135.896.201.301-1.745 1.313-3.433 2.983-4.975a8.6 8.6 0 01-.496-.473 36.897 36.897 0 01-1.167-.193 19.343 19.343 0 01-1.58-.291 30.557 30.557 0 01-2.965-.757 20.54 20.54 0 01-2.545-.882l-.07-.024c-.399-.156-.792-.33-1.197-.533a9.676 9.676 0 01-1.167-.595 6.54 6.54 0 01-.456-.262 2.45 2.45 0 01-.252-.147z"/><path d="M118.797 113.147a1.337 1.337 0 01-.617-2.527c.392-.203.784-.417 1.137-.616a1.337 1.337 0 011.336 2.319c-.375.219-.8.468-1.288.697a1.34 1.34 0 01-.568.127z"/><path d="M117.508 113.761a1.339 1.339 0 01-.53-2.567c.202-.088.392-.172.585-.271a1.337 1.337 0 011.948 1.19c0 .487-.266.956-.728 1.192-.246.126-.486.233-.744.345a1.298 1.298 0 01-.531.111z"/><path d="M116.133 114.333a1.341 1.341 0 01-1.339-1.337 1.343 1.343 0 01.899-1.267c.205-.07.396-.153.59-.234a1.349 1.349 0 011.762.688c.296.672.007 1.45-.662 1.753-.25.113-.529.225-.812.324-.145.05-.293.073-.438.073zm-9.022-9.836a1.336 1.336 0 01-1.336-1.34c0-.64.461-1.208 1.115-1.317a34.285 34.285 0 001.652-.321 1.338 1.338 0 11.581 2.613c-.579.13-1.177.245-1.787.348a1.412 1.412 0 01-.225.017zm0 12.288a1.337 1.337 0 01-.211-2.659c.56-.091 1.106-.199 1.638-.319a1.34 1.34 0 011.634 1.306 1.34 1.34 0 01-1.043 1.306 31.07 31.07 0 01-1.802.351c-.073.01-.143.015-.216.015zm0 12.294a1.337 1.337 0 01-.221-2.657 32.448 32.448 0 001.647-.323 1.338 1.338 0 11.591 2.611c-.582.132-1.181.248-1.792.351a1.54 1.54 0 01-.225.018zm.077-36.745a1.34 1.34 0 01-.235-2.656 47.455 47.455 0 001.558-.3 1.333 1.333 0 011.623 1.31 1.34 1.34 0 01-1.054 1.306c-.546.118-1.107.234-1.682.324a1.35 1.35 0 01-.21.016z"/><path d="M105.667 92.588c-.652 0-1.249-.466-1.354-1.125a1.406 1.406 0 01-.018-.223c0-.641.439-1.199 1.095-1.302l.073-.012c.497-.079.999-.157 1.484-.247a1.343 1.343 0 011.581 1.317 1.34 1.34 0 01-1.097 1.316 62.07 62.07 0 01-1.553.258c-.069.012-.14.018-.211.018zm-.388 24.492a1.337 1.337 0 01-.192-2.663 70.81 70.81 0 001.676-.259 1.339 1.339 0 01.452 2.639c-.573.098-1.146.185-1.744.271a1.799 1.799 0 01-.192.012zm0-12.289a1.337 1.337 0 01-.207-2.66l1.604-.251a1.336 1.336 0 011.53 1.099 1.34 1.34 0 01-1.085 1.541c-.56.1-1.104.189-1.674.261-.055.006-.112.01-.168.01z"/><path d="M103.328 105.044a1.34 1.34 0 01-.143-2.67 38.413 38.413 0 001.861-.244 1.338 1.338 0 01.418 2.644c-.645.103-1.318.188-1.99.261a1.192 1.192 0 01-.146.009zm0 12.287a1.338 1.338 0 01-.143-2.669c.632-.069 1.25-.15 1.869-.244a1.333 1.333 0 011.522 1.122c.111.73-.39 1.412-1.119 1.524-.643.099-1.313.187-1.983.259a1.428 1.428 0 01-.146.008zm.27-24.467a1.338 1.338 0 01-.155-2.668c.472-.056.931-.11 1.389-.177a1.342 1.342 0 011.533 1.327c0 .653-.479 1.225-1.146 1.322-.482.071-.965.128-1.462.187a1.467 1.467 0 01-.159.009zm-.27 36.756a1.336 1.336 0 01-1.329-1.206 1.337 1.337 0 011.181-1.462c.472-.054.941-.107 1.398-.175a1.337 1.337 0 011.533 1.328c0 .653-.479 1.225-1.145 1.321a25.78 25.78 0 01-1.521.188.936.936 0 01-.117.006z"/><path d="M101.355 105.236a1.34 1.34 0 01-.108-2.674 70.141 70.141 0 001.708-.164l.237-.025a1.34 1.34 0 011.467 1.18 1.336 1.336 0 01-1.161 1.479c-.668.085-1.348.143-2.03.199a1.424 1.424 0 01-.113.005zm0 12.292a1.338 1.338 0 01-.114-2.672 101.5 101.5 0 001.944-.194 1.345 1.345 0 011.473 1.172 1.336 1.336 0 01-1.154 1.485c-.623.081-1.255.136-1.892.191l-.14.012a1.117 1.117 0 01-.117.006zm.624 12.23a1.337 1.337 0 01-.114-2.671c.44-.039.87-.078 1.293-.132a1.338 1.338 0 11.346 2.653c-.461.061-.927.103-1.405.144a1.22 1.22 0 01-.12.006zm-.585-36.674a1.339 1.339 0 01-.127-2.671h.011c.614-.055 1.198-.107 1.798-.176a1.339 1.339 0 01.31 2.659c-.587.069-1.188.123-1.803.177l-.07.006c-.04.004-.079.005-.119.005z"/><path d="M99.79 105.362a1.34 1.34 0 01-.105-2.672l.521-.039a28.38 28.38 0 001.009-.084 1.346 1.346 0 011.473 1.187 1.339 1.339 0 01-1.185 1.475c-.373.041-.752.068-1.14.097l-.469.033-.104.003zm0 12.292a1.34 1.34 0 01-.11-2.673l.588-.044c.316-.022.631-.046.947-.079a1.347 1.347 0 011.473 1.188 1.339 1.339 0 01-1.185 1.474c-.351.039-.708.064-1.072.09l-.533.04c-.036.002-.072.004-.108.004zm-4.622-24.301c-.951 0-1.982-.024-3.152-.072-.417-.012-.84-.037-1.266-.062l-.147-.009a32.34 32.34 0 01-1.791-.132 65.6 65.6 0 01-1.852-.182l-.335-.039a30.08 30.08 0 01-1.639-.215 3.993 3.993 0 01-.251-.034l-.103-.015a.924.924 0 01-.092-.011 62.296 62.296 0 01-1.613-.27 57.699 57.699 0 01-1.703-.328 37.679 37.679 0 01-2.106-.477c-.311-.081-.609-.162-.907-.243l-.348-.094c-.368-.1-.74-.206-1.11-.319a3.313 3.313 0 01-.156-.054 32.645 32.645 0 01-.921-.292l-.206-.065a1.377 1.377 0 01-.107-.04l-.208-.064a48.111 48.111 0 01-1.934-.74 31.25 31.25 0 01-2.043-.918c-.32-.157-.639-.318-.934-.494l-.038-.021a19.407 19.407 0 01-.879-.512 14.268 14.268 0 01-1.293-.852 10.795 10.795 0 01-.134-.093c-.152-.122-.237-.187-.319-.25l-.169-.131a10.387 10.387 0 01-.619-.521c-.29-.243-.6-.54-.929-.897a1.238 1.238 0 01-.116-.113c-1.49-1.637-2.245-3.399-2.245-5.239 0-5.885 8.058-10.966 20.528-12.944 3.514-.564 7.262-.851 11.137-.851 17.762 0 31.674 6.059 31.674 13.794 0 .256-.013.533-.042.796-.288 2.323-1.752 4.457-4.354 6.354-.368.27-.863.62-1.429.947a7.344 7.344 0 01-.661.394 6.337 6.337 0 01-.421.231c-.177.097-.36.191-.545.287l-.193.1c-.315.159-.627.309-.944.447-.035.02-.071.037-.109.054l.001.001c-.334.145-.676.292-1.032.434-.349.143-.707.29-1.097.432l-.296.108c-.271.1-.549.202-.837.297a48.18 48.18 0 01-5.815 1.559c-.534.115-1.096.231-1.67.322-.473.087-.997.17-1.519.252l-.647.096c-.497.073-.979.13-1.477.189l-.328.035c-.638.075-1.247.129-1.871.185-.626.063-1.227.107-1.843.147-.259.009-.474.019-.688.029-.238.011-.478.022-.713.029a72.29 72.29 0 01-3.144.074zm-10.249-3.421c.074.008.15.019.227.031l.118.016c.035.003.07.007.104.013.5.08 1.009.148 1.532.203l.288.032c.65.077 1.224.127 1.81.179l.092.008c.548.057 1.097.098 1.655.123l.166.009c.397.024.793.047 1.2.058 2.31.096 3.858.094 6.109.001.238-.007.461-.017.684-.028.229-.011.457-.021.682-.028a51.537 51.537 0 001.676-.135c.658-.058 1.241-.11 1.813-.177.159-.019.28-.033.404-.044.438-.052.896-.106 1.354-.173l.565-.082c.564-.09 1.065-.168 1.552-.258a28.313 28.313 0 001.563-.301 45.776 45.776 0 005.525-1.479c.268-.089.517-.181.761-.271l.307-.112c.351-.128.677-.262 1.005-.396.304-.122.588-.243.862-.362.042-.023.085-.044.13-.063.301-.129.595-.271.878-.413l.184-.094c.166-.086.33-.171.49-.259.151-.079.245-.125.331-.18a1.64 1.64 0 01.116-.065c.164-.083.319-.18.464-.278.027-.018.054-.035.082-.051.471-.27.902-.576 1.225-.812 1.952-1.424 3.084-2.983 3.272-4.509.018-.15.024-.321.024-.479 0-5.369-11.652-11.118-28.998-11.118-3.733 0-7.338.275-10.715.817-10.76 1.707-18.273 5.942-18.273 10.3 0 1.117.489 2.238 1.454 3.333.039.034.076.069.11.108.287.317.548.574.824.806.191.176.354.304.503.423l.14.108c.088.068.18.138.271.212.069.045.136.093.202.148.306.221.661.455 1.021.663.269.167.501.301.743.435.045.021.089.045.131.071.243.149.512.281.781.413.618.306 1.23.581 1.873.842a44.3 44.3 0 001.786.684c.131.04.228.071.317.105l.168.055c.302.098.602.196.904.285.041.013.081.026.122.042.349.108.692.206 1.032.298l.352.096c.287.079.575.157.872.233.646.166 1.288.311 1.962.443.543.11 1.089.221 1.65.317.508.096 1.009.177 1.518.257zm5.641 15.43a.951.951 0 01-.106-.005l-.486-.035a31.771 31.771 0 01-1.132-.095 1.336 1.336 0 01-1.188-1.473 1.339 1.339 0 011.473-1.188 27 27 0 001.037.086l.504.037a1.339 1.339 0 01-.102 2.673zm0 12.292a1.35 1.35 0 01-.11-.005l-.548-.041c-.359-.025-.713-.05-1.066-.089a1.336 1.336 0 01-1.188-1.473 1.334 1.334 0 011.473-1.188c.322.034.644.058.971.081l.574.042a1.337 1.337 0 011.226 1.443c-.057.7-.642 1.23-1.332 1.23z"/><path d="M88.979 105.236a1.42 1.42 0 01-.112-.005 46.93 46.93 0 01-2.019-.199 1.337 1.337 0 01-1.162-1.479 1.348 1.348 0 011.467-1.18l.316.033c.52.054 1.042.109 1.573.154a1.338 1.338 0 01-.047 2.676c-.013-.005-.011 0-.016 0zm0 12.292c-.039 0-.078-.002-.117-.006l-.101-.008c-.647-.057-1.283-.112-1.917-.195a1.338 1.338 0 01.317-2.657c.624.067 1.25.134 1.886.189a1.338 1.338 0 01-.051 2.677h-.017zm-.026-24.444c-.041 0-.08-.002-.121-.005l.119-1.333-.121 1.333-.071-.006c-.61-.054-1.209-.107-1.794-.176h-.003a1.338 1.338 0 01.311-2.659c.527.061 1.058.109 1.585.157l.214.02a1.338 1.338 0 01-.119 2.669zm-.866 36.649a.945.945 0 01-.105-.005 21.69 21.69 0 01-1.13-.119 1.339 1.339 0 01-1.164-1.49 1.33 1.33 0 011.487-1.166c.341.04.677.081 1.018.108a1.338 1.338 0 01-.106 2.672z"/><path d="M87.019 105.044c-.048 0-.097-.003-.146-.009a39.102 39.102 0 01-1.991-.261 1.339 1.339 0 01.417-2.644l.005.001c.598.092 1.195.171 1.804.237a1.339 1.339 0 01-.071 2.676h-.018zm0 12.287c-.048 0-.097-.003-.146-.008-.67-.072-1.341-.16-1.983-.259a1.338 1.338 0 01.402-2.646c.601.091 1.203.171 1.815.237a1.34 1.34 0 01-.071 2.676h-.017zm-.001 12.289c-.038 0-.077-.001-.116-.005a26.47 26.47 0 01-1.519-.188 1.337 1.337 0 01-1.131-1.517 1.34 1.34 0 011.517-1.132c.458.067.926.121 1.397.175a1.338 1.338 0 01-.148 2.667zm-.255-36.756c-.047 0-.093-.002-.141-.007-.572-.06-1.13-.134-1.678-.222a1.338 1.338 0 11.425-2.642c.5.08 1.009.148 1.532.203a1.338 1.338 0 01-.138 2.668z"/><path d="M85.094 104.791c-.053 0-.107-.003-.161-.01-.003 0-.006-.002-.007-.001a.056.056 0 01-.007-.001h-.002a32.052 32.052 0 01-1.684-.261 1.34 1.34 0 01.445-2.64l.556.089a25.749 25.749 0 001.034.157l.011.002h.002l.002.001h.003v.001h.004l.001.001h.003l.001.001h.008c.001.002.001.001.002.001h.002c.001.002.001.001.002.001h.001l.001.001h.002l.002.001h.003c.002.002.002.001.003.001h.001l.002.001h.005l.002.001h.003v.001h.003a1.345 1.345 0 011.075 1.251v.15l-.001.012a1.336 1.336 0 01-1.099 1.222l-.006.001-.002.001a1.46 1.46 0 01-.21.016zm0 12.289c-.063 0-.127-.005-.191-.013a67.885 67.885 0 01-1.757-.271 1.338 1.338 0 11.449-2.639 63.29 63.29 0 001.687.258 1.34 1.34 0 01-.188 2.665zm-.344-24.481c-.07 0-.14-.005-.21-.017-.547-.086-1.094-.172-1.617-.271a1.338 1.338 0 01.49-2.632c.486.09.977.168 1.475.248a1.337 1.337 0 01-.113 2.671l-.025.001z"/><path d="M83.235 104.497c-.079 0-.16-.006-.241-.021a52.927 52.927 0 01-1.83-.36 1.338 1.338 0 11.568-2.615c.574.125 1.145.233 1.739.342a1.338 1.338 0 01-.236 2.654zm0 12.288c-.079 0-.16-.007-.241-.021a60.763 60.763 0 01-1.823-.354 1.339 1.339 0 01-1.034-1.586 1.342 1.342 0 011.586-1.032c.577.121 1.15.229 1.747.339a1.337 1.337 0 01-.235 2.654zm0 12.294c-.072 0-.144-.006-.216-.018a37.407 37.407 0 01-1.851-.362 1.341 1.341 0 01-1.029-1.59 1.333 1.333 0 011.589-1.027c.577.123 1.149.232 1.747.342a1.337 1.337 0 01-.24 2.655zm-.064-36.745c-.076 0-.152-.006-.23-.02a56.448 56.448 0 01-1.717-.33 1.34 1.34 0 01.532-2.625c.535.109 1.081.219 1.642.316a1.34 1.34 0 01-.227 2.659zm-5.935 23.043c-.109 0-.221-.013-.332-.042a8.063 8.063 0 01-.926-.297 1.338 1.338 0 01.897-2.521c.216.071.444.145.663.214a1.34 1.34 0 01-.27 2.647l-.032-.001z"/><path d="M95.168 142.384c-17.756 0-31.665-6.059-31.665-13.794 0-2.603 1.557-5.105 4.502-7.238a1.342 1.342 0 011.628.043c.101.082.21.152.321.223l.045.03c.025.018.051.036.076.056l.052.032c.191.121.383.243.584.363a19.56 19.56 0 001.645.906c.92.464 1.875.873 2.853 1.229.288.113.552.205.825.301l.413.145c.287.096.609.198.943.292.341.111.635.194.927.276l.265.076c1.056.296 2.111.55 3.128.754a62.48 62.48 0 001.765.346 65.045 65.045 0 003.691.529c.35.041.686.082 1.026.109a82.28 82.28 0 002.573.206c.459.028.894.055 1.343.068a69.765 69.765 0 009.743-.248c.453-.04.883-.079 1.306-.133.494-.057.964-.11 1.421-.178a46.34 46.34 0 002.301-.354 31.694 31.694 0 001.659-.324c.791-.157 1.523-.33 2.242-.511a39.224 39.224 0 003.249-.957c.233-.077.444-.153.651-.227l.455-.163a25.67 25.67 0 002.837-1.226 19.081 19.081 0 002.814-1.667 1.338 1.338 0 011.567.003c2.936 2.127 4.488 4.63 4.488 7.238 0 1.342-.396 2.637-1.177 3.85-3.736 5.944-15.996 9.945-30.496 9.945zm-26.326-18.295c-1.343 1.117-2.661 2.678-2.661 4.501 0 5.369 11.648 11.117 28.988 11.117 13.19 0 25.066-3.661 28.24-8.705.505-.786.758-1.593.758-2.412 0-1.829-1.311-3.387-2.647-4.501a21.74 21.74 0 01-2.354 1.324c-.943.481-2.006.939-3.133 1.352l-.444.157a41.425 41.425 0 01-4.161 1.265c-.76.188-1.534.373-2.332.531-.547.123-1.146.239-1.757.342-.872.156-1.66.277-2.397.37a45.76 45.76 0 01-1.459.182c-.438.058-.904.1-1.383.141a71.784 71.784 0 01-10.082.26 39.321 39.321 0 01-1.396-.072 78.483 78.483 0 01-2.661-.213c-.355-.027-.726-.07-1.1-.116a70.244 70.244 0 01-3.86-.552 66.942 66.942 0 01-1.832-.359 45.072 45.072 0 01-3.316-.801l-.265-.074c-.33-.095-.663-.188-.978-.293a21.052 21.052 0 01-1.036-.322l-.417-.146a18.931 18.931 0 01-.898-.328 28.592 28.592 0 01-3.088-1.331 21.609 21.609 0 01-1.84-1.015c-.166-.098-.328-.201-.489-.302zm5.386-9.756c-.156 0-.314-.027-.468-.084a21.91 21.91 0 01-2.171-.939 1.337 1.337 0 011.175-2.404c.585.277 1.205.548 1.845.801a1.338 1.338 0 01-.347 2.627l-.034-.001z"/><path d="M72.19 113.453c-.162 0-.328-.029-.487-.092a6.519 6.519 0 01-.78-.379 1.342 1.342 0 01-.529-1.818 1.338 1.338 0 011.817-.529c.126.069.257.13.386.19l.049.023a1.34 1.34 0 01-.424 2.604l-.032.001z"/><path d="M71.566 113.147c-.195 0-.394-.043-.582-.134a13.53 13.53 0 01-1.314-.713 1.339 1.339 0 011.373-2.297c.317.179.667.37 1.02.555a1.338 1.338 0 01-.467 2.589h-.03z"/><path d="M70.382 112.506c-.207 0-.416-.048-.612-.148a5.876 5.876 0 01-.721-.432 1.337 1.337 0 011.486-2.226c.126.079.262.158.399.24a1.34 1.34 0 01-.526 2.566h-.026z"/><path d="M95.168 117.792c-.947 0-1.978-.023-3.151-.071-.268-.01-.544-.022-.819-.035l-.49-.021a1.496 1.496 0 01-.133-.013c-.037.001-.09.001-.125-.003l-.548-.041c-.359-.025-.713-.05-1.066-.089a94.55 94.55 0 01-1.964-.196 48.578 48.578 0 01-1.979-.258 65.93 65.93 0 01-1.748-.269c-.026-.004-.051-.01-.076-.015-.037-.008-.087-.016-.146-.031a58.538 58.538 0 01-1.753-.341 47.552 47.552 0 01-4.329-1.092 59.005 59.005 0 01-.803-.259 25.756 25.756 0 01-2.324-.828 34.236 34.236 0 01-2.098-.907l-.16-.076a8.843 8.843 0 01-.534-.266 32.733 32.733 0 01-1.2-.651 20.79 20.79 0 01-.613-.366 11.33 11.33 0 01-1.143-.775c-2.904-2.082-4.463-4.581-4.463-7.194 0-1.221.34-2.423 1.011-3.574a1.2 1.2 0 01.084-.126c.74-1.238 1.886-2.423 3.41-3.521a1.337 1.337 0 011.621.042c.091.073.189.135.288.198.075.042.145.089.209.143.193.122.386.244.589.366l.088.05c.093.054.189.109.281.165.34.207.712.396 1.094.593l.208.108c.269.142.546.263.824.385a33.642 33.642 0 004.208 1.575c.325.107.632.192.936.277l.221.062c1.095.311 2.117.558 3.131.758.601.13 1.171.238 1.766.347l.119.02a27.079 27.079 0 001.669.261c.646.102 1.274.183 1.902.25.653.082 1.285.136 1.928.188.375.041.72.065 1.068.09l.454.033c.083.001.17.005.269.018.185.006.37.015.556.024.222.01.445.021.67.027 1.106.048 2.1.07 3.063.07a80.51 80.51 0 004.547-.138l.49-.037c.336-.024.672-.048 1.009-.084.677-.057 1.317-.11 1.947-.189.65-.07 1.28-.151 1.881-.246.045-.008.091-.013.137-.016.499-.063.979-.144 1.472-.232.133-.025.198-.038.264-.047a34.112 34.112 0 001.628-.317 57.692 57.692 0 002.243-.511 43.828 43.828 0 002.131-.604c1.552-.47 2.943-.987 4.146-1.542.331-.145.627-.286.914-.43a15.74 15.74 0 001.315-.704 15.811 15.811 0 001.491-.954 1.34 1.34 0 011.569 0c2.937 2.122 4.489 4.619 4.489 7.221 0 .722-.112 1.421-.335 2.077-.583 1.848-1.984 3.59-4.157 5.149-.516.386-1.1.765-1.717 1.111-.377.215-.801.445-1.222.664a9.857 9.857 0 01-.687.336c-.189.099-.43.206-.688.317-.187.1-.467.22-.744.321-.211.092-.458.196-.723.288-2.237.884-4.77 1.618-7.473 2.165-.541.122-1.126.238-1.727.336l-.021.006a1.592 1.592 0 01-.137.03c-.573.098-1.146.185-1.744.271a1.493 1.493 0 01-.094.009c-.629.095-1.259.178-1.901.247-.658.071-1.327.141-2.002.199-.321.036-.678.062-1.042.087l-.532.04c-1.679.098-3.26.145-4.729.145zm-4.293-2.8l.449.02c.26.013.524.024.79.034 1.15.046 2.146.068 3.055.068a81.43 81.43 0 004.547-.135l.524-.039c.33-.024.653-.047.972-.082.684-.06 1.335-.127 1.974-.196.632-.069 1.25-.15 1.869-.244a1 1 0 01.11-.012 68.164 68.164 0 001.545-.239.711.711 0 01.067-.016c.041-.011.082-.019.123-.025.56-.091 1.106-.199 1.638-.319 2.581-.521 4.959-1.211 7.103-2.057.258-.091.449-.174.643-.255l.087-.037a4.7 4.7 0 00.527-.227c.281-.125.471-.209.664-.309.237-.108.413-.189.585-.285.425-.221.817-.435 1.17-.634.521-.294 1.008-.61 1.451-.94 1.69-1.214 2.788-2.531 3.196-3.824.137-.404.202-.814.202-1.244 0-1.82-1.311-3.374-2.646-4.483-.292.187-.588.365-.886.533-.492.293-.986.558-1.482.792-.301.152-.642.314-.992.468-1.291.595-2.798 1.155-4.454 1.657-.683.214-1.43.426-2.268.643-.774.188-1.546.372-2.339.532-.554.124-1.151.239-1.762.342l-.221.041c-.554.1-1.099.189-1.668.261l-.063.006c-.621.098-1.266.179-1.91.249-.645.082-1.324.14-2.007.196a33.29 33.29 0 01-1.07.089l-.5.037a82.308 82.308 0 01-4.729.145c-1.003 0-2.035-.023-3.155-.071-.223-.007-.467-.019-.709-.03-.195-.01-.389-.019-.582-.025a1.186 1.186 0 01-.188-.019l-.566-.034a31.771 31.771 0 01-1.132-.095c-.65-.053-1.319-.11-1.987-.195a38.185 38.185 0 01-1.967-.258 30.255 30.255 0 01-1.649-.256l-.134-.023-.105-.019a52.927 52.927 0 01-1.83-.36 40.017 40.017 0 01-3.317-.803l-.21-.059c-.346-.097-.696-.194-1.027-.304a36.106 36.106 0 01-4.464-1.67 16.2 16.2 0 01-1-.471l-.192-.099c-.44-.227-.867-.447-1.266-.689l-.336-.197a26.463 26.463 0 01-.511-.315c-.893.737-1.563 1.491-1.997 2.249a1.29 1.29 0 01-.079.123c-.387.701-.583 1.411-.583 2.113 0 2.166 1.844 3.943 3.39 5.053.284.22.562.407.947.642.181.113.359.217.539.321.339.191.731.405 1.125.609.157.085.288.146.416.206l.174.082c.612.29 1.27.574 1.947.842.673.278 1.382.53 2.13.759.276.091.541.175.79.253 1.222.375 2.56.713 4.083 1.029.581.122 1.154.23 1.751.34.032.004.064.013.097.021a56.933 56.933 0 001.713.265 44.29 44.29 0 001.879.246 94.32 94.32 0 002.931.277l.519.038c.078 0 .163.002.261.013z"/><path d="M95.168 105.502c-1.003 0-2.035-.023-3.155-.071-.223-.007-.467-.019-.709-.03-.195-.01-.389-.019-.582-.025a1.186 1.186 0 01-.188-.019l-.566-.034a31.771 31.771 0 01-1.132-.095c-.533-.043-1.09-.101-1.644-.158l-.313-.033a41.639 41.639 0 01-1.993-.262 30.687 30.687 0 01-1.088-.165l-.699-.114-.105-.019a52.927 52.927 0 01-1.83-.36 40.113 40.113 0 01-3.317-.803l-.109-.03c-.372-.104-.744-.21-1.115-.328a36.25 36.25 0 01-4.478-1.674 23.102 23.102 0 01-.631-.295l-.309-.146a17.89 17.89 0 01-1.518-.818l-.336-.197c-.246-.148-.464-.286-.682-.423l-.099-.063a1.277 1.277 0 01-.145-.105c-2.886-1.975-4.562-4.285-4.859-6.697a1.199 1.199 0 01-.033-.224c-.019-.2-.03-.411-.03-.606 0-2.559 1.518-5.034 4.388-7.159a1.34 1.34 0 011.583-.008c.054.033.134.088.211.153.306.221.661.455 1.021.663.269.167.501.301.743.435.037.018.073.036.108.057.262.154.526.291.805.427.618.306 1.23.581 1.873.842.355.159.679.283.997.394.241.099.408.156.573.214l.24.085c.115.035.21.064.3.1.341.114.689.229 1.052.333.045.013.09.028.133.045.341.111.677.205 1.021.295.433.132.807.234 1.195.322.685.175 1.327.32 2.002.453.543.11 1.089.221 1.65.317.504.095 1.012.175 1.521.255.074.008.15.019.227.031l.118.016c.035.003.069.007.104.013.5.08 1.009.148 1.532.203l.288.032c.612.07 1.144.119 1.67.167l.214.02c.564.058 1.114.099 1.671.124l.166.009c.397.024.793.047 1.2.058 2.31.096 3.858.094 6.109.001.247-.007.474-.018.699-.028.224-.01.446-.021.667-.028a51.537 51.537 0 001.676-.135 68.666 68.666 0 001.815-.177c.156-.018.277-.032.401-.044.438-.052.896-.106 1.354-.173l.565-.082c.564-.09 1.065-.168 1.552-.258a48.374 48.374 0 001.563-.301c.72-.15 1.4-.298 2.061-.465a37.054 37.054 0 003.449-1.01 12.51 12.51 0 001.04-.372c.4-.136.702-.258 1.006-.395.028-.013.058-.025.089-.036.272-.101.536-.208.792-.329.049-.03.101-.056.152-.078.301-.129.595-.271.878-.413l.183-.094c.167-.086.331-.171.491-.259.151-.079.245-.125.331-.18a1.64 1.64 0 01.116-.065c.164-.083.319-.18.464-.278.027-.018.054-.035.082-.051.471-.27.902-.576 1.225-.812a1.338 1.338 0 011.586.005c2.871 2.125 4.388 4.6 4.388 7.159 0 2.089-1.014 4.139-2.932 5.929-.89.854-1.991 1.665-3.264 2.4-.47.265-.955.522-1.453.78a21.14 21.14 0 01-1.035.488c-1.291.595-2.798 1.155-4.454 1.657-.683.214-1.43.426-2.268.643-.774.188-1.546.372-2.339.532-.554.124-1.151.239-1.762.342l-1.847.296c-.036.006-.072.01-.109.013-.631.097-1.262.178-1.906.248l-.242.025c-.582.061-1.172.122-1.765.171-.338.037-.717.064-1.104.093l-.469.033c-1.73.1-3.267.146-4.726.146zm-4.289-2.799c.185.006.37.015.556.024.222.01.445.021.67.027 1.106.048 2.1.07 3.063.07a80.51 80.51 0 004.547-.138l.458-.034c.352-.025.698-.049 1.039-.087.609-.05 1.181-.11 1.744-.169l.236-.024a38.024 38.024 0 001.854-.243c.036-.006.07-.01.104-.013l1.525-.237c.107-.022.173-.035.238-.044a34.112 34.112 0 001.628-.317 57.692 57.692 0 002.243-.511 43.828 43.828 0 002.131-.604c1.552-.47 2.943-.987 4.146-1.542.331-.145.627-.286.914-.43.456-.235.912-.477 1.343-.719 1.073-.622 2.004-1.304 2.752-2.02 1.393-1.302 2.094-2.638 2.094-3.985 0-1.775-1.264-3.31-2.56-4.417-.185.12-.381.243-.588.362a7.344 7.344 0 01-.661.394 6.119 6.119 0 01-.422.231c-.176.097-.359.191-.544.287l-.193.1a18.1 18.1 0 01-.938.444 1.095 1.095 0 01-.067.036c-.347.167-.7.316-1.069.453-.392.175-.766.321-1.141.446-.317.13-.728.283-1.135.405-1.07.376-2.313.74-3.633 1.063-.685.173-1.401.33-2.146.485-.523.114-1.076.214-1.64.317-.503.092-1.027.175-1.549.257l-.647.096c-.497.073-.979.13-1.477.189l-.328.035c-.667.077-1.277.132-1.915.188-.583.059-1.183.103-1.799.144-.255.009-.463.019-.672.028-.241.011-.483.023-.729.03-2.29.096-3.946.097-6.295 0-.417-.012-.84-.037-1.266-.062l-.147-.009a32.34 32.34 0 01-1.791-.132l-.197-.019a61.945 61.945 0 01-1.652-.163l-.09-.01-.249-.029a30.08 30.08 0 01-1.639-.215 3.993 3.993 0 01-.251-.034l-.103-.015a.924.924 0 01-.092-.011c-.547-.086-1.094-.172-1.617-.271a57.938 57.938 0 01-1.699-.327 36.809 36.809 0 01-2.106-.477c-.42-.095-.858-.214-1.3-.351a19.338 19.338 0 01-1.08-.311c-.049-.015-.092-.031-.135-.046a28.68 28.68 0 01-1.146-.365 1.062 1.062 0 01-.094-.035l-.443-.148c-.214-.075-.431-.151-.648-.243-.315-.108-.711-.26-1.091-.431a29.72 29.72 0 01-2.002-.9 15.377 15.377 0 01-.971-.514 19.407 19.407 0 01-.879-.512c-.19-.11-.387-.23-.588-.362-1.296 1.107-2.56 2.642-2.56 4.417 0 .084.003.173.01.261.009.046.016.092.021.14.201 2.1 2.145 3.84 3.751 4.934.043.028.085.058.126.09l.008.006c.202.127.405.255.618.383l.087.05c.093.054.189.109.281.165.377.229.806.46 1.27.684l.315.149c.188.09.378.181.572.267a33.472 33.472 0 004.178 1.562c.361.116.702.211 1.042.306l.114.032c1.095.311 2.117.558 3.131.758.601.13 1.171.238 1.766.347l.119.02.088.017.556.089c.339.057.679.112 1.025.156.656.102 1.272.183 1.902.25l.309.032a68.34 68.34 0 001.619.156c.375.041.72.065 1.068.09l.454.033c.084.005.171.008.269.021zm4.289 27.379c-.984 0-2.016-.023-3.153-.07a39.321 39.321 0 01-1.396-.072 78.483 78.483 0 01-2.661-.213 21.35 21.35 0 01-1.106-.117c-.462-.038-.971-.11-1.469-.183a70.244 70.244 0 01-2.384-.368c-.614-.1-1.22-.229-1.832-.359a45.318 45.318 0 01-3.316-.801l-.182-.052c-.349-.1-.698-.2-1.047-.312a33.574 33.574 0 01-1.037-.321l-.43-.15a20.055 20.055 0 01-.897-.328 32.29 32.29 0 01-3.088-1.331 24.085 24.085 0 01-1.84-1.015 27.6 27.6 0 01-.632-.392l-.127-.08a1.251 1.251 0 01-.131-.095c-2.139-1.447-3.604-3.069-4.355-4.819a6.87 6.87 0 01-.58-2.719c0-2.578 1.527-5.059 4.415-7.171.076-.062.168-.125.282-.18a1.34 1.34 0 011.415.146c.24.188.518.375.902.609.026.017.053.033.078.051.125.089.262.166.399.237.034.018.068.036.101.057.286.181.602.351 1.053.569.215.116.367.201.529.265a.974.974 0 01.114.052c.565.284 1.206.561 1.904.821.695.287 1.403.539 2.151.768.029.008.059.019.088.03.207.079.412.147.631.203 1.292.395 2.631.732 4.154 1.049.581.122 1.154.23 1.751.34.032.004.064.013.097.021a56.933 56.933 0 001.713.265c.619.096 1.249.177 1.879.246.625.081 1.224.132 1.833.186l.1.009c.349.036.671.06.998.083l.519.038c.081.001.166.004.264.015l.449.02c.26.013.524.024.79.034 1.15.046 2.146.068 3.055.068a81.43 81.43 0 004.547-.135l.552-.042c.316-.022.631-.046.947-.079l.167-.015a41.921 41.921 0 001.774-.178 45.12 45.12 0 001.894-.247.849.849 0 01.113-.012c.518-.078 1.037-.154 1.547-.24a.711.711 0 01.067-.016c.041-.011.082-.019.123-.025.56-.091 1.106-.199 1.638-.319 2.581-.521 4.959-1.211 7.103-2.057.257-.09.459-.173.641-.255.029-.014.059-.025.089-.037a4.7 4.7 0 00.527-.227c.281-.125.471-.209.664-.309.237-.108.413-.189.585-.285.458-.218.812-.425 1.155-.626a13.935 13.935 0 001.466-.948 1.337 1.337 0 011.588-.012c2.038 1.478 3.396 3.108 4.038 4.846.296.771.449 1.58.449 2.388 0 3.479-2.651 6.634-7.668 9.122-.936.469-1.991.926-3.134 1.354l-.454.161a43.792 43.792 0 01-4.157 1.264c-.764.189-1.538.374-2.336.532-.547.123-1.146.239-1.757.342-.872.156-1.66.277-2.397.37a25.5 25.5 0 01-1.494.186c-.403.054-.869.096-1.348.137a72.443 72.443 0 01-6.93.328zm-25.092-8.379l.052.032c.191.12.382.243.584.363.543.331 1.097.636 1.653.911.804.404 1.71.794 2.862 1.23.27.107.535.199.807.295l.413.145c.292.094.62.198.952.294.362.115.685.207 1.007.3l.176.051c1.056.296 2.111.55 3.128.754.585.125 1.149.245 1.737.342.769.136 1.531.246 2.316.356.453.066.909.132 1.369.172.374.046.708.085 1.058.113.863.081 1.717.152 2.576.206.459.028.894.055 1.343.068a69.765 69.765 0 009.743-.248c.453-.04.883-.079 1.306-.133.519-.047.976-.112 1.421-.178a46.34 46.34 0 002.301-.354 31.694 31.694 0 001.659-.324c.791-.157 1.523-.33 2.242-.511a40.143 40.143 0 003.249-.957c.233-.077.444-.153.651-.227l.456-.163a29.131 29.131 0 002.842-1.229c3.993-1.981 6.188-4.369 6.188-6.728 0-.478-.093-.964-.278-1.446-.385-1.042-1.176-2.061-2.361-3.045-.288.188-.586.367-.893.539-.356.209-.781.458-1.27.688a8.843 8.843 0 01-.639.313c-.189.099-.43.206-.688.317a6.107 6.107 0 01-.699.304 9.597 9.597 0 01-.768.306c-2.237.884-4.77 1.618-7.473 2.165-.541.122-1.126.238-1.727.336l-.021.006a1.592 1.592 0 01-.137.03c-.572.098-1.156.184-1.739.27l-.095.01c-.619.095-1.262.178-1.905.247-.594.077-1.226.132-1.862.188l-.14.012c-.319.035-.667.06-1.013.084l-.557.043a83.52 83.52 0 01-4.734.143c-.947 0-1.978-.023-3.151-.071-.268-.01-.544-.022-.819-.035l-.49-.021a1.496 1.496 0 01-.133-.013c-.037.001-.09.001-.125-.003l-.548-.041c-.359-.025-.713-.05-1.066-.089l-.074-.005c-.647-.057-1.284-.112-1.918-.195a42.156 42.156 0 01-1.955-.255 64.017 64.017 0 01-1.743-.268c-.026-.004-.051-.01-.076-.015-.037-.008-.087-.016-.146-.031a58.538 58.538 0 01-1.753-.341 47.552 47.552 0 01-4.329-1.092 7.587 7.587 0 01-.82-.263 26.248 26.248 0 01-2.307-.824 21.432 21.432 0 01-2.075-.896 7.01 7.01 0 01-.717-.354c-.292-.14-.747-.367-1.205-.652a5.523 5.523 0 01-.628-.377c-.09-.054-.175-.107-.258-.159-1.331 1.106-2.651 2.665-2.651 4.491 0 .543.122 1.103.363 1.663.543 1.265 1.732 2.54 3.438 3.687l.02.014.074.055z"/><path d="M68.687 86.963c-.273 0-.548-.083-.786-.256a7.178 7.178 0 01-.545-.429 1.34 1.34 0 011.712-2.056l.145.112c.063.047.126.097.19.147a1.337 1.337 0 01-.696 2.481l-.02.001z"/><path d="M68.239 86.613c-.257 0-.518-.074-.747-.228a4.771 4.771 0 01-.738-.619 1.338 1.338 0 011.864-1.919c.104.096.218.19.33.28a1.337 1.337 0 01-.691 2.485c-.005-.001-.011 0-.018.001z"/><path d="M67.706 86.165c-.296 0-.595-.098-.842-.299a8.205 8.205 0 01-1.137-1.11 1.339 1.339 0 012.018-1.758c.247.273.476.501.71.708a1.338 1.338 0 01-.73 2.46l-.019-.001zm27.462 56.219c-17.756 0-31.665-6.059-31.665-13.794 0-2.603 1.557-5.105 4.502-7.238a1.342 1.342 0 011.628.043c.101.082.21.152.321.223a1.34 1.34 0 01-1.057 2.425c-1.362 1.119-2.718 2.698-2.718 4.548 0 5.369 11.648 11.117 28.988 11.117 13.19 0 25.066-3.661 28.24-8.705.505-.786.758-1.593.758-2.412 0-1.829-1.311-3.387-2.647-4.501a21.74 21.74 0 01-2.354 1.324c-.943.481-2.006.939-3.133 1.352a1.337 1.337 0 11-.92-2.513 26.415 26.415 0 002.861-1.236 19.081 19.081 0 002.814-1.667 1.338 1.338 0 011.567.003c2.936 2.127 4.488 4.63 4.488 7.238 0 1.342-.396 2.637-1.177 3.85-3.736 5.942-15.996 9.943-30.496 9.943z"/><path d="M111.103 128.226a1.34 1.34 0 01-.322-2.638 39.224 39.224 0 003.249-.957 1.34 1.34 0 011.7.831 1.34 1.34 0 01-.831 1.701c-1.12.384-2.289.729-3.473 1.023-.11.028-.217.04-.323.04zm-19.031 1.787l-.038-.001c-.48-.013-.946-.042-1.415-.072a1.346 1.346 0 01-1.263-1.419c.046-.738.682-1.305 1.409-1.253l.021.001c.439.027.874.054 1.323.067a1.34 1.34 0 01-.037 2.677zm-13.859-2.064c-.123 0-.247-.017-.371-.053l-.256-.073c-.33-.094-.663-.188-.978-.292a21.052 21.052 0 01-1.036-.322 1.338 1.338 0 11.851-2.537c.312.104.634.206.968.3.341.111.635.194.927.276l.265.076a1.339 1.339 0 01-.37 2.625z"/><path d="M74.752 126.831c-.152 0-.306-.025-.458-.081a29.083 29.083 0 01-3.125-1.346 21.609 21.609 0 01-1.84-1.015 27.6 27.6 0 01-.632-.392l-.127-.08a1.338 1.338 0 111.429-2.264l.129.081c.191.121.383.243.584.363a19.56 19.56 0 001.645.906c.92.464 1.875.873 2.853 1.229a1.34 1.34 0 01-.458 2.599zm17.32-9.109l-.042-.001c-.28-.01-.557-.022-.832-.035l-.49-.021a1.34 1.34 0 01.108-2.676l.506.022c.261.013.524.024.791.034a1.338 1.338 0 01-.041 2.677zm-23.347-6.198a1.336 1.336 0 01-.983-2.243 1.85 1.85 0 01.459-.347 1.338 1.338 0 011.398 2.267c-.25.215-.562.323-.874.323z"/><path d="M95.168 130.082c-.984 0-2.016-.023-3.153-.07a39.321 39.321 0 01-1.396-.072 78.483 78.483 0 01-2.661-.213c-.355-.027-.726-.07-1.1-.116a70.244 70.244 0 01-3.86-.552 66.942 66.942 0 01-1.832-.359 45.195 45.195 0 01-3.316-.801l-.182-.052c-.349-.1-.698-.2-1.047-.312a33.574 33.574 0 01-1.037-.321l-.429-.15a18.931 18.931 0 01-.898-.328 32.29 32.29 0 01-3.088-1.331 24.085 24.085 0 01-1.84-1.015 27.6 27.6 0 01-.632-.392l-.127-.08a1.251 1.251 0 01-.131-.095c-2.139-1.447-3.604-3.069-4.355-4.819a6.87 6.87 0 01-.58-2.719c0-2.58 1.529-5.063 4.421-7.176a1.338 1.338 0 111.58 2.161c-1.516 1.108-3.324 2.878-3.324 5.015 0 .543.122 1.103.363 1.663.543 1.265 1.732 2.54 3.438 3.687l.02.013c.025.018.051.036.075.056l.052.032c.191.121.383.243.584.363.543.331 1.097.636 1.653.911.804.403 1.71.794 2.862 1.23.27.107.535.199.808.295l.413.145c.292.094.62.198.952.294.362.115.685.207 1.007.3l.176.051c1.056.296 2.111.55 3.128.754a62.48 62.48 0 001.765.346 65.045 65.045 0 003.691.529c.35.041.686.082 1.026.109a82.28 82.28 0 002.573.206c.459.028.894.055 1.343.068a69.765 69.765 0 009.743-.248c.453-.04.883-.079 1.306-.133.494-.057.964-.11 1.421-.178a46.34 46.34 0 002.301-.354 31.694 31.694 0 001.659-.324c.791-.157 1.523-.33 2.242-.511a40.143 40.143 0 003.249-.957c.233-.077.444-.153.651-.227l.455-.163a29.047 29.047 0 002.843-1.229c3.993-1.981 6.188-4.369 6.188-6.728 0-.478-.093-.964-.278-1.446-.46-1.245-1.502-2.458-3.104-3.62a1.34 1.34 0 011.572-2.167c2.038 1.478 3.396 3.108 4.038 4.846.296.771.449 1.58.449 2.388 0 3.479-2.651 6.634-7.668 9.122-.936.469-1.991.926-3.134 1.354l-.454.161a43.792 43.792 0 01-4.157 1.264c-.764.189-1.538.374-2.336.532-.547.123-1.146.239-1.757.342-.872.156-1.66.277-2.397.37a45.76 45.76 0 01-1.459.182c-.438.058-.904.1-1.383.141a72.516 72.516 0 01-6.932.328z"/><path d="M95.168 117.792c-.947 0-1.978-.023-3.151-.071-.268-.01-.544-.022-.819-.035l-.49-.021a1.533 1.533 0 01-.133-.013c-.034.001-.09.001-.125-.003l-.548-.041c-.359-.025-.713-.05-1.066-.089l-.074-.005c-.647-.057-1.283-.112-1.917-.195a42.156 42.156 0 01-1.955-.255 64.017 64.017 0 01-1.743-.268c-.026-.004-.051-.01-.076-.015-.037-.008-.087-.016-.146-.031a58.538 58.538 0 01-1.753-.341 47.552 47.552 0 01-4.329-1.092 7.658 7.658 0 01-.82-.263 26.248 26.248 0 01-2.307-.824 21.432 21.432 0 01-2.075-.896 7.01 7.01 0 01-.717-.354c-.292-.14-.747-.367-1.205-.652a5.523 5.523 0 01-.628-.377 11.338 11.338 0 01-1.123-.764c-2.904-2.082-4.463-4.581-4.463-7.194 0-1.221.34-2.423 1.011-3.574a1.338 1.338 0 112.313 1.347c-.429.737-.647 1.485-.647 2.227 0 2.166 1.844 3.943 3.39 5.053.284.22.562.407.947.642.026.017.053.033.078.051.125.089.262.166.399.237.034.018.068.036.101.057.287.181.602.351 1.053.569.215.116.367.201.529.265a.974.974 0 01.114.052c.565.284 1.206.561 1.904.821.695.287 1.403.539 2.151.768.029.008.059.019.088.03.207.079.413.147.631.203 1.292.395 2.631.732 4.154 1.049.581.122 1.154.23 1.751.34a.703.703 0 01.097.021 57.47 57.47 0 001.713.265c.619.096 1.249.177 1.879.246.625.081 1.224.132 1.832.186l.101.009c.349.036.671.06.998.083l.519.038c.081.001.166.004.264.015l.448.02c.261.013.524.024.791.034 1.15.046 2.146.068 3.055.068a81.43 81.43 0 004.547-.135l.552-.042c.316-.022.631-.046.947-.079l.167-.015a41.921 41.921 0 001.774-.178 45.12 45.12 0 001.894-.247.849.849 0 01.113-.012c.518-.078 1.037-.154 1.547-.24a.728.728 0 01.068-.016c.04-.011.081-.019.122-.025.56-.091 1.106-.199 1.638-.319 2.581-.521 4.959-1.211 7.103-2.057.257-.09.459-.173.641-.255.029-.014.059-.025.089-.037a4.7 4.7 0 00.527-.227c.281-.125.471-.209.664-.309.237-.108.413-.189.585-.285.458-.218.812-.425 1.155-.626a13.935 13.935 0 001.466-.948c1.69-1.214 2.788-2.531 3.196-3.824.137-.404.202-.814.202-1.244 0-1.82-1.311-3.374-2.646-4.483-.292.187-.588.365-.886.533-.492.293-.986.558-1.482.792-.301.152-.642.314-.992.468a1.338 1.338 0 01-1.071-2.454c.306-.133.602-.274.889-.418a15.74 15.74 0 001.315-.704 15.613 15.613 0 001.491-.954 1.34 1.34 0 011.569 0c2.937 2.122 4.489 4.619 4.489 7.221 0 .722-.112 1.421-.335 2.077-.583 1.848-1.984 3.59-4.157 5.149-.516.386-1.1.765-1.717 1.111-.356.209-.781.458-1.27.688a8.843 8.843 0 01-.639.313c-.189.099-.43.206-.688.317a6.107 6.107 0 01-.699.304 9.597 9.597 0 01-.768.306c-2.237.884-4.77 1.618-7.473 2.165-.541.122-1.126.238-1.727.336l-.021.006a1.592 1.592 0 01-.137.03c-.572.098-1.156.184-1.739.27l-.095.01c-.619.095-1.262.178-1.905.247-.594.077-1.226.132-1.862.188l-.14.012c-.319.035-.667.06-1.013.084l-.557.043a86.12 86.12 0 01-4.732.14z"/><path d="M111.103 103.646a1.339 1.339 0 01-.335-2.635c.741-.19 1.458-.391 2.149-.608a1.337 1.337 0 11.802 2.554c-.697.218-1.443.43-2.281.646-.113.03-.226.043-.335.043zm-19.031 1.786h-.034c-.247-.008-.491-.02-.733-.031-.195-.01-.389-.019-.582-.025a1.337 1.337 0 01-1.297-1.378c.022-.739.654-1.336 1.378-1.297.209.006.42.017.632.027.221.01.445.021.67.026a1.34 1.34 0 01-.034 2.678zm-13.858-2.067a1.38 1.38 0 01-.363-.05l-.214-.061c-.347-.097-.697-.194-1.028-.304a1.338 1.338 0 11.844-2.54c.291.096.598.181.901.266l.221.062a1.339 1.339 0 01-.361 2.627zm-6.055-2.079a15.01 15.01 0 01-1.014-.476l-.192-.099c-.44-.227-.867-.447-1.266-.689a1.34 1.34 0 011.391-2.288c.346.21.718.4 1.1.597l.208.107c.269.142.546.263.825.385l-1.052 2.463z"/><path d="M70.023 100.007a1.34 1.34 0 01-.689-.191 41.341 41.341 0 01-.666-.414l-.098-.062a1.339 1.339 0 111.429-2.263l.099.063c.202.127.404.255.617.383a1.338 1.338 0 01-.692 2.484z"/><path d="M65.679 102.434a1.338 1.338 0 01-1.161-2.003c.736-1.288 1.91-2.518 3.49-3.657a1.339 1.339 0 011.621.042c.092.074.192.136.292.201l-.792 1.312.444.616c-1.267.915-2.187 1.862-2.732 2.815a1.335 1.335 0 01-1.162.674zM119.7 88.218a1.338 1.338 0 01-.601-2.534c.164-.083.319-.18.464-.278a1.339 1.339 0 011.496 2.22 7.057 7.057 0 01-.757.449 1.335 1.335 0 01-.602.143z"/><path d="M118.58 88.816a1.34 1.34 0 01-.62-2.526l.199-.104c.167-.086.331-.171.491-.259a1.337 1.337 0 111.283 2.349c-.175.097-.358.191-.544.287l-.192.1a1.305 1.305 0 01-.617.153z"/><path d="M110.897 91.55a1.339 1.339 0 01-.317-2.639 37.031 37.031 0 003.439-1.008c.39-.119.723-.245 1.04-.372.4-.136.702-.258 1.006-.395.028-.013.058-.025.089-.036a9.82 9.82 0 00.84-.352 1.343 1.343 0 011.569.236c.521.522.529 1.364.006 1.886a1.432 1.432 0 01-.378.272c-.347.167-.7.316-1.069.453-.392.175-.766.321-1.141.446-.317.13-.727.283-1.135.405-1.07.376-2.313.74-3.633 1.063a1.182 1.182 0 01-.316.041zm-12.625 1.731a1.339 1.339 0 01-.037-2.676c.229-.006.456-.017.681-.027.224-.01.446-.021.667-.028.709-.02 1.356.559 1.378 1.297a1.34 1.34 0 01-1.298 1.379c-.206.006-.414.016-.623.025-.241.011-.483.023-.729.03h-.039zm-6.2 0h-.038c-.435-.012-.858-.037-1.284-.062l-.147-.009a1.338 1.338 0 01-1.257-1.415 1.349 1.349 0 011.415-1.257l.148.008c.397.024.793.047 1.2.058a1.34 1.34 0 01-.037 2.677zm-12.62-1.731c-.098 0-.198-.011-.297-.033a18.366 18.366 0 01-1.337-.359 19.338 19.338 0 01-1.08-.311 1.338 1.338 0 11.814-2.55c.319.102.655.196.999.286.433.132.807.234 1.195.322a1.338 1.338 0 01-.294 2.645z"/><path d="M77.032 90.87a1.34 1.34 0 01-.368-.052 27.274 27.274 0 01-1.207-.382 1.338 1.338 0 11.851-2.537c.352.118.713.238 1.089.345a1.339 1.339 0 01-.365 2.626z"/><path d="M75.59 90.408c-.151 0-.304-.026-.455-.08l-.215-.077c-.214-.075-.431-.151-.648-.242-.315-.108-.711-.26-1.091-.431a1.338 1.338 0 111.099-2.441c.31.14.633.263.952.375.241.099.408.156.573.214l.24.085a1.339 1.339 0 01-.455 2.597z"/><path d="M71.771 88.816c-.198 0-.399-.043-.589-.137-.338-.166-.66-.334-.979-.521a1.338 1.338 0 111.355-2.309c.262.153.526.291.805.427a1.34 1.34 0 01-.592 2.54z"/><path d="M70.852 88.331c-.218 0-.44-.054-.645-.167a19.407 19.407 0 01-.879-.512 1.34 1.34 0 011.417-2.272c.249.156.495.297.755.44.647.356.883 1.171.525 1.818a1.336 1.336 0 01-1.173.693z"/><path d="M64.869 93.568a1.334 1.334 0 01-1.336-1.256 6.55 6.55 0 01-.03-.605c0-2.559 1.518-5.034 4.388-7.159a1.339 1.339 0 111.593 2.151c-1.507 1.116-3.303 2.891-3.303 5.008 0 .122.007.255.02.378a1.344 1.344 0 01-1.332 1.483z"/><path d="M95.168 105.502c-1.003 0-2.035-.023-3.155-.071-.223-.007-.467-.019-.709-.03-.195-.01-.389-.019-.582-.025a1.186 1.186 0 01-.188-.019l-.566-.034a31.771 31.771 0 01-1.132-.095c-.65-.053-1.319-.11-1.987-.195a38.185 38.185 0 01-1.967-.258 30.255 30.255 0 01-1.649-.256l-.134-.023-.105-.019a52.927 52.927 0 01-1.83-.36 40.113 40.113 0 01-3.317-.803l-.109-.03a33.58 33.58 0 01-1.116-.328 36.25 36.25 0 01-4.478-1.674 23.102 23.102 0 01-.631-.295l-.309-.146a17.89 17.89 0 01-1.518-.818l-.336-.197c-.246-.148-.464-.286-.682-.423l-.098-.063a1.172 1.172 0 01-.145-.106c-2.956-2.022-4.642-4.397-4.879-6.871a1.338 1.338 0 112.665-.254c.201 2.1 2.145 3.84 3.751 4.934.044.027.086.058.127.09l.009.006c.202.127.404.255.617.383l.088.05c.094.054.189.109.281.165.377.229.806.46 1.27.684l.315.149c.188.09.377.182.572.267a33.472 33.472 0 004.178 1.562c.361.116.702.211 1.042.306l.114.032c1.095.311 2.117.558 3.131.758.601.13 1.171.238 1.766.347l.119.02a27.079 27.079 0 001.669.261c.646.102 1.274.183 1.902.25.653.082 1.285.136 1.928.188.375.041.72.065 1.068.09l.454.033c.083.001.17.005.269.018.185.006.37.015.556.024.221.01.445.021.67.027 1.106.048 2.1.07 3.063.07a80.51 80.51 0 004.547-.138l.49-.037c.336-.024.672-.048 1.009-.084.677-.057 1.317-.11 1.947-.189.65-.07 1.28-.151 1.881-.246.045-.008.091-.013.137-.016.499-.063.979-.144 1.472-.232.133-.025.198-.038.264-.047a34.112 34.112 0 001.628-.317 57.692 57.692 0 002.243-.511 43.828 43.828 0 002.131-.604c1.552-.47 2.943-.987 4.146-1.542.331-.145.627-.286.914-.43.456-.235.912-.477 1.343-.719 1.073-.622 2.004-1.304 2.752-2.02 1.393-1.302 2.094-2.638 2.094-3.985 0-2.117-1.797-3.892-3.304-5.008a1.337 1.337 0 01-.278-1.872 1.336 1.336 0 011.871-.279c2.871 2.125 4.388 4.6 4.388 7.159 0 2.089-1.014 4.139-2.932 5.929-.89.854-1.991 1.665-3.264 2.4-.47.265-.955.522-1.453.78a21.14 21.14 0 01-1.035.488c-1.291.595-2.797 1.155-4.454 1.657-.684.214-1.43.426-2.268.643-.774.188-1.546.372-2.339.532-.554.124-1.151.239-1.762.342l-.221.041c-.554.1-1.099.189-1.668.261l-.063.006c-.621.098-1.265.179-1.91.249-.645.082-1.324.14-2.007.196a33.29 33.29 0 01-1.07.089l-.5.037c-1.735.1-3.272.146-4.731.146z"/><path d="M95.168 93.353c-.951 0-1.982-.024-3.152-.072-.417-.012-.84-.037-1.266-.062l-.147-.009a32.34 32.34 0 01-1.791-.132l-.196-.019a61.537 61.537 0 01-1.652-.163l-.09-.01-.249-.029a30.08 30.08 0 01-1.639-.215 4.128 4.128 0 01-.252-.034l-.103-.015a.924.924 0 01-.092-.011c-.547-.086-1.094-.172-1.617-.271a57.938 57.938 0 01-1.699-.327 36.809 36.809 0 01-2.106-.477c-.31-.081-.609-.162-.906-.243l-.348-.094c-.368-.1-.74-.206-1.11-.319a3.313 3.313 0 01-.156-.054 35.038 35.038 0 01-.921-.292l-.206-.065a1.377 1.377 0 01-.107-.04l-.208-.064a20.226 20.226 0 01-.855-.315 48.111 48.111 0 01-1.078-.425c-.7-.285-1.369-.585-2.043-.918-.32-.157-.639-.318-.934-.494l-.038-.021a19.407 19.407 0 01-.879-.512 14.41 14.41 0 01-1.293-.852 1.339 1.339 0 011.584-2.158c.372.273.727.506 1.086.714.269.167.501.301.743.435.045.021.089.045.131.071.243.149.512.281.782.413.618.306 1.23.581 1.873.842a44.3 44.3 0 001.786.684c.131.04.228.071.317.105l.167.055c.302.098.602.196.904.285.041.013.081.026.122.042.349.108.692.206 1.032.298l.352.096c.287.078.575.156.871.233.646.166 1.288.311 1.962.443.543.11 1.089.221 1.65.317.504.095 1.012.175 1.521.255.074.008.15.019.227.031l.118.016c.035.003.07.007.104.013.5.08 1.009.148 1.532.203l.287.032c.613.071 1.145.12 1.671.167l.214.02c.564.058 1.114.099 1.671.124l.166.009c.397.024.793.047 1.2.058 2.31.096 3.858.094 6.109.001.238-.007.461-.017.684-.028.229-.011.457-.021.682-.028a51.537 51.537 0 001.676-.135 68.666 68.666 0 002.217-.221c.437-.052.896-.106 1.354-.173l.565-.082c.564-.09 1.065-.168 1.552-.258a48.374 48.374 0 001.563-.301 45.776 45.776 0 005.525-1.479c.268-.089.517-.181.761-.271l.307-.112a24.5 24.5 0 001.005-.396c.304-.122.588-.243.862-.362.042-.023.085-.044.13-.063.301-.129.595-.271.878-.413l.183-.094c.167-.086.331-.171.491-.259.151-.079.245-.125.331-.18a1.64 1.64 0 01.116-.065c.164-.083.319-.18.464-.278.027-.018.054-.035.082-.051.471-.27.902-.576 1.225-.812 1.953-1.424 3.084-2.983 3.272-4.509.018-.15.024-.321.024-.479 0-5.369-11.652-11.118-28.998-11.118-3.733 0-7.338.275-10.715.817-10.76 1.707-18.273 5.942-18.273 10.3 0 1.153.521 2.31 1.547 3.438a1.339 1.339 0 01-1.98 1.801c-1.49-1.637-2.245-3.399-2.245-5.239 0-5.885 8.058-10.966 20.528-12.944 3.514-.564 7.262-.851 11.137-.851 17.762 0 31.674 6.059 31.674 13.794 0 .256-.013.533-.042.796-.288 2.323-1.752 4.457-4.354 6.354-.369.27-.863.62-1.429.947a7.344 7.344 0 01-.661.394 6.119 6.119 0 01-.422.231c-.176.097-.359.191-.545.287l-.192.1c-.315.159-.627.309-.944.447-.035.02-.071.037-.109.054l.001.001c-.334.145-.676.292-1.032.434-.349.143-.707.29-1.097.432l-.296.108c-.271.1-.549.202-.837.297a48.645 48.645 0 01-3.659 1.072 52.96 52.96 0 01-2.156.487c-.523.114-1.076.214-1.639.316-.505.093-1.028.176-1.55.257l-.647.096c-.497.073-.979.13-1.477.189l-.328.035c-.667.077-1.277.132-1.915.188-.583.059-1.183.103-1.799.144-.259.009-.474.019-.688.029-.238.011-.478.022-.713.029a68.006 68.006 0 01-3.143.077z"/><path d="M68.687 86.963c-.273 0-.548-.083-.786-.256a7.805 7.805 0 01-.48-.373 4.9 4.9 0 01-.613-.514 8.2 8.2 0 01-1.081-1.065 1.338 1.338 0 112.051-1.72c.222.265.475.511.772.752.038.031.075.064.109.099.11.112.221.206.328.278.048.033.094.067.138.106.111.099.23.185.35.272a1.34 1.34 0 01-.788 2.421zm63.276 46.635c-2.599 0-5.162-.188-7.623-.56a1.34 1.34 0 01-1.123-1.524 1.34 1.34 0 011.523-1.123 48.34 48.34 0 007.223.53c11.897 0 20.189-3.948 20.189-7.491 0-.91-.516-1.824-1.534-2.727-.229.142-.477.287-.747.441-.644.366-1.458.141-1.824-.502s-.142-1.46.501-1.825a14.91 14.91 0 001.361-.855 1.336 1.336 0 011.568.005c2.225 1.62 3.352 3.457 3.352 5.463 0 5.797-9.83 10.168-22.866 10.168z"/><path d="M148.294 121.796a1.337 1.337 0 01-.627-2.521l.366-.189c.156-.08.31-.156.455-.239a1.34 1.34 0 011.824.506c.364.644.139 1.46-.505 1.824-.181.103-.371.199-.565.297l-.322.167c-.2.105-.414.155-.626.155z"/><path d="M147.337 122.214a1.339 1.339 0 01-.539-2.566l.262-.111c.208-.09.412-.178.617-.279a1.339 1.339 0 111.187 2.399c-.249.123-.493.229-.746.337l-.243.106a1.341 1.341 0 01-.538.114z"/><path d="M144.125 123.33a1.338 1.338 0 01-.353-2.629c.368-.102.714-.207 1.057-.324a1.337 1.337 0 011.7.833c.24.698-.133 1.46-.832 1.699-.395.136-.792.257-1.216.373a1.327 1.327 0 01-.356.048zm-5.006 1.047a1.34 1.34 0 01-.165-2.667l.214-.036a1.339 1.339 0 11.391 2.649c-.12.022-.191.035-.271.044a1.58 1.58 0 01-.169.01z"/><path d="M137.337 124.601a1.34 1.34 0 01-.157-2.667l1.031-.126c.734-.083 1.4.434 1.49 1.167a1.34 1.34 0 01-1.168 1.49l-1.034.127a1.267 1.267 0 01-.162.009z"/><path d="M134.92 124.793a1.338 1.338 0 01-.054-2.676c.252-.009.491-.022.729-.047a1.341 1.341 0 011.468 1.195 1.338 1.338 0 01-1.196 1.468c-.289.029-.584.046-.893.059l-.054.001z"/><path d="M133.074 124.865a1.339 1.339 0 010-2.677c.128 0 .256-.004.382-.008.15-.004.298-.008.443-.008a1.339 1.339 0 110 2.677c-.121 0-.243.004-.368.006-.151.005-.304.01-.457.01z"/><path d="M131.963 124.876c-3.783 0-7.481-.393-10.695-1.137a1.337 1.337 0 11.602-2.606c3.02.697 6.509 1.066 10.093 1.066.366.001.713.001 1.07-.01.168-.001.291-.005.415-.009.149-.004.3-.008.451-.008.12-.006.29-.018.458-.027.171-.011.34-.021.507-.028.254-.009.493-.022.731-.047a57.551 57.551 0 001.604-.14l.354-.041c.205-.022.41-.045.615-.077.284-.031.512-.056.725-.093l.373 1.295-.24-1.316.143-.024a35.92 35.92 0 004.589-.969c.383-.105.729-.211 1.071-.328.773-.25 1.412-.485 1.977-.731.321-.126.595-.245.853-.378.062-.031.127-.059.193-.081.225-.107.436-.224.638-.34a11.209 11.209 0 001.404-.872c1.042-.745 2.26-1.905 2.26-3.28 0-1.358-1.224-2.534-2.25-3.283a1.338 1.338 0 111.576-2.163c2.77 2.019 3.351 4.076 3.351 5.446 0 1.388-.583 3.458-3.36 5.443-.452.336-.988.675-1.617 1.018l-.001-.001c-.023.014-.047.025-.07.038-.293.165-.6.331-.93.481a.985.985 0 01-.106.044c-.284.141-.593.276-.922.404a24.52 24.52 0 01-2.148.796c-.372.127-.77.248-1.193.364-1.473.423-3.133.773-4.919 1.04-.123.022-.194.035-.273.044-.206.038-.492.07-.772.101-.182.029-.424.057-.666.084l-.347.04c-.559.059-1.108.103-1.669.146-.256.026-.551.043-.859.056-.148.007-.299.017-.452.025-.188.012-.38.023-.573.031-.176.001-.3.005-.424.007-.15.005-.3.01-.451.01-.349.01-.73.01-1.116.01z"/><path d="M148.294 113.075a1.34 1.34 0 01-.621-2.525l.307-.157c.176-.089.35-.178.515-.27a1.336 1.336 0 011.82.515c.361.645.132 1.46-.515 1.821-.193.108-.397.213-.606.319l-.282.145c-.198.104-.41.152-.618.152z"/><path d="M147.336 113.495c-.533 0-1.036-.32-1.244-.848a1.337 1.337 0 01.753-1.736c.283-.111.553-.233.827-.371a1.34 1.34 0 011.197 2.395 13.37 13.37 0 01-1.041.467 1.329 1.329 0 01-.492.093z"/><path d="M144.125 114.612a1.339 1.339 0 01-.364-2.627c.377-.106.73-.214 1.08-.33a1.338 1.338 0 11.842 2.542c-.388.128-.777.246-1.192.364a1.325 1.325 0 01-.366.051zm-5.006 1.045a1.34 1.34 0 01-.19-2.664l.11-.02.1-.018a1.338 1.338 0 11.449 2.639l-.273.048c-.066.01-.131.015-.196.015z"/><path d="M137.337 115.881a1.337 1.337 0 01-.154-2.667l1.021-.127a1.338 1.338 0 11.336 2.655l-1.045.129c-.053.007-.105.01-.158.01z"/><path d="M133.454 116.131a1.337 1.337 0 01-1.336-1.303 1.338 1.338 0 011.301-1.374c.48-.013.949-.024 1.423-.053l.099-.005c.221-.01.436-.021.646-.044a1.346 1.346 0 011.476 1.186 1.339 1.339 0 01-1.186 1.476 12.82 12.82 0 01-.805.056c-.575.034-1.073.048-1.582.062l-.036-.001z"/><path d="M131.963 116.159c-2.354 0-4.713-.159-7.007-.473a1.34 1.34 0 01-1.145-1.508 1.345 1.345 0 011.507-1.145c2.646.362 5.375.502 8.095.42.51-.001.967-.025 1.429-.053l.099-.005c.221-.01.436-.021.646-.044a48.285 48.285 0 001.605-.141l.324-.036c.212-.023.424-.047.636-.082.306-.033.53-.058.74-.094l.146-.025.1-.018a36.117 36.117 0 004.621-.972c.378-.106.731-.214 1.081-.33a21.778 21.778 0 001.966-.728 8.79 8.79 0 00.844-.377c.057-.029.113-.054.171-.074.236-.118.459-.233.674-.353a10.038 10.038 0 001.388-.862c1.049-.757 2.27-1.923 2.27-3.284 0-1.371-1.225-2.552-2.25-3.3a1.339 1.339 0 111.576-2.163c2.77 2.02 3.351 4.085 3.351 5.463 0 1.376-.582 3.436-3.355 5.438a12.56 12.56 0 01-1.704 1.062c-.254.144-.553.296-.877.457a1.549 1.549 0 01-.145.063c-.271.136-.574.269-.92.405a24.21 24.21 0 01-2.153.797c-.379.127-.769.245-1.184.363a38.868 38.868 0 01-4.934 1.04l-.243.042c-.235.041-.524.074-.81.103a10.86 10.86 0 01-.696.09l-.309.035c-.551.062-1.104.104-1.666.147-.22.024-.485.038-.762.051-.588.035-1.098.062-1.617.062-.47.016-.98.029-1.492.029z"/><path d="M148.294 104.345a1.34 1.34 0 01-.621-2.527l.307-.156c.176-.09.35-.178.515-.27a1.338 1.338 0 111.305 2.336c-.193.109-.397.214-.606.32l-.282.145c-.198.103-.41.152-.618.152z"/><path d="M147.336 104.762c-.533 0-1.036-.32-1.244-.847a1.337 1.337 0 01.753-1.736c.285-.112.556-.235.832-.373a1.339 1.339 0 111.187 2.4c-.344.17-.682.322-1.035.462a1.36 1.36 0 01-.493.094z"/><path d="M144.125 105.878a1.338 1.338 0 01-.358-2.628c.375-.105.727-.213 1.074-.327a1.336 1.336 0 011.692.85 1.336 1.336 0 01-.85 1.69c-.389.129-.78.248-1.198.364a1.315 1.315 0 01-.36.051zm-4.938 1.036c-.644 0-1.237-.456-1.348-1.106-.126-.727.326-1.412 1.053-1.539l.077-.013.111-.021a1.337 1.337 0 11.566 2.616c-.075.017-.148.029-.229.044a1.497 1.497 0 01-.23.019z"/><path d="M137.337 107.147a1.336 1.336 0 01-1.327-1.188 1.336 1.336 0 011.179-1.479l1.022-.126c.734-.08 1.4.435 1.49 1.168a1.34 1.34 0 01-1.168 1.49l-1.045.127c-.05.007-.1.008-.151.008z"/><path d="M133.454 107.402a1.338 1.338 0 01-.046-2.676l.305-.011c.378-.013.752-.025 1.129-.048.256-.012.511-.024.739-.048a1.34 1.34 0 01.283 2.661c-.279.03-.589.047-.882.061-.382.022-.777.036-1.179.049l-.301.011-.048.001z"/><path d="M131.963 107.427a50.12 50.12 0 01-6.907-.459 1.339 1.339 0 01-1.141-1.51 1.347 1.347 0 011.51-1.141c2.447.34 5.115.473 7.821.413l.179-.005c.468 0 .896-.026 1.329-.052l.106-.006c.24-.012.484-.024.728-.049a30.862 30.862 0 001.608-.141l.292-.032c.222-.023.441-.047.664-.083.303-.036.534-.061.749-.097l.179-.031c1.765-.263 3.309-.589 4.674-.982.388-.108.739-.216 1.087-.33.78-.254 1.401-.483 1.962-.727.32-.128.596-.247.854-.379.054-.028.107-.052.164-.072.236-.119.459-.232.674-.353.564-.3 1.01-.578 1.387-.864 1.05-.757 2.271-1.923 2.271-3.283 0-1.349-1.189-2.5-2.189-3.229a1.338 1.338 0 111.577-2.162c2.719 1.981 3.289 4.025 3.289 5.392 0 1.375-.582 3.435-3.355 5.436-.468.354-1.032.708-1.699 1.062-.259.146-.558.297-.882.459a1.304 1.304 0 01-.149.063 11.94 11.94 0 01-.915.402c-.601.262-1.298.521-2.153.798-.38.126-.771.245-1.189.361-1.47.426-3.132.776-4.928 1.041.013 0-.061.013-.142.027-.34.056-.623.089-.9.118-.196.035-.469.065-.742.094l-.279.031c-.57.061-1.127.116-1.697.148-.231.024-.525.041-.815.055-.555.032-1.035.061-1.526.061l-.146.004c-.453.011-.901.022-1.35.022z"/><path d="M149.808 94.899a1.338 1.338 0 01-.671-2.499c.154-.088.298-.173.437-.274a1.34 1.34 0 011.561 2.175 7.729 7.729 0 01-.658.418c-.212.122-.442.18-.669.18z"/><path d="M146.435 96.504a1.34 1.34 0 01-.468-2.593c.298-.111.6-.225.878-.352l.086-.036c.248-.092.48-.199.717-.32a1.342 1.342 0 011.801.585 1.34 1.34 0 01-.587 1.8c-.329.168-.64.308-.945.424-.322.145-.67.278-1.013.406a1.33 1.33 0 01-.469.086zm-7.979 1.883a1.338 1.338 0 01-.115-2.672 7.84 7.84 0 00.772-.108 1.338 1.338 0 01.5 2.63c-.334.064-.686.114-1.039.145-.04.004-.079.005-.118.005zm-4.992.391a1.338 1.338 0 01-.034-2.677c.484-.013.957-.027 1.441-.054.733-.051 1.368.525 1.409 1.264a1.339 1.339 0 01-1.265 1.409c-.509.028-1.005.044-1.516.058h-.035z"/><path d="M131.963 98.806c-3.236 0-6.332-.275-9.204-.819a1.336 1.336 0 01-1.065-1.564 1.333 1.333 0 011.563-1.066c2.708.513 5.637.772 8.706.772.45 0 .89-.012 1.326-.024l.139-.004c.485-.013.97-.027 1.44-.054 1.2-.07 2.347-.179 3.408-.325.328-.03.588-.068.837-.115 2.576-.38 4.862-.948 6.851-1.696.301-.112.603-.226.881-.354.318-.138.591-.256.841-.374a13.08 13.08 0 001.409-.758c.208-.122.369-.229.51-.323.154-.093.228-.151.302-.208 1.056-.77 2.246-1.922 2.246-3.272 0-3.551-8.292-7.506-20.189-7.506a49.23 49.23 0 00-6.32.408 1.34 1.34 0 01-1.5-1.155 1.34 1.34 0 011.155-1.5 51.86 51.86 0 016.665-.43c13.036 0 22.866 4.377 22.866 10.183 0 1.958-1.137 3.824-3.289 5.393-.18.135-.336.249-.508.35a8.177 8.177 0 01-.556.352c-.467.294-1.038.603-1.657.891-.268.125-.563.254-.863.385-.331.151-.694.29-1.053.424-2.164.813-4.637 1.429-7.345 1.828a9.698 9.698 0 01-.984.135 45.91 45.91 0 01-5.075.395l-.138.003c-.46.015-.924.028-1.399.028zm-66.648 21.007c-.073 0-.147-.005-.222-.018-8.97-1.493-14.543-5.137-14.543-9.509 0-1.961 1.119-3.79 3.325-5.439a1.338 1.338 0 111.603 2.144c-1.494 1.117-2.25 2.226-2.25 3.296 0 2.838 5.06 5.661 12.306 6.868a1.339 1.339 0 01-.219 2.658z"/><path d="M55.262 107.65a1.33 1.33 0 01-.736-.221l-.129-.085a6.26 6.26 0 01-.542-.38 1.339 1.339 0 011.672-2.091c.101.081.213.151.323.222l.152.1a1.338 1.338 0 01-.74 2.455zm3.529 1.732c-.161 0-.326-.029-.486-.092-.261-.102-.51-.201-.76-.304a1.338 1.338 0 111.012-2.478c.237.097.473.192.721.288a1.34 1.34 0 01-.487 2.586z"/><path d="M59.85 109.757c-.13 0-.263-.02-.394-.06-.261-.08-.525-.174-.771-.27a1.338 1.338 0 11.976-2.492c.186.072.385.143.583.203a1.338 1.338 0 01-.394 2.619z"/><path d="M68.725 111.528a1.19 1.19 0 01-.134-.007c-3.364-.313-6.534-.947-9.168-1.834a10.247 10.247 0 01-.689-.241 4.079 4.079 0 01-.463-.17 43.777 43.777 0 01-.725-.29 18.496 18.496 0 01-3.003-1.548l-.119-.077c-.141-.093-.282-.186-.421-.286-.039-.021-.075-.047-.11-.071-2.761-2-3.341-4.062-3.341-5.438 0-1.976 1.16-3.858 3.355-5.446a1.338 1.338 0 111.569 2.169c-1.024.741-2.246 1.911-2.246 3.277 0 1.322 1.139 2.458 2.136 3.199.047.027.092.057.135.089.129.099.261.183.391.269l.111.073c.768.491 1.632.937 2.555 1.313.238.097.474.192.722.288.028.012.056.023.083.037.059.026.128.046.199.067.033.011.066.022.099.035.186.072.385.143.583.203 2.472.831 5.428 1.422 8.583 1.718a1.337 1.337 0 01-.102 2.671z"/><path d="M59.378 100.872a1.37 1.37 0 01-.425-.069c-.12-.041-.234-.082-.347-.123l-.151-.055c-.44-.153-.865-.327-1.256-.513a16.8 16.8 0 01-2.003-1.004 1.338 1.338 0 111.356-2.308c.541.318 1.126.61 1.741.869.36.169.696.307 1.053.431l.458.163a1.34 1.34 0 01-.426 2.609z"/><path d="M61.415 101.512c-.119 0-.241-.016-.361-.05l-1.029-.296a1.34 1.34 0 01.744-2.572l1.006.29a1.339 1.339 0 01-.36 2.628z"/><path d="M65.681 102.434c-.07 0-.15-.005-.22-.017a38.295 38.295 0 01-4.413-.956l-1.024-.295a22.1 22.1 0 01-1.123-.383l-.446-.159a15.894 15.894 0 01-1.239-.505 17.405 17.405 0 01-2.021-1.012c-.44-.245-.882-.525-1.287-.817-2.776-2-3.358-4.071-3.358-5.456 0-1.966 1.16-3.845 3.354-5.435.599-.435 1.436-.301 1.869.298s.3 1.436-.299 1.87c-1.025.743-2.247 1.912-2.247 3.267 0 1.376 1.221 2.545 2.245 3.283.322.231.678.457 1.055.667.566.332 1.152.625 1.766.883.371.169.717.311 1.064.436l.47.167c.336.128.658.231.979.334l.969.278c1.252.355 2.625.653 4.084.886a1.34 1.34 0 011.155 1.325c0 .741-.594 1.341-1.333 1.341z"/><path d="M62.037 92.947c-.104 0-.21-.013-.315-.038a13.144 13.144 0 01-1.255-.351 9.894 9.894 0 01-1.319-.414 21.471 21.471 0 01-3.109-1.3 1.338 1.338 0 111.23-2.378c.853.441 1.79.832 2.784 1.16.417.161.752.264 1.088.341.053.012.105.028.157.046.334.121.7.209 1.054.294a1.338 1.338 0 01-.315 2.64z"/><path d="M64.879 93.574h-.01c-.079 0-.158-.007-.236-.021a40.143 40.143 0 01-2.543-.546 1.337 1.337 0 01-.98-1.618 1.334 1.334 0 011.618-.981c.854.209 1.624.375 2.354.506a1.343 1.343 0 011.131 1.322 1.335 1.335 0 01-1.334 1.338z"/><path d="M64.879 93.563c-.08 0-.169-.007-.249-.021a57.797 57.797 0 01-2.52-.529 6.838 6.838 0 01-.28-.073l-.462-.125c-.315-.085-.627-.17-.937-.269a18.737 18.737 0 01-1.108-.341l-.111-.037a25.802 25.802 0 01-3.161-1.316 18.75 18.75 0 01-2.133-1.272c-2.787-2.028-3.369-4.088-3.369-5.462 0-1.966 1.099-3.778 3.265-5.387a1.337 1.337 0 011.616.016c.131.101.262.187.402.275a1.339 1.339 0 01-1.105 2.414c-.997.894-1.5 1.794-1.5 2.683 0 1.362 1.224 2.539 2.25 3.285.487.342 1.096.705 1.791 1.064a23.01 23.01 0 002.8 1.165l.096.032c.325.107.669.222 1.021.314.335.106.606.178.879.252l.64.172a53.64 53.64 0 002.382.501 1.337 1.337 0 01-.207 2.659z"/><path d="M58.244 83.099a1.33 1.33 0 01-.484-.091c-.4-.156-.792-.33-1.197-.533a9.676 9.676 0 01-1.167-.595 6.54 6.54 0 01-.456-.262 2.97 2.97 0 01-.413-.261 1.34 1.34 0 111.598-2.148c.059.026.143.081.197.116.118.076.247.15.375.217.369.216.656.362.942.482a.955.955 0 01.086.04c.318.161.651.312 1.003.448a1.34 1.34 0 01-.484 2.587z"/><path d="M66.74 85.233c-.058 0-.118-.003-.177-.012a33.04 33.04 0 01-1.643-.259 19.343 19.343 0 01-1.58-.291 30.557 30.557 0 01-2.965-.757 20.808 20.808 0 01-2.644-.923 1.341 1.341 0 01-.704-1.758 1.34 1.34 0 011.758-.703c.741.318 1.531.593 2.348.818.828.26 1.719.487 2.773.708.527.118.993.204 1.44.265.546.1 1.057.18 1.568.248a1.338 1.338 0 01-.174 2.664z"/><path d="M68.827 87.06c-.289 0-.578-.093-.822-.283a7.864 7.864 0 01-.104-.07c-.152-.122-.237-.187-.319-.25l-.169-.131a10.387 10.387 0 01-.619-.521c-.32-.268-.665-.604-1.035-1.013a1.338 1.338 0 111.986-1.795c.287.317.548.574.824.806.191.176.354.304.503.423l.14.108c.088.068.18.138.271.212.069.045.136.093.202.148a1.337 1.337 0 01-.858 2.366z"/><path d="M66.752 85.233c-.059 0-.131-.003-.189-.012-.555-.073-1.1-.161-1.639-.258a45.833 45.833 0 01-1.55-.285 39.29 39.29 0 01-2.975-.756c-.92-.273-1.78-.571-2.558-.886a1.525 1.525 0 01-.119-.043c-.412-.174-.8-.348-1.172-.524a18.837 18.837 0 01-1.11-.563l-.21-.12a6.556 6.556 0 01-.36-.212l-.228-.14a2.76 2.76 0 00-.199-.127c-3.227-2.124-3.893-4.329-3.893-5.813 0-5.804 9.829-10.181 22.863-10.181.917 0 9.591.621 11.362 1.393.313.116.615.356.807.668a1.338 1.338 0 01-1.962 1.757c-1.549-.487-8.872-1.142-10.207-1.142-11.896 0-20.186 3.955-20.186 7.504 0 1.495 1.432 2.751 2.633 3.542.044.025.121.072.2.126l.247.152c.083.053.155.092.228.132l.226.129c.26.14.578.308.921.466.323.153.649.299.991.445.032.01.063.021.093.034a25.33 25.33 0 002.391.833c.968.285 1.869.515 2.751.702.463.091.957.187 1.466.269.517.093 1.014.173 1.521.241a1.344 1.344 0 011.188 1.329 1.332 1.332 0 01-1.331 1.34z"/></g></svg>