<svg xmlns="http://www.w3.org/2000/svg" width="200" height="200"><circle fill="#F3F3F3" cx="100" cy="100" r="100"/><g fill="#A91F24"><path d="M157.522 56H47.155c-.912 0-1.155.417-1.155 1.348v85.246c0 .931.243 1.406 1.155 1.406h110.368c.913 0 1.478-.476 1.478-1.406V57.348C159 56.417 158.436 56 157.522 56zM156 75H90.903l-7.856-5.479c-.271-.179-.585-.521-.905-.521H49V59h107v16zM49 72h32.647l7.854 5.478c.271.18.585.522.908.522H156v63H49V72z"/><path d="M136.736 69h3.659c.497 0 .931-.236 1.234-.592.304.355.738.592 1.235.592h3.644c.498 0 .933-.236 1.236-.593.306.357.738.593 1.236.593h3.642c.912 0 1.655-.569 1.655-1.5s-.743-1.5-1.655-1.5h-3.642c-.498 0-.931.236-1.235.593a1.62 1.62 0 00-1.236-.593h-3.644a1.62 1.62 0 00-1.235.592c-.304-.355-.737-.592-1.234-.592h-3.659c-.914 0-1.657.569-1.657 1.5s.742 1.5 1.656 1.5zM72.412 96h58.271c2.736 0 4.316-2.627 4.316-5.366v-.335c0-2.739-1.58-5.299-4.316-5.299H73.145C70.408 85 68 87.561 68 90.299v.335c0 .067.017.132.02.199-.003.067-.02.13-.02.199v.335C68 93.705 70.074 96 72.412 96zm60.282-5.133c-.102 1.025-.96 2.133-2.011 2.133H73.145C72.025 93 71 91.754 71 90.634v-.335C71 89.179 72.025 88 73.145 88h56.805c1.458 0 2.64 1.435 2.744 2.867zM72.412 107h58.271c2.736 0 4.316-1.894 4.316-4.633v-.335c0-2.738-1.58-5.032-4.316-5.032H73.145C70.408 97 68 99.294 68 102.032v.335c0 .067.017.132.02.199-.003.067-.02.131-.02.199v.335c0 2.338 2.074 3.9 4.412 3.9zm60.282-4.634c-.102 1.025-.96 1.634-2.011 1.634H73.145c-1.12 0-2.145-.513-2.145-1.633v-.335c0-1.12 1.025-2.032 2.145-2.032h56.805c1.458 0 2.64.935 2.744 2.366zM72.412 119h58.271c2.736 0 4.316-2.16 4.316-4.899v-.335c0-2.738-1.58-4.766-4.316-4.766H73.145c-2.737 0-5.145 2.027-5.145 4.766v.335c0 .067.017.132.02.199-.003.067-.02.131-.02.199v.335c0 2.338 2.074 4.166 4.412 4.166zm60.282-4.634c-.102 1.025-.96 1.634-2.011 1.634H73.145c-1.12 0-2.145-.779-2.145-1.899v-.335c0-1.12 1.025-1.766 2.145-1.766h56.805c1.458 0 2.64.935 2.744 2.366zM135 125.834v-.335c0-2.738-1.58-4.499-4.316-4.499H73.145c-2.737 0-5.145 1.761-5.145 4.499v.335c0 .067.017.132.02.199-.003.067-.02.131-.02.199v.335c0 2.338 2.074 4.433 4.412 4.433h58.271c2.737 0 4.317-2.427 4.317-5.166zM130.684 128H73.145c-1.12 0-2.145-1.046-2.145-2.166v-.335c0-1.12 1.025-2.499 2.145-2.499h56.805c1.458 0 2.64 1.434 2.744 2.867-.101 1.026-.96 2.133-2.01 2.133z"/></g></svg>