<svg xmlns="http://www.w3.org/2000/svg" width="200" height="200"><circle fill="#FFF" cx="100" cy="100" r="100"/><g fill="#A91F24"><path d="M71.664 56.81H65.3c-.944 0-1.713.769-1.713 1.713v14.581c0 2.739.816 5.37 2.356 7.604a13.497 13.497 0 004.933 4.388c.243.125.516.192.788.192.312 0 .619-.086.891-.25.507-.31.822-.87.822-1.462V58.522a1.715 1.715 0 00-1.713-1.712zm-1.713 3.425v19.977c-.436-.44-.83-.92-1.181-1.438a9.943 9.943 0 01-1.757-5.67V60.235h2.938zm62.896 24.803c.27.163.576.249.887.249.271 0 .545-.067.792-.195a13.552 13.552 0 004.911-4.374 13.347 13.347 0 002.359-7.615V58.522c0-.944-.769-1.713-1.713-1.713h-6.35c-.944 0-1.713.769-1.713 1.713v25.052a1.72 1.72 0 00.827 1.464zm2.599-4.838V60.235h2.924v12.868a9.96 9.96 0 01-1.757 5.678c-.348.51-.738.985-1.167 1.419z"/><path d="M145.54 49.989h-10.094v-7.246a2.585 2.585 0 00-2.587-2.577H72.528a2.58 2.58 0 00-2.577 2.577v7.246H59.847a2.578 2.578 0 00-2.577 2.573v21.043c0 4.378 1.409 8.536 4.075 12.025a20.235 20.235 0 008.855 6.566c.777 6.131 3.282 11.898 7.262 16.707 4.029 4.868 9.287 8.44 15.228 10.353.447 2.769.326 5.643-.37 8.767-.735 3.233-2.055 6.704-3.998 10.548a2.629 2.629 0 00-.238.524h-9.625c-.944 0-1.713.769-1.713 1.713v11.64c0 .944.769 1.713 1.713 1.713h3.718v2.903c0 .944.769 1.713 1.713 1.713h37.602c.944 0 1.713-.769 1.713-1.713v-2.903h3.718c.944 0 1.713-.769 1.713-1.713v-11.64c0-.944-.769-1.713-1.713-1.713h-9.64c-.04-.112-.078-.226-.135-.333-2.085-4.017-3.385-7.362-4.091-10.53-.704-3.161-.819-6.104-.35-8.978 5.927-1.916 11.18-5.488 15.216-10.352 3.978-4.815 6.482-10.583 7.259-16.706a20.163 20.163 0 008.846-6.566 19.614 19.614 0 004.085-12.025V52.562a2.576 2.576 0 00-2.573-2.573zm-34.801 66.285a1.713 1.713 0 00-1.197 1.292c-.776 3.672-.72 7.404.172 11.411.7 3.13 1.902 6.369 3.763 10.117H91.873c1.815-3.733 3.061-7.12 3.789-10.32.886-3.984.95-7.65.196-11.209a1.71 1.71 0 00-1.204-1.292c-5.698-1.631-10.729-4.934-14.552-9.553-3.788-4.577-6.075-10.091-6.612-15.949a1.71 1.71 0 00-1.199-1.478c-3.229-.999-6.151-3.039-8.226-5.745a16.244 16.244 0 01-3.369-9.946l-.052-20.188h11.02c.944 0 1.713-.768 1.713-1.718l-.06-8.106 58.704-.063v8.175c0 .944.769 1.712 1.717 1.712l10.95-.051v20.242c0 3.619-1.168 7.058-3.379 9.945a16.604 16.604 0 01-8.218 5.745 1.712 1.712 0 00-1.197 1.478c-.54 5.854-2.825 11.368-6.607 15.946-3.828 4.612-8.857 7.917-14.548 9.555zm10.753 34.46H80.173v-8.214h45.038v8.214h-3.719zm-35.888 3.426h34.176v1.19H85.604v-1.19z"/><path d="M116.57 75.159l-8.739.023-2.696-8.339a2.583 2.583 0 00-2.453-1.766c-1.143 0-2.101.702-2.439 1.781l-2.691 8.324-8.753-.023c-1.13 0-2.089.698-2.442 1.779a2.583 2.583 0 00.937 2.891l7.084 5.117-2.705 8.307a2.517 2.517 0 00.342 2.301c.79 1.097 2.512 1.385 3.604.589l7.08-5.154 6.932 5.053a2.544 2.544 0 001.639.597 2.6 2.6 0 002.105-1.083c.481-.67.607-1.506.347-2.289l-2.725-8.323 7.085-5.127a2.525 2.525 0 00.941-2.87 2.57 2.57 0 00-2.453-1.788zm-9.979 3.452l7.343-.02-5.955 4.311a1.708 1.708 0 00-.626 1.924l2.348 7.033-5.995-4.373a1.71 1.71 0 00-2.017.002l-5.958 4.363 2.289-7.032a1.71 1.71 0 00-.625-1.917l-5.968-4.312 7.458.027c.685 0 1.319-.492 1.542-1.191l2.266-7.009 2.265 7.006c.226.71.88 1.188 1.633 1.188z"/></g></svg>