<svg xmlns="http://www.w3.org/2000/svg" width="200" height="200"><circle fill="#FFF" cx="100" cy="100" r="100"/><path fill="#A91F24" d="M146.676 150.049H107.5c-.191 0-.373.039-.542.105a8.744 8.744 0 00-7.126-7.216v-21.35c22.151-.788 39.933-19.038 39.933-41.374 0-8.974-2.879-17.283-7.749-24.073a1.473 1.473 0 00-.231-.325C124.243 45.511 112.065 38.8 98.344 38.8c-13.705 0-25.869 6.696-33.412 16.983a1.455 1.455 0 00-.284.399c-4.851 6.782-7.718 15.076-7.718 24.032 0 22.335 17.777 40.585 39.924 41.374v21.35a8.747 8.747 0 00-7.112 7.11H53.216a1.49 1.49 0 000 2.98h36.526c.711 4.102 4.292 7.233 8.601 7.233 4.345 0 7.948-3.187 8.615-7.339.169.066.351.105.542.105h39.176a1.49 1.49 0 001.489-1.489c0-.82-.668-1.489-1.489-1.489zm-64.879-48.827l-.044.031a2.677 2.677 0 01-.636.302c-.258.082-.53.134-.815.134a2.66 2.66 0 01-2.59-2.076c-.004-.025-.004-.049-.009-.074-.003-.013-.009-.023-.012-.036a2.645 2.645 0 01-.048-.474 2.66 2.66 0 012.077-2.59c.222-.048.444-.067.665-.06.047.001.093.011.14.015.181.016.358.047.531.097a2.652 2.652 0 01.626.279c.049.03.101.056.148.089.184.128.356.274.503.448.126.149.234.31.324.479.004.009.006.019.011.027.257.501.352 1.076.257 1.646a2.597 2.597 0 01-.193.633c-.019.043-.037.085-.058.126a2.563 2.563 0 01-.353.542c-.007.008-.016.015-.023.024a2.626 2.626 0 01-.501.438zm-.359-43.1c.084.031.166.065.245.104.056.027.11.059.164.09.08.046.159.092.232.145.054.039.102.083.152.126a2.6 2.6 0 01.286.279c.062.071.124.14.178.217.039.054.07.113.104.171a2.683 2.683 0 01.206.42c.036.096.066.194.091.294.014.053.029.106.039.161.029.157.049.318.049.484 0 .166-.009.32-.023.446l-.003.012c-.229 1.271-1.431 2.214-2.713 2.193-.036-.001-.07-.008-.105-.011a2.483 2.483 0 01-.399-.054 2.661 2.661 0 01-2.063-2.587 3 3 0 01.05-.543 2.675 2.675 0 012.612-2.116c.316.001.616.066.898.169zm26.967 5.116l.248-.026c2.149-.226 4.297-.501 6.433-.867 1.324 5.026 2.063 10.652 2.175 16.381H99.832V63.744l.35-.008a98.037 98.037 0 008.223-.498zm7.134 38.275a2.58 2.58 0 01-.322-.13l-.069-.038a2.69 2.69 0 01-1.08-1.058c-.022-.04-.046-.08-.066-.122a2.815 2.815 0 01-.11-.258 3.15 3.15 0 01-.068-.221c-.019-.07-.039-.139-.053-.21a2.667 2.667 0 01-.048-.476 2.662 2.662 0 012.657-2.66c.182 0 .36.022.535.058l.059.01a2.647 2.647 0 011.437.872c.506.596.724 1.377.595 2.147a2.643 2.643 0 01-2.625 2.233 2.555 2.555 0 01-.842-.147zm-31.784-6.944a5.344 5.344 0 00-.375-.261c-.034-.022-.065-.046-.1-.067a5.274 5.274 0 00-.435-.241c-.023-.012-.045-.025-.068-.036a5.396 5.396 0 00-.47-.201l-.062-.025a5.636 5.636 0 00-.483-.151c-.026-.007-.051-.015-.078-.021a5.754 5.754 0 00-1.018-.158c-.037-.002-.074-.009-.111-.011-.691-3.725-1.061-7.653-1.137-11.689h17.435V95.86a98.87 98.87 0 00-11.418.843 5.593 5.593 0 00-.828-1.322 5.792 5.792 0 00-.41-.433c-.088-.084-.183-.159-.275-.237-.056-.046-.109-.097-.167-.142zM80.704 66.25c.089-.003.174-.021.262-.028.175-.013.35-.026.52-.055.023-.004.045-.011.068-.015a5.561 5.561 0 003.727-2.494c.148-.229.282-.469.396-.721.275.036.551.061.826.094.707.086 1.414.171 2.122.242.604.061 1.208.106 1.813.156.363.029.726.064 1.088.089.793.056 1.585.098 2.377.135l.417.021c.845.036 1.689.059 2.533.073v14.98H79.421c.082-4.289.499-8.481 1.283-12.477zm35.434 27.114c-.033.001-.064.012-.098.013a5.595 5.595 0 00-.885.121c-.089.02-.174.044-.261.067-.256.07-.506.153-.746.257-.098.042-.19.09-.284.137a5.688 5.688 0 00-.648.375c-.087.059-.167.124-.25.188a5.578 5.578 0 00-.577.499c-.063.063-.12.131-.181.198a5.708 5.708 0 00-.508.64c-.037.055-.067.112-.103.168a5.463 5.463 0 00-.355.662 97.55 97.55 0 00-11.41-.831V81.707h17.42c-.076 4.026-.438 7.944-1.114 11.657zm-16.306 20.284V98.837c3.671.055 7.329.32 10.947.797l.003.02c.008.064.02.127.029.19a5.151 5.151 0 00.276 1.082c.023.064.045.129.07.192.068.167.144.331.228.49l.074.14c.088.155.182.308.283.454.049.07.103.138.154.206a5.382 5.382 0 00.71.771c.051.046.099.095.151.139.164.138.335.266.514.385l.01.007c-3.305 8.551-8.235 13.929-13.449 14.799v-4.861zm-16.417-9.918c.167-.109.328-.228.48-.353.067-.056.129-.117.194-.176.167-.149.324-.308.47-.476.038-.044.079-.084.116-.129a5.463 5.463 0 00.558-.831c.142-.257.266-.524.366-.803l.034-.104c.101-.298.184-.604.234-.921.016-.097.021-.194.032-.291a95.828 95.828 0 0110.955-.808v19.669c-5.207-.868-10.133-6.238-13.439-14.777zm38.597-5.033a5.608 5.608 0 00-2.986-4.669c.724-3.932 1.127-8.062 1.203-12.322h16.52a38.175 38.175 0 01-6.198 19.456 112.146 112.146 0 00-8.539-2.465zm-1.773-19.971c-.11-5.926-.874-11.722-2.236-16.95 4.054-.813 8.09-1.879 12.095-3.194a38.184 38.184 0 016.65 20.144h-16.509zm-6.196-19.89c.068.199.134.401.2.606a96.92 96.92 0 01-14.411 1.321V41.919c5.669.927 10.901 7.094 14.211 16.917zm-17.189 1.926a94.38 94.38 0 01-1.684-.045c-.392-.014-.784-.025-1.176-.043a93.883 93.883 0 01-3.436-.223c-.432-.035-.863-.069-1.294-.11a94.804 94.804 0 01-3.131-.348 5.602 5.602 0 00-.186-.917c-.018-.062-.032-.124-.051-.184a5.573 5.573 0 00-.314-.776c-.039-.079-.081-.154-.123-.231a5.505 5.505 0 00-.419-.658c-.058-.078-.124-.148-.186-.223a5.3 5.3 0 00-.389-.419c-.084-.083-.166-.166-.255-.242a5.855 5.855 0 00-.504-.388c3.306-8.087 8.122-13.18 13.148-14.031v18.838zm-21.948.174c.112 1.989 1.273 3.687 2.926 4.599-.84 4.238-1.304 8.661-1.388 13.192H59.945a38.197 38.197 0 016.647-20.141c2.748.894 5.536 1.686 8.314 2.35zm1.536 20.771c.078 4.252.488 8.387 1.226 12.338a5.644 5.644 0 00-2.987 4.676c-2.803.68-5.664 1.497-8.538 2.44a38.177 38.177 0 01-6.197-19.455h16.496zm31.599 35.7c3.174-2.919 5.951-7.268 8.064-12.779.092.004.182.014.273.014a5.597 5.597 0 004.99-3.034c2.491.616 4.959 1.318 7.37 2.097-5.129 6.618-12.363 11.528-20.697 13.702zm9.153-58.506a39.417 39.417 0 00-.327-1.019c-2.192-6.51-5.25-11.576-8.802-14.852 8.043 2.104 15.063 6.754 20.151 13.032a101.522 101.522 0 01-11.022 2.839zm-36.309-3.893c-.116-.007-.228-.032-.346-.032a5.643 5.643 0 00-5.012 3.045c-2.354-.563-4.707-1.242-7.039-1.975 5.071-6.25 12.058-10.884 20.061-12.995-2.969 2.759-5.585 6.805-7.664 11.957zm-5.576 46.628a5.641 5.641 0 004.994 3.03c.097 0 .188-.021.284-.025 2.113 5.506 4.89 9.851 8.061 12.767-8.331-2.173-15.563-7.082-20.691-13.7 2.48-.794 4.941-1.487 7.352-2.072zm23.034 55.648a5.762 5.762 0 01-5.571-4.31 1.488 1.488 0 001.112-1.435 1.49 1.49 0 00-1.112-1.437c.641-2.481 2.892-4.323 5.572-4.323a5.764 5.764 0 015.756 5.76c-.001 3.168-2.583 5.745-5.757 5.745z"/></svg>