<svg xmlns="http://www.w3.org/2000/svg" width="200" height="200" viewBox="200.14 320.945 200 200"><path fill="#A90019" d="M371.519 381.477c-1.78-6.704-7.026-11.983-13.688-13.775-12.072-3.256-60.484-3.256-60.484-3.256s-48.411 0-60.484 3.256c-6.661 1.792-11.907 7.072-13.688 13.775-3.235 12.153-3.235 37.505-3.235 37.505s0 25.353 3.235 37.505c1.78 6.704 7.026 11.764 13.688 13.555 12.073 3.257 60.484 3.257 60.484 3.257s48.411 0 60.484-3.257c6.661-1.791 11.907-6.851 13.688-13.555 3.235-12.152 3.235-37.505 3.235-37.505s0-25.353-3.235-37.505zm-90.006 60.524v-46.038l40.462 23.02-40.462 23.018z"/></svg>