<svg xmlns="http://www.w3.org/2000/svg" width="300" height="300"><path fill="#FFF" d="M216.153 12.025h63.322c10.584 0 19.2 8.612 19.2 19.196v186.383c0 10.588-8.616 19.205-19.2 19.205H20.634c-10.584 0-19.196-8.617-19.196-19.205V31.221c0-10.584 8.611-19.196 19.196-19.196h69.13m-3.04 6.082h-66.09c-7.233 0-13.114 5.881-13.114 13.114v186.383c0 7.237 5.881 13.123 13.114 13.123h258.841c7.232 0 13.118-5.886 13.118-13.123V31.221c0-7.232-5.886-13.114-13.118-13.114h-60.281"/><path fill="#FFF" d="M281 192.662a2.337 2.337 0 01-2.337 2.338H21.337A2.337 2.337 0 0119 192.662V38.338A2.337 2.337 0 0121.337 36h257.326A2.337 2.337 0 01281 38.338v154.324zM24 191h252V41H24v150zm127.137 26.479c-4.027 0-7.306-3.278-7.306-7.306s3.279-7.306 7.306-7.306 7.306 3.278 7.306 7.306-3.279 7.306-7.306 7.306zm0-12.273a4.974 4.974 0 00-4.968 4.968 4.974 4.974 0 004.968 4.969 4.974 4.974 0 004.968-4.969 4.974 4.974 0 00-4.968-4.968zM213.382 275c-37.442 0-40.775-38.086-40.898-39.693l-.17-2.307h-43.4l-.101 2.371c-.077 1.615-2.278 39.629-41.674 39.629H84v14h131v-14h-1.618zm-80.13-38h34.844c1.063 7 5.908 29 25.067 38H108.17c19.735-9 24.168-31 25.082-38zM211 284H89v-5h122v5z"/><path fill="#FFF" d="M171.821 158.975h-38.378c-.575 0-1.045-.47-1.045-1.045v-25.21c-9.105-6.539-14.529-17.072-14.529-28.282 0-19.182 15.593-34.789 34.775-34.789 19.169 0 34.767 15.607 34.767 34.789 0 11.205-5.425 21.735-14.543 28.282v25.21a1.05 1.05 0 01-1.047 1.045zm-37.327-2.096h36.278v-24.707c0-.338.169-.657.451-.854 8.831-6.132 14.096-16.173 14.096-26.881 0-18.027-14.657-32.693-32.675-32.693-18.026 0-32.684 14.666-32.684 32.693 0 10.708 5.265 20.753 14.082 26.881.279.196.452.516.452.854v24.707zm16.1-90.582c-.58 0-1.05-.466-1.05-1.05v-11.42c0-.58.47-1.05 1.05-1.05.575 0 1.046.47 1.046 1.05v11.42c0 .585-.471 1.05-1.046 1.05zm13.676 1.302c-.092 0-.184-.014-.279-.032a1.054 1.054 0 01-.739-1.283l2.968-11.032c.15-.562.735-.881 1.283-.74.557.151.886.726.735 1.283l-2.959 11.032a1.054 1.054 0 01-1.009.772zm12.889 4.808a1.047 1.047 0 01-.913-1.566l5.707-9.904a1.043 1.043 0 011.425-.383c.507.288.676.927.389 1.424l-5.703 9.904a1.036 1.036 0 01-.905.525zm11.187 7.972a1.043 1.043 0 01-.735-1.78l8.078-8.086a1.058 1.058 0 011.479 0c.41.406.41 1.078 0 1.484l-8.082 8.082c-.201.199-.471.3-.74.3zm-74.431 2.666c-.27 0-.535-.105-.74-.31l-8.064-8.082a1.032 1.032 0 010-1.479 1.05 1.05 0 011.479 0l8.068 8.082a1.05 1.05 0 01-.743 1.789zm10.606-8.757c-.356 0-.712-.192-.904-.525l-5.717-9.89a1.045 1.045 0 01.384-1.429 1.052 1.052 0 011.434.379l5.708 9.89a1.043 1.043 0 01-.379 1.429c-.165.1-.348.146-.526.146zm12.511-5.708a1.05 1.05 0 01-1.009-.776l-2.963-11.032a1.055 1.055 0 01.74-1.283 1.06 1.06 0 011.283.74l2.968 11.032a1.06 1.06 0 01-1.019 1.319z"/><path fill="#FFF" d="M130.622 121.889a1.04 1.04 0 01-.904-.521l-1.914-3.297a1.05 1.05 0 01.251-1.347l5.214-4.146a20.709 20.709 0 01-.722-2.726l-6.598-.991a1.042 1.042 0 01-.891-1.032v-3.799c0-.521.379-.959.899-1.037l6.589-.991c.183-.94.42-1.854.722-2.717l-5.214-4.146a1.056 1.056 0 01-.256-1.347l1.918-3.301c.255-.447.803-.639 1.292-.447l6.196 2.438a18.86 18.86 0 011.991-1.986l-2.443-6.201a1.046 1.046 0 01.452-1.292l3.301-1.899a1.032 1.032 0 011.333.256l4.155 5.205a19.216 19.216 0 012.708-.726l.986-6.593c.078-.511.516-.89 1.032-.89h3.821c.517 0 .955.379 1.032.89l.991 6.593c.936.183 1.845.425 2.717.726l4.141-5.205c.32-.407.891-.516 1.343-.256l3.302 1.899c.442.26.639.804.442 1.292l-2.434 6.201c.717.63 1.388 1.292 1.991 1.986l6.21-2.438c.475-.196 1.027 0 1.282.452l1.904 3.301c.256.447.15 1.014-.256 1.342L172 99.285c.306.899.548 1.808.722 2.717l6.579.991c.512.078.891.516.891 1.037v3.799c0 .516-.379.959-.891 1.032l-6.579.991a19.654 19.654 0 01-.73 2.726l5.214 4.146c.406.324.512.895.256 1.342l-1.904 3.301c-.255.452-.799.648-1.282.452l-6.918-2.722a1.044 1.044 0 01-.589-1.356c.21-.534.817-.804 1.355-.589l6.068 2.383 1.005-1.735-5.091-4.055a1.044 1.044 0 01-.324-1.196 17.73 17.73 0 001-3.767c.063-.457.424-.817.876-.886l6.447-.968v-2.004l-6.447-.963a1.035 1.035 0 01-.876-.881 17.549 17.549 0 00-1-3.767 1.05 1.05 0 01.324-1.201l5.091-4.055-1.005-1.74-6.068 2.388a1.04 1.04 0 01-1.2-.32 18.454 18.454 0 00-2.763-2.763 1.04 1.04 0 01-.315-1.191l2.389-6.068-1.74-1-4.041 5.096c-.287.361-.78.489-1.205.32a18.36 18.36 0 00-3.771-1.009 1.057 1.057 0 01-.872-.876l-.968-6.443h-2.014l-.968 6.443a1.04 1.04 0 01-.872.876c-1.333.21-2.598.553-3.753 1.009a1.05 1.05 0 01-1.206-.32l-4.059-5.096-1.735 1 2.384 6.068a1.04 1.04 0 01-.315 1.191c-1.055.859-1.986 1.781-2.762 2.763a1.036 1.036 0 01-1.201.32l-6.064-2.388-1.009 1.74 5.096 4.055c.356.288.484.776.32 1.201a18.51 18.51 0 00-1 3.781 1.042 1.042 0 01-.876.868l-6.447.963v2.004l6.447.968c.452.068.803.42.876.872.21 1.319.548 2.589 1 3.781.165.424.037.908-.32 1.196l-5.096 4.055 1.009 1.735 6.064-2.383a1.044 1.044 0 011.356.589c.21.539-.05 1.146-.589 1.356l-6.895 2.722a1.186 1.186 0 01-.387.069zm46.145 17.379h-48.259c-.58 0-1.05-.47-1.05-1.05 0-.575.47-1.045 1.05-1.045h48.259c.575 0 1.041.47 1.041 1.045 0 .579-.466 1.05-1.041 1.05zm0 7.059h-48.259c-.58 0-1.05-.465-1.05-1.045 0-.575.47-1.05 1.05-1.05h48.259a1.049 1.049 0 010 2.095zm0 6.438h-48.259c-.58 0-1.05-.47-1.05-1.045s.47-1.051 1.05-1.051h48.259c.575 0 1.041.476 1.041 1.051s-.466 1.045-1.041 1.045zm-11.625 17.548h-25.018a1.042 1.042 0 01-1.041-1.046V157.93c0-.585.466-1.051 1.041-1.051h25.018c.575 0 1.041.466 1.041 1.051v11.337c0 .58-.466 1.046-1.041 1.046zm-23.968-2.096h22.917v-9.242h-22.917v9.242z"/><path fill="#FFF" d="M156.644 180.139h-8.022c-.575 0-1.05-.471-1.05-1.051v-9.821c0-.575.475-1.05 1.05-1.05h8.022a1.05 1.05 0 011.051 1.05v9.821a1.049 1.049 0 01-1.051 1.051zm-6.977-2.096h5.936v-7.73h-5.936v7.73z"/></svg>