<svg xmlns="http://www.w3.org/2000/svg" width="300" height="300"><path fill="#FFF" d="M134.059 282.934H121.48a2.195 2.195 0 01-2.169-1.869l-3.413-22.676a64.242 64.242 0 01-10.542-2.803l-14.291 17.918a2.193 2.193 0 01-2.809.533l-10.898-6.273a2.195 2.195 0 01-.946-2.707l8.402-21.357a65.568 65.568 0 01-7.699-7.701l-21.367 8.375a2.192 2.192 0 01-2.701-.947l-6.301-10.895a2.197 2.197 0 01.534-2.816l17.944-14.266a66.157 66.157 0 01-2.823-10.533l-22.682-3.412a2.195 2.195 0 01-1.87-2.17V186.72c0-1.088.798-2.012 1.873-2.17l22.679-3.385a66.24 66.24 0 012.823-10.533l-17.947-14.293a2.195 2.195 0 01-.531-2.816l6.301-10.894a2.188 2.188 0 012.704-.943l21.356 8.402a63.212 63.212 0 017.703-7.706l-8.398-21.36a2.193 2.193 0 01.943-2.704l10.897-6.298a2.196 2.196 0 012.816.531l14.287 17.947a65.794 65.794 0 0110.542-2.829l3.413-22.682a2.196 2.196 0 012.169-1.87h12.579c1.085 0 2.008.795 2.17 1.87l3.413 22.682a65.706 65.706 0 0110.538 2.829l14.268-17.944a2.184 2.184 0 012.815-.534l10.895 6.298a2.194 2.194 0 01.946 2.7l-8.378 21.367a63.91 63.91 0 017.712 7.703l21.35-8.402a2.187 2.187 0 012.707.946l6.275 10.895a2.194 2.194 0 01-.534 2.809l-17.921 14.305a67.996 67.996 0 012.832 10.527l22.646 3.416a2.197 2.197 0 011.869 2.17v12.582a2.195 2.195 0 01-1.869 2.17l-22.649 3.41a67.912 67.912 0 01-2.829 10.531l17.921 14.27a2.2 2.2 0 01.534 2.814l-6.275 10.893a2.206 2.206 0 01-2.703.951L178.435 236a66.834 66.834 0 01-7.713 7.697l8.382 21.363a2.198 2.198 0 01-.949 2.705l-10.895 6.273a2.197 2.197 0 01-2.813-.533l-14.268-17.918a64.377 64.377 0 01-10.538 2.803l-3.413 22.676a2.194 2.194 0 01-2.169 1.868zm-10.689-4.391h8.8l3.37-22.387a2.188 2.188 0 011.843-1.842 60.01 60.01 0 0012.728-3.387 2.212 2.212 0 012.513.68l14.083 17.682 7.62-4.389-8.27-21.078a2.198 2.198 0 01.659-2.506c3.512-2.85 6.65-5.984 9.328-9.318.6-.75 1.625-1.02 2.513-.67l21.076 8.266 4.389-7.619-17.684-14.082a2.204 2.204 0 01-.683-2.5 63.563 63.563 0 003.426-12.754 2.186 2.186 0 011.84-1.826l22.35-3.367v-8.805l-22.35-3.373a2.193 2.193 0 01-1.843-1.83c-.666-4.25-1.817-8.539-3.423-12.746a2.19 2.19 0 01.683-2.496l17.687-14.113-4.389-7.62-21.076 8.293a2.174 2.174 0 01-2.52-.674 59.768 59.768 0 00-9.312-9.305 2.193 2.193 0 01-.672-2.512l8.27-21.093-7.62-4.405-14.083 17.71a2.192 2.192 0 01-2.513.679 61.355 61.355 0 00-12.741-3.419 2.194 2.194 0 01-1.83-1.843l-3.37-22.385h-8.8L120 129.894a2.196 2.196 0 01-1.83 1.843 61.482 61.482 0 00-12.741 3.419 2.184 2.184 0 01-2.512-.676l-14.103-17.716-7.627 4.409 8.293 21.089c.353.9.079 1.922-.676 2.522a58.637 58.637 0 00-9.295 9.298 2.17 2.17 0 01-2.519.674l-21.09-8.297-4.409 7.623 17.716 14.109c.752.6 1.025 1.619.676 2.514a61.73 61.73 0 00-3.419 12.736 2.186 2.186 0 01-1.843 1.826l-22.379 3.344v8.834l22.382 3.367a2.189 2.189 0 011.84 1.826 62.182 62.182 0 003.419 12.74 2.193 2.193 0 01-.679 2.514l-17.71 14.082 4.408 7.623 21.09-8.27c.89-.35 1.909-.08 2.512.67a61.2 61.2 0 009.312 9.314c.745.6 1.015 1.619.663 2.512l-8.29 21.08 7.62 4.389 14.109-17.686a2.197 2.197 0 012.509-.68 60.086 60.086 0 0012.728 3.387 2.19 2.19 0 011.843 1.842l3.372 22.388zm4.388-51.105c-18.956 0-34.381-15.438-34.381-34.41 0-18.961 15.425-34.389 34.381-34.389 18.969 0 34.404 15.428 34.404 34.389 0 18.972-15.434 34.41-34.404 34.41zm0-64.407c-16.536 0-29.989 13.457-29.989 29.996 0 16.553 13.453 30.018 29.989 30.018 16.548 0 30.012-13.465 30.012-30.018.001-16.539-13.463-29.996-30.012-29.996z"/><path fill="#FFF" d="M127.758 149.931a5.496 5.496 0 01-5.49-5.49 5.492 5.492 0 015.49-5.483 5.492 5.492 0 015.486 5.483 5.494 5.494 0 01-5.486 5.49zm0-6.581c-.587 0-1.098.508-1.098 1.092a1.11 1.11 0 001.098 1.098c.613 0 1.095-.481 1.095-1.098 0-.594-.501-1.092-1.095-1.092zm24.278 13.099a5.47 5.47 0 01-2.737-.734 5.429 5.429 0 01-2.549-3.348 5.48 5.48 0 01.564-4.164c1.461-2.509 4.942-3.449 7.481-1.975a5.378 5.378 0 012.556 3.297 5.408 5.408 0 01-.548 4.181 5.521 5.521 0 01-4.767 2.743zm.003-6.577a1.06 1.06 0 00-.926.534c-.152.26-.191.56-.115.848.043.164.164.468.5.662.508.297 1.211.096 1.511-.416a1.063 1.063 0 00-.39-1.46 1.113 1.113 0 00-.58-.168zm17.796 24.36a5.458 5.458 0 01-4.755-2.779 5.425 5.425 0 01-.527-4.148 5.398 5.398 0 012.542-3.311c2.522-1.454 6.041-.518 7.495 2.002a5.409 5.409 0 01.551 4.137 5.503 5.503 0 01-5.306 4.099zm.01-6.584c-.198 0-.386.053-.563.154a1.056 1.056 0 00-.491.643c-.047.166-.09.494.105.834.382.684 1.038.666 1.471.42.267-.156.454-.4.53-.689a1.082 1.082 0 00-1.052-1.362zm6.496 30.87a5.496 5.496 0 01-5.49-5.49 5.494 5.494 0 015.49-5.484 5.493 5.493 0 015.486 5.484 5.496 5.496 0 01-5.486 5.49zm0-6.582c-.617 0-1.099.479-1.099 1.092 0 .605.491 1.098 1.099 1.098.613 0 1.095-.482 1.095-1.098 0-.614-.482-1.092-1.095-1.092zm-6.516 30.878c-.96 0-1.909-.254-2.743-.742-2.605-1.516-3.495-4.879-1.988-7.494 1.404-2.5 4.919-3.475 7.478-1.992a5.376 5.376 0 012.559 3.301 5.398 5.398 0 01-.547 4.178 5.508 5.508 0 01-4.759 2.749zm-.013-6.582a1 1 0 00-.899.516c-.313.541-.136 1.232.379 1.533a1.116 1.116 0 001.493-.412c.201-.348.155-.666.112-.828a1.051 1.051 0 00-.501-.641 1.132 1.132 0 00-.584-.168zm-17.746 24.366a5.507 5.507 0 01-4.752-2.754 5.477 5.477 0 011.979-7.475c2.555-1.484 6.061-.531 7.515 1.988.731 1.256.93 2.73.554 4.145a5.503 5.503 0 01-5.296 4.096zm-.007-6.588c-.197 0-.385.053-.561.154a1.072 1.072 0 00-.389 1.477c.301.518.967.727 1.478.426a1.11 1.11 0 00.53-.693 1.085 1.085 0 00-1.058-1.364zm-24.301 13.09a5.496 5.496 0 01-5.49-5.49 5.494 5.494 0 015.49-5.484 5.493 5.493 0 015.486 5.484 5.494 5.494 0 01-5.486 5.49zm0-6.582c-.587 0-1.098.508-1.098 1.092a1.11 1.11 0 001.098 1.098c.613 0 1.095-.48 1.095-1.098 0-.594-.501-1.092-1.095-1.092zm-24.304.08a5.474 5.474 0 01-2.74-.736 5.419 5.419 0 01-2.542-3.33 5.464 5.464 0 01.564-4.182c1.448-2.518 4.949-3.465 7.479-1.979a5.466 5.466 0 012.565 3.348 5.406 5.406 0 01-.557 4.131 5.527 5.527 0 01-4.769 2.748zm.006-6.588c-.386 0-.732.203-.93.543a1.12 1.12 0 00-.119.852c.042.164.165.465.504.658.508.297 1.213.096 1.51-.414.185-.32.161-.611.112-.803a1.118 1.118 0 00-.531-.682 1.086 1.086 0 00-.546-.154zm-17.755-11.196a5.517 5.517 0 01-4.751-2.754 5.439 5.439 0 01-.551-4.197 5.369 5.369 0 012.565-3.293c2.45-1.412 6.027-.518 7.478 2.008a5.504 5.504 0 01-2.011 7.502 5.445 5.445 0 01-2.73.734zm-.004-6.582a1.11 1.11 0 00-.554.148c-.35.199-.468.482-.511.637-.046.166-.089.492.112.838.304.527.953.729 1.484.426.534-.311.716-.986.409-1.514a1.067 1.067 0 00-.94-.535zm-6.529-17.714a5.496 5.496 0 01-5.486-5.49 5.493 5.493 0 015.486-5.484 5.494 5.494 0 015.49 5.484 5.496 5.496 0 01-5.49 5.49zm0-6.582c-.593 0-1.095.498-1.095 1.092a1.11 1.11 0 001.095 1.098c.617 0 1.098-.482 1.098-1.098a1.08 1.08 0 00-1.098-1.092zm6.503-17.704a5.46 5.46 0 01-2.74-.742c-1.259-.732-2.166-1.916-2.542-3.334s-.178-2.898.564-4.17c1.46-2.516 4.946-3.443 7.475-1.988a5.38 5.38 0 012.552 3.301 5.428 5.428 0 01-.541 4.178 5.514 5.514 0 01-4.768 2.755zm.007-6.584c-.386 0-.732.203-.934.547a1.096 1.096 0 00.396 1.5c.531.313 1.207.096 1.497-.412.198-.344.151-.666.108-.832a1.047 1.047 0 00-.495-.643 1.148 1.148 0 00-.572-.16zm17.798-11.199a5.502 5.502 0 01-4.748-2.752 5.444 5.444 0 01-.554-4.201 5.348 5.348 0 012.565-3.288c2.44-1.421 6.021-.518 7.481 1.995a5.444 5.444 0 01.55 4.162 5.476 5.476 0 01-2.575 3.353 5.397 5.397 0 01-2.719.731zm0-6.577c-.201 0-.389.049-.563.151a1.01 1.01 0 00-.501.626c-.046.165-.092.495.112.84.303.528.976.727 1.474.43.271-.155.455-.399.534-.689a1.075 1.075 0 00-1.056-1.358zm126.399-15.036h-8.247a2.194 2.194 0 01-2.169-1.87l-2.144-14.284a44.855 44.855 0 01-5.948-1.589l-8.976 11.297a2.196 2.196 0 01-2.813.537l-7.142-4.118a2.194 2.194 0 01-.946-2.707l5.288-13.437a46.146 46.146 0 01-4.346-4.353l-13.469 5.286a2.189 2.189 0 01-2.704-.953l-4.092-7.132a2.19 2.19 0 01.534-2.806l11.28-8.991a44.038 44.038 0 01-1.597-5.965l-14.257-2.146a2.196 2.196 0 01-1.87-2.17v-8.21c0-1.085.795-2.008 1.87-2.17l14.254-2.146a43.645 43.645 0 011.596-5.965l-11.276-8.992a2.193 2.193 0 01-.534-2.809l4.092-7.109a2.192 2.192 0 012.704-.949l13.466 5.282a45.014 45.014 0 014.349-4.373l-5.288-13.436a2.196 2.196 0 01.946-2.708l7.142-4.118a2.198 2.198 0 012.813.538l8.976 11.293a44.72 44.72 0 015.948-1.586l2.144-14.284a2.194 2.194 0 012.169-1.87h8.247c1.088 0 2.008.794 2.169 1.87l2.141 14.284c2.021.393 4.016.923 5.955 1.586l9.008-11.296a2.2 2.2 0 012.815-.531l7.106 4.118a2.195 2.195 0 01.939 2.704l-5.286 13.436a45.365 45.365 0 014.35 4.373l13.439-5.282a2.198 2.198 0 012.701.946l4.114 7.109c.544.939.32 2.137-.53 2.816l-11.283 8.985a43.316 43.316 0 011.603 5.968l14.254 2.146a2.195 2.195 0 011.869 2.17v8.21a2.195 2.195 0 01-1.869 2.17l-14.258 2.146a42.992 42.992 0 01-1.603 5.968l11.287 8.985a2.198 2.198 0 01.53 2.819l-4.114 7.106a2.204 2.204 0 01-2.701.943l-13.446-5.262a45.555 45.555 0 01-4.343 4.355l5.286 13.437a2.198 2.198 0 01-.939 2.704l-7.106 4.119a2.201 2.201 0 01-2.815-.531l-9.008-11.3a45.283 45.283 0 01-5.955 1.589l-2.141 14.284a2.191 2.191 0 01-2.169 1.869zm-6.358-4.392h4.468l2.094-13.974a2.192 2.192 0 011.827-1.84 41.24 41.24 0 008.187-2.186 2.196 2.196 0 012.496.683l8.811 11.049 3.835-2.223-5.17-13.146a2.188 2.188 0 01.659-2.509 41.917 41.917 0 005.984-5.995 2.188 2.188 0 012.499-.653l13.15 5.147 2.222-3.838-11.046-8.797a2.194 2.194 0 01-.673-2.522c1.003-2.545 1.745-5.295 2.2-8.167a2.19 2.19 0 011.84-1.827l13.947-2.1v-4.432l-13.947-2.101a2.19 2.19 0 01-1.84-1.827c-.455-2.882-1.197-5.628-2.2-8.164a2.2 2.2 0 01.673-2.526l11.046-8.797-2.219-3.838-13.153 5.167a2.208 2.208 0 01-2.506-.659 40.828 40.828 0 00-5.978-6.008 2.188 2.188 0 01-.659-2.509l5.17-13.146-3.835-2.222-8.811 11.046a2.206 2.206 0 01-2.496.683 40.921 40.921 0 00-8.187-2.183 2.19 2.19 0 01-1.827-1.84l-2.094-13.974h-4.468l-2.097 13.974a2.19 2.19 0 01-1.827 1.84 40.634 40.634 0 00-8.181 2.183 2.212 2.212 0 01-2.503-.686l-8.777-11.046-3.867 2.229 5.173 13.143c.354.89.086 1.906-.659 2.509a40.748 40.748 0 00-5.978 6.004 2.217 2.217 0 01-2.506.663l-13.173-5.167-2.209 3.835L187.96 58.5c.752.6 1.025 1.619.676 2.516-1.002 2.552-1.737 5.298-2.192 8.17a2.19 2.19 0 01-1.84 1.827l-13.947 2.101v4.432l13.947 2.1a2.19 2.19 0 011.84 1.827c.455 2.862 1.19 5.612 2.192 8.174a2.19 2.19 0 01-.676 2.512l-11.042 8.804 2.212 3.857 13.17-5.17a2.194 2.194 0 012.499.656 41.783 41.783 0 005.984 5.991 2.188 2.188 0 01.659 2.509l-5.173 13.143 3.867 2.229 8.777-11.049a2.219 2.219 0 012.5-.686 41.198 41.198 0 008.184 2.186 2.19 2.19 0 011.827 1.84l2.097 13.975zm2.233-31.888c-12.811 0-23.233-10.416-23.233-23.216 0-12.813 10.423-23.236 23.233-23.236 12.813 0 23.235 10.422 23.235 23.236 0 12.8-10.422 23.216-23.235 23.216zm0-42.06c-10.39 0-18.841 8.455-18.841 18.844 0 10.38 8.451 18.824 18.841 18.824s18.844-8.444 18.844-18.824c0-10.39-8.454-18.844-18.844-18.844z"/><g fill="#FFF"><path d="M108.166 119.745L69.601 93.023H24.042a1.637 1.637 0 01-1.639-1.639V23.846c0-.904.732-1.639 1.639-1.639h100.581c.907 0 1.639.735 1.639 1.639v67.538c0 .907-.732 1.639-1.639 1.639h-13.885v25.373c0 .61-.343 1.17-.877 1.454a1.66 1.66 0 01-1.695-.105zm14.818-94.26H25.677v64.261h44.435c.336 0 .663.103.939.293l36.405 25.228V91.384c0-.907.735-1.639 1.639-1.639h13.888v-64.26z"/><path d="M54.532 40.646h55.127a1.64 1.64 0 000-3.278H54.532c-.903 0-1.635.735-1.635 1.639a1.635 1.635 0 001.635 1.639zm-15.527 0h8.421c.903 0 1.635-.732 1.635-1.639 0-.903-.732-1.639-1.635-1.639h-8.421a1.64 1.64 0 000 3.278zm0 9.252h56.499a1.64 1.64 0 100-3.281H39.005a1.641 1.641 0 000 3.281zm62.236 0h8.418c.907 0 1.639-.735 1.639-1.639a1.64 1.64 0 00-1.639-1.642h-8.418c-.903 0-1.639.735-1.639 1.642a1.642 1.642 0 001.639 1.639zm-41.872 9.223h50.29c.907 0 1.639-.732 1.639-1.642a1.64 1.64 0 00-1.639-1.639h-50.29c-.907 0-1.639.735-1.639 1.639 0 .91.732 1.642 1.639 1.642zm-20.364 0h8.421c.903 0 1.635-.732 1.635-1.642 0-.903-.732-1.639-1.635-1.639h-8.421a1.641 1.641 0 000 3.281zm0 9.229h57.458c.9 0 1.639-.735 1.639-1.642s-.739-1.642-1.639-1.642H39.005a1.642 1.642 0 000 3.284zm62.236 0h8.418c.907 0 1.639-.735 1.639-1.642s-.732-1.642-1.639-1.642h-8.418a1.642 1.642 0 000 3.284zm-45.948 9.242h54.366c.907 0 1.639-.735 1.639-1.639a1.64 1.64 0 00-1.639-1.642H55.293c-.903 0-1.639.735-1.639 1.642a1.642 1.642 0 001.639 1.639zm-16.288 0h8.421c.903 0 1.635-.735 1.635-1.639 0-.907-.732-1.642-1.635-1.642h-8.421c-.903 0-1.639.735-1.639 1.642 0 .903.736 1.639 1.639 1.639z"/></g></svg>