<svg xmlns="http://www.w3.org/2000/svg" width="300" height="300"><path fill="#FFF" d="M205.407 138.43H98.927a2.105 2.105 0 01-2.105-2.106V97.165c0-.866.53-1.644 1.335-1.96l36.583-14.377a2.11 2.11 0 012.228.441l14.636 14.072 15.782-14.123a2.098 2.098 0 012.175-.391l36.614 14.377a2.105 2.105 0 011.338 1.96v39.159a2.105 2.105 0 01-2.106 2.107zm-104.373-4.212H203.3V98.6l-34.071-13.377-16.27 14.559a2.107 2.107 0 01-2.863-.051l-15.074-14.489L101.034 98.6v35.618z"/><path fill="#FFF" d="M187.47 138.348h-70.606a2.106 2.106 0 01-2.107-2.106v-24.554a2.107 2.107 0 014.215 0v22.449h66.391v-22.449a2.106 2.106 0 014.214 0v24.554a2.106 2.106 0 01-2.107 2.106zm-17.691-34.666h-35.232a2.106 2.106 0 01-2.107-2.106V82.788a2.107 2.107 0 014.215 0V99.47h31.017V82.788a2.106 2.106 0 014.214 0v18.789a2.105 2.105 0 01-2.107 2.105z"/><path fill="#FFF" d="M157.463 115.942h-10.589a2.107 2.107 0 01-2.108-2.106v-12.259c0-1.164.943-2.106 2.108-2.106h10.589c1.164 0 2.107.942 2.107 2.106v12.259a2.106 2.106 0 01-2.107 2.106zm-8.482-4.213h6.373v-8.047h-6.373v8.047z"/><path fill="#FFF" d="M161.782 138.43h-20.339a2.105 2.105 0 01-2.048-2.599l5.431-22.488a2.108 2.108 0 012.048-1.613h10.589a2.11 2.11 0 012.069 1.709l4.32 22.488a2.109 2.109 0 01-2.07 2.503zm-17.664-4.212h15.114l-3.51-18.276h-7.189l-4.415 18.276zm8.515-58.48c-15.712 0-28.497-12.782-28.497-28.493 0-15.711 12.785-28.493 28.497-28.493 15.729 0 28.526 12.782 28.526 28.493 0 15.712-12.797 28.493-28.526 28.493zm0-52.773c-13.389 0-24.282 10.893-24.282 24.28 0 13.389 10.893 24.281 24.282 24.281 13.406 0 24.311-10.892 24.311-24.281-.001-13.388-10.905-24.28-24.311-24.28z"/><path fill="#FFF" d="M172.659 43.304c-7.096 0-13.7-2.081-18.598-5.859a2.106 2.106 0 012.574-3.335c5.285 4.077 13.6 5.862 21.232 4.535a2.116 2.116 0 012.437 1.715 2.108 2.108 0 01-1.715 2.437c-1.943.336-3.94.507-5.93.507z"/><path fill="#FFF" d="M138.734 42.797c-4.206 0-8.187-.712-11.833-2.119a2.107 2.107 0 011.519-3.931c3.158 1.218 6.627 1.837 10.314 1.837 11.829 0 21.45-6.609 21.45-14.733 0-1.164.942-2.106 2.107-2.106s2.107.942 2.107 2.106c.001 10.448-11.512 18.946-25.664 18.946zm114.364 232.315a2.105 2.105 0 01-2.107-2.104v-9.861c0-7.687-6.266-13.94-13.972-13.94h-23.194c-7.705 0-13.972 6.254-13.972 13.94v9.861a2.106 2.106 0 01-2.108 2.104 2.107 2.107 0 01-2.107-2.104v-9.861c0-10.009 8.159-18.155 18.188-18.155h23.194c10.028 0 18.187 8.146 18.187 18.155v9.861a2.108 2.108 0 01-2.109 2.104zm-76.087 0a2.105 2.105 0 01-2.107-2.104v-9.861c0-7.687-6.264-13.94-13.959-13.94H137.74c-7.7 0-13.962 6.254-13.962 13.94v9.861a2.106 2.106 0 01-2.108 2.104 2.106 2.106 0 01-2.107-2.104v-9.861c0-10.009 8.155-18.155 18.178-18.155h23.204c10.019 0 18.174 8.146 18.174 18.155v9.861a2.107 2.107 0 01-2.108 2.104zm-70.431 0a2.106 2.106 0 01-2.106-2.104v-9.861c0-7.687-6.265-13.94-13.964-13.94H67.307c-7.698 0-13.962 6.254-13.962 13.94v9.861a2.106 2.106 0 01-4.212 0v-9.861c0-10.009 8.152-18.155 18.175-18.155H90.51c10.022 0 18.176 8.146 18.176 18.155v9.861a2.106 2.106 0 01-2.106 2.104zm118.435-32.968c-9.484 0-17.199-7.716-17.199-17.197 0-9.461 7.715-17.158 17.199-17.158 9.478 0 17.19 7.697 17.19 17.158 0 9.481-7.713 17.197-17.19 17.197zm-12.941-16.109c.555 6.653 6.146 11.899 12.94 11.899 7.155 0 12.976-5.83 12.976-12.988 0-.493-.025-.977-.08-1.456-3.654.311-7.486-.592-10.598-2.537-3.892 4.072-9.721 6.013-15.238 5.082zm.34-4.219c.797.155 1.62.237 2.455.237 4.121 0 7.915-1.897 10.415-5.209a2.113 2.113 0 011.431-.822 2.14 2.14 0 011.582.462c2.328 1.898 5.44 2.898 8.411 2.855-2.098-4.339-6.551-7.337-11.693-7.337-6.079.001-11.194 4.185-12.601 9.814zm-63.484 20.328c-9.484 0-17.199-7.716-17.199-17.197 0-9.461 7.715-17.158 17.199-17.158 9.482 0 17.198 7.697 17.198 17.158 0 9.481-7.716 17.197-17.198 17.197zm-12.94-16.109c.554 6.653 6.146 11.899 12.94 11.899 7.159 0 12.982-5.83 12.982-12.988 0-.493-.026-.977-.079-1.456-3.589.308-7.475-.588-10.599-2.537-3.87 4.041-9.81 5.974-15.244 5.082zm.339-4.222c.805.158 1.636.24 2.488.24 4.067 0 7.946-1.943 10.377-5.199a2.11 2.11 0 011.428-.832 2.155 2.155 0 011.588.455c2.345 1.908 5.443 2.931 8.421 2.862-2.101-4.339-6.554-7.337-11.7-7.337-6.077.001-11.194 4.185-12.602 9.811zm-57.832 20.331c-9.483 0-17.197-7.716-17.197-17.197 0-9.461 7.714-17.158 17.197-17.158s17.196 7.697 17.196 17.158c0 9.481-7.714 17.197-17.196 17.197zm-12.939-16.109c.554 6.653 6.146 11.899 12.938 11.899 7.16 0 12.985-5.83 12.985-12.988 0-.493-.028-.977-.083-1.456-3.606.317-7.451-.563-10.592-2.537-3.223 3.398-7.649 5.311-12.422 5.311a17.31 17.31 0 01-2.826-.229zm.339-4.222c.812.158 1.634.24 2.487.24 4.128 0 7.91-1.897 10.375-5.199a2.123 2.123 0 011.424-.832 2.117 2.117 0 011.585.449 13.006 13.006 0 008.429 2.868c-2.101-4.339-6.555-7.337-11.701-7.337-6.076.001-11.189 4.182-12.599 9.811zm160.048-18.063a2.106 2.106 0 01-2.107-2.104v-28.97l-143.341-1.592v29.877a2.105 2.105 0 01-4.211 0v-32.007c0-.563.225-1.101.625-1.498.4-.394.974-.566 1.505-.607l147.553 1.639a2.107 2.107 0 012.085 2.105v31.053a2.108 2.108 0 01-2.109 2.104z"/><path fill="#FFF" d="M151.611 187.391a2.106 2.106 0 01-2.107-2.106v-48.96c0-1.163.942-2.106 2.107-2.106s2.107.943 2.107 2.106v48.96a2.106 2.106 0 01-2.107 2.106z"/></svg>