<svg xmlns="http://www.w3.org/2000/svg" width="516" height="496"><path d="M511.8 409.08c0 .506-.093.986-.28 1.439a3.564 3.564 0 01-.779 1.181c-.334.333-.721.6-1.16.8s-.926.3-1.46.3c-.507 0-.986-.1-1.44-.3a3.863 3.863 0 01-1.18-.8c-.333-.334-.6-.728-.8-1.181s-.3-.934-.3-1.439c0-.534.1-1.021.3-1.46.2-.44.467-.827.8-1.16a3.578 3.578 0 011.18-.78 3.761 3.761 0 011.44-.279c1.04 0 1.913.354 2.62 1.06s1.059 1.579 1.059 2.619zm-29.399 0c0 .506-.093.986-.279 1.439s-.447.847-.78 1.181c-.333.333-.72.6-1.16.8s-.927.3-1.46.3c-.506 0-.986-.1-1.439-.3s-.847-.467-1.181-.8a3.85 3.85 0 01-.8-1.181 3.529 3.529 0 01-.301-1.439c0-.534.101-1.021.301-1.46.199-.44.467-.827.8-1.16a3.582 3.582 0 011.181-.78 3.756 3.756 0 011.439-.279c1.04 0 1.914.354 2.62 1.06s1.059 1.579 1.059 2.619zm-29.401 0c0 .506-.092.986-.279 1.439a3.58 3.58 0 01-.779 1.181c-.334.333-.721.6-1.16.8-.44.2-.927.3-1.461.3-.506 0-.986-.1-1.439-.3s-.846-.467-1.18-.8a3.853 3.853 0 01-.801-1.181 3.545 3.545 0 01-.3-1.439c0-.534.101-1.021.3-1.46.2-.44.467-.827.801-1.16a3.578 3.578 0 011.18-.78 3.756 3.756 0 011.439-.279c1.041 0 1.914.354 2.621 1.06.706.705 1.058 1.579 1.058 2.619zm-29.398 0c0 .506-.094.986-.28 1.439s-.446.847-.78 1.181c-.333.333-.72.6-1.16.8-.439.2-.926.3-1.459.3-.507 0-.986-.1-1.44-.3a3.868 3.868 0 01-1.181-.8 3.865 3.865 0 01-.799-1.181 3.513 3.513 0 01-.301-1.439c0-.534.1-1.021.301-1.46.199-.44.467-.827.799-1.16a3.582 3.582 0 011.181-.78 3.761 3.761 0 011.44-.279c1.039 0 1.913.354 2.619 1.06.706.705 1.06 1.579 1.06 2.619zm-29.401 0c0 .506-.092.986-.279 1.439a3.58 3.58 0 01-.779 1.181c-.334.333-.721.6-1.16.8-.44.2-.927.3-1.461.3-.506 0-.986-.1-1.439-.3s-.846-.467-1.18-.8a3.853 3.853 0 01-.801-1.181 3.545 3.545 0 01-.3-1.439c0-.534.101-1.021.3-1.46.2-.44.467-.827.801-1.16a3.578 3.578 0 011.18-.78 3.756 3.756 0 011.439-.279c1.041 0 1.914.354 2.621 1.06.706.705 1.058 1.579 1.058 2.619zm-29.399 0c0 .506-.093.986-.28 1.439a3.564 3.564 0 01-.779 1.181c-.334.333-.721.6-1.16.8s-.926.3-1.46.3c-.507 0-.986-.1-1.44-.3a3.863 3.863 0 01-1.18-.8c-.333-.334-.6-.728-.8-1.181s-.3-.934-.3-1.439c0-.534.1-1.021.3-1.46.2-.44.467-.827.8-1.16a3.578 3.578 0 011.18-.78 3.761 3.761 0 011.44-.279c1.04 0 1.913.354 2.62 1.06s1.059 1.579 1.059 2.619zm-29.399 0c0 .506-.093.986-.279 1.439s-.447.847-.78 1.181c-.333.333-.72.6-1.16.8s-.927.3-1.46.3c-.506 0-.986-.1-1.439-.3s-.847-.467-1.181-.8a3.85 3.85 0 01-.8-1.181 3.529 3.529 0 01-.301-1.439c0-.534.101-1.021.301-1.46.199-.44.467-.827.8-1.16a3.582 3.582 0 011.181-.78 3.756 3.756 0 011.439-.279c1.04 0 1.914.354 2.62 1.06s1.059 1.579 1.059 2.619zm-29.4 0c0 .506-.093.986-.28 1.439a3.564 3.564 0 01-.779 1.181c-.334.333-.721.6-1.16.8s-.926.3-1.46.3c-.507 0-.986-.1-1.44-.3a3.863 3.863 0 01-1.18-.8c-.333-.334-.6-.728-.8-1.181s-.3-.934-.3-1.439c0-.534.1-1.021.3-1.46.2-.44.467-.827.8-1.16a3.578 3.578 0 011.18-.78 3.761 3.761 0 011.44-.279c1.04 0 1.913.354 2.62 1.06s1.059 1.579 1.059 2.619zm-29.399 0c0 .506-.093.986-.279 1.439s-.447.847-.78 1.181c-.333.333-.72.6-1.16.8s-.927.3-1.46.3c-.506 0-.986-.1-1.439-.3s-.847-.467-1.181-.8a3.85 3.85 0 01-.8-1.181 3.529 3.529 0 01-.301-1.439c0-.534.101-1.021.301-1.46.199-.44.467-.827.8-1.16a3.582 3.582 0 011.181-.78 3.756 3.756 0 011.439-.279c1.04 0 1.914.354 2.62 1.06s1.059 1.579 1.059 2.619zm-29.4 0c0 .506-.093.986-.28 1.439a3.567 3.567 0 01-.78 1.181c-.333.333-.72.6-1.16.8s-.926.3-1.46.3c-.506 0-.986-.1-1.44-.3a3.863 3.863 0 01-1.18-.8 3.868 3.868 0 01-.8-1.181c-.2-.453-.3-.934-.3-1.439 0-.534.1-1.021.3-1.46.2-.44.467-.827.8-1.16a3.578 3.578 0 011.18-.78 3.761 3.761 0 011.44-.279c1.04 0 1.914.354 2.62 1.06s1.06 1.579 1.06 2.619zm-29.399 0c0 .506-.094.986-.28 1.439s-.446.847-.78 1.181c-.332.333-.721.6-1.16.8s-.926.3-1.459.3c-.508 0-.986-.1-1.441-.3a3.863 3.863 0 01-1.18-.8 3.865 3.865 0 01-.799-1.181 3.513 3.513 0 01-.301-1.439c0-.534.1-1.021.301-1.46.199-.44.467-.827.799-1.16a3.578 3.578 0 011.18-.78 3.766 3.766 0 011.441-.279c1.039 0 1.914.354 2.619 1.06.706.705 1.06 1.579 1.06 2.619zm-29.4 0c0 .506-.093.986-.28 1.439a3.564 3.564 0 01-.779 1.181c-.333.333-.721.6-1.16.8-.44.2-.927.3-1.46.3-.507 0-.986-.1-1.44-.3a3.863 3.863 0 01-1.18-.8c-.333-.334-.6-.728-.8-1.181s-.3-.934-.3-1.439c0-.534.1-1.021.3-1.46.2-.44.467-.827.8-1.16a3.578 3.578 0 011.18-.78 3.761 3.761 0 011.44-.279c1.04 0 1.914.354 2.62 1.06.706.705 1.059 1.579 1.059 2.619zm-29.4 0c0 .506-.093.986-.28 1.439a3.564 3.564 0 01-.779 1.181c-.333.333-.721.6-1.16.8-.44.2-.927.3-1.46.3-.507 0-.986-.1-1.44-.3a3.863 3.863 0 01-1.18-.8c-.333-.334-.6-.728-.8-1.181s-.3-.934-.3-1.439c0-.534.1-1.021.3-1.46.2-.44.467-.827.8-1.16a3.578 3.578 0 011.18-.78 3.761 3.761 0 011.44-.279c1.04 0 1.914.354 2.62 1.06.707.705 1.059 1.579 1.059 2.619zm-29.399 0c0 .506-.093.986-.28 1.439a3.564 3.564 0 01-.779 1.181c-.333.333-.721.6-1.16.8-.44.2-.927.3-1.46.3-.507 0-.986-.1-1.44-.3a3.863 3.863 0 01-1.18-.8c-.333-.334-.6-.728-.8-1.181s-.3-.934-.3-1.439c0-.534.1-1.021.3-1.46.2-.44.467-.827.8-1.16a3.578 3.578 0 011.18-.78 3.761 3.761 0 011.44-.279c1.04 0 1.914.354 2.62 1.06.706.705 1.059 1.579 1.059 2.619zm-29.4 0c0 .506-.093.986-.28 1.439a3.564 3.564 0 01-.779 1.181c-.333.333-.721.6-1.16.8-.44.2-.927.3-1.46.3-.507 0-.986-.1-1.44-.3a3.863 3.863 0 01-1.18-.8c-.333-.334-.6-.728-.8-1.181s-.3-.934-.3-1.439c0-.534.1-1.021.3-1.46.2-.44.467-.827.8-1.16a3.578 3.578 0 011.18-.78 3.761 3.761 0 011.44-.279c1.04 0 1.914.354 2.62 1.06.707.705 1.059 1.579 1.059 2.619zm-29.399 0c0 .506-.093.986-.28 1.439a3.564 3.564 0 01-.779 1.181c-.333.333-.721.6-1.16.8-.44.2-.927.3-1.46.3-.507 0-.986-.1-1.44-.3a3.863 3.863 0 01-1.18-.8c-.333-.334-.6-.728-.8-1.181s-.3-.934-.3-1.439c0-.534.1-1.021.3-1.46.2-.44.467-.827.8-1.16a3.578 3.578 0 011.18-.78 3.761 3.761 0 011.44-.279c1.04 0 1.914.354 2.62 1.06.706.705 1.059 1.579 1.059 2.619zm-29.4 0c0 .506-.093.986-.28 1.439a3.564 3.564 0 01-.779 1.181c-.333.333-.721.6-1.16.8-.44.2-.927.3-1.46.3-.507 0-.986-.1-1.44-.3a3.863 3.863 0 01-1.18-.8c-.333-.334-.6-.728-.8-1.181s-.3-.934-.3-1.439c0-.534.1-1.021.3-1.46.2-.44.467-.827.8-1.16a3.578 3.578 0 011.18-.78 3.761 3.761 0 011.44-.279c1.04 0 1.914.354 2.62 1.06.707.705 1.059 1.579 1.059 2.619zm-29.4 0c0 .506-.093.986-.28 1.439a3.564 3.564 0 01-.779 1.181c-.333.333-.721.6-1.16.8-.44.2-.927.3-1.46.3-.507 0-.986-.1-1.44-.3a3.863 3.863 0 01-1.18-.8c-.333-.334-.6-.728-.8-1.181s-.3-.934-.3-1.439c0-.534.1-1.021.3-1.46.2-.44.467-.827.8-1.16a3.578 3.578 0 011.18-.78 3.761 3.761 0 011.44-.279c1.04 0 1.914.354 2.62 1.06.707.705 1.059 1.579 1.059 2.619zm499.793 38.1c0 .506-.093.986-.28 1.439a3.564 3.564 0 01-.779 1.181c-.334.333-.721.6-1.16.8s-.926.3-1.46.3c-.507 0-.986-.1-1.44-.3a3.863 3.863 0 01-1.18-.8c-.333-.334-.6-.728-.8-1.181s-.3-.934-.3-1.439c0-.534.1-1.021.3-1.46.2-.44.467-.827.8-1.16a3.578 3.578 0 011.18-.78 3.761 3.761 0 011.44-.279c1.04 0 1.913.354 2.62 1.06s1.059 1.579 1.059 2.619zm-29.399 0c0 .506-.093.986-.279 1.439s-.447.847-.78 1.181c-.333.333-.72.6-1.16.8s-.927.3-1.46.3c-.506 0-.986-.1-1.439-.3s-.847-.467-1.181-.8a3.85 3.85 0 01-.8-1.181 3.529 3.529 0 01-.301-1.439c0-.534.101-1.021.301-1.46.199-.44.467-.827.8-1.16a3.582 3.582 0 011.181-.78 3.756 3.756 0 011.439-.279c1.04 0 1.914.354 2.62 1.06s1.059 1.579 1.059 2.619zm-29.401 0c0 .506-.092.986-.279 1.439a3.58 3.58 0 01-.779 1.181c-.334.333-.721.6-1.16.8-.44.2-.927.3-1.461.3-.506 0-.986-.1-1.439-.3s-.846-.467-1.18-.8a3.853 3.853 0 01-.801-1.181 3.545 3.545 0 01-.3-1.439c0-.534.101-1.021.3-1.46.2-.44.467-.827.801-1.16a3.578 3.578 0 011.18-.78 3.756 3.756 0 011.439-.279c1.041 0 1.914.354 2.621 1.06.706.705 1.058 1.579 1.058 2.619zm-29.398 0c0 .506-.094.986-.28 1.439s-.446.847-.78 1.181c-.333.333-.72.6-1.16.8-.439.2-.926.3-1.459.3-.507 0-.986-.1-1.44-.3a3.868 3.868 0 01-1.181-.8 3.865 3.865 0 01-.799-1.181 3.513 3.513 0 01-.301-1.439c0-.534.1-1.021.301-1.46.199-.44.467-.827.799-1.16a3.582 3.582 0 011.181-.78 3.761 3.761 0 011.44-.279c1.039 0 1.913.354 2.619 1.06.706.705 1.06 1.579 1.06 2.619zm-29.401 0c0 .506-.092.986-.279 1.439a3.58 3.58 0 01-.779 1.181c-.334.333-.721.6-1.16.8-.44.2-.927.3-1.461.3-.506 0-.986-.1-1.439-.3s-.846-.467-1.18-.8a3.853 3.853 0 01-.801-1.181 3.545 3.545 0 01-.3-1.439c0-.534.101-1.021.3-1.46.2-.44.467-.827.801-1.16a3.578 3.578 0 011.18-.78 3.756 3.756 0 011.439-.279c1.041 0 1.914.354 2.621 1.06.706.705 1.058 1.579 1.058 2.619zm-29.399 0c0 .506-.093.986-.28 1.439a3.564 3.564 0 01-.779 1.181c-.334.333-.721.6-1.16.8s-.926.3-1.46.3c-.507 0-.986-.1-1.44-.3a3.863 3.863 0 01-1.18-.8c-.333-.334-.6-.728-.8-1.181s-.3-.934-.3-1.439c0-.534.1-1.021.3-1.46.2-.44.467-.827.8-1.16a3.578 3.578 0 011.18-.78 3.761 3.761 0 011.44-.279c1.04 0 1.913.354 2.62 1.06s1.059 1.579 1.059 2.619zm-29.399 0c0 .506-.093.986-.279 1.439s-.447.847-.78 1.181c-.333.333-.72.6-1.16.8s-.927.3-1.46.3c-.506 0-.986-.1-1.439-.3s-.847-.467-1.181-.8a3.85 3.85 0 01-.8-1.181 3.529 3.529 0 01-.301-1.439c0-.534.101-1.021.301-1.46.199-.44.467-.827.8-1.16a3.582 3.582 0 011.181-.78 3.756 3.756 0 011.439-.279c1.04 0 1.914.354 2.62 1.06s1.059 1.579 1.059 2.619zm-29.4 0c0 .506-.093.986-.28 1.439a3.564 3.564 0 01-.779 1.181c-.334.333-.721.6-1.16.8s-.926.3-1.46.3c-.507 0-.986-.1-1.44-.3a3.863 3.863 0 01-1.18-.8c-.333-.334-.6-.728-.8-1.181s-.3-.934-.3-1.439c0-.534.1-1.021.3-1.46.2-.44.467-.827.8-1.16a3.578 3.578 0 011.18-.78 3.761 3.761 0 011.44-.279c1.04 0 1.913.354 2.62 1.06s1.059 1.579 1.059 2.619zm-29.399 0c0 .506-.093.986-.279 1.439s-.447.847-.78 1.181c-.333.333-.72.6-1.16.8s-.927.3-1.46.3c-.506 0-.986-.1-1.439-.3s-.847-.467-1.181-.8a3.85 3.85 0 01-.8-1.181 3.529 3.529 0 01-.301-1.439c0-.534.101-1.021.301-1.46.199-.44.467-.827.8-1.16a3.582 3.582 0 011.181-.78 3.756 3.756 0 011.439-.279c1.04 0 1.914.354 2.62 1.06s1.059 1.579 1.059 2.619zm-29.4 0c0 .506-.093.986-.28 1.439a3.567 3.567 0 01-.78 1.181c-.333.333-.72.6-1.16.8s-.926.3-1.46.3c-.506 0-.986-.1-1.44-.3a3.863 3.863 0 01-1.18-.8 3.868 3.868 0 01-.8-1.181c-.2-.453-.3-.934-.3-1.439 0-.534.1-1.021.3-1.46.2-.44.467-.827.8-1.16a3.578 3.578 0 011.18-.78 3.761 3.761 0 011.44-.279c1.04 0 1.914.354 2.62 1.06s1.06 1.579 1.06 2.619zm-29.399 0c0 .506-.094.986-.28 1.439s-.446.847-.78 1.181c-.332.333-.721.6-1.16.8s-.926.3-1.459.3c-.508 0-.986-.1-1.441-.3a3.863 3.863 0 01-1.18-.8 3.865 3.865 0 01-.799-1.181 3.513 3.513 0 01-.301-1.439c0-.534.1-1.021.301-1.46.199-.44.467-.827.799-1.16a3.578 3.578 0 011.18-.78 3.766 3.766 0 011.441-.279c1.039 0 1.914.354 2.619 1.06.706.705 1.06 1.579 1.06 2.619zm-29.4 0c0 .506-.093.986-.28 1.439a3.564 3.564 0 01-.779 1.181c-.333.333-.721.6-1.16.8-.44.2-.927.3-1.46.3-.507 0-.986-.1-1.44-.3a3.863 3.863 0 01-1.18-.8c-.333-.334-.6-.728-.8-1.181s-.3-.934-.3-1.439c0-.534.1-1.021.3-1.46.2-.44.467-.827.8-1.16a3.578 3.578 0 011.18-.78 3.761 3.761 0 011.44-.279c1.04 0 1.914.354 2.62 1.06.706.705 1.059 1.579 1.059 2.619zm-29.4 0c0 .506-.093.986-.28 1.439a3.564 3.564 0 01-.779 1.181c-.333.333-.721.6-1.16.8-.44.2-.927.3-1.46.3-.507 0-.986-.1-1.44-.3a3.863 3.863 0 01-1.18-.8c-.333-.334-.6-.728-.8-1.181s-.3-.934-.3-1.439c0-.534.1-1.021.3-1.46.2-.44.467-.827.8-1.16a3.578 3.578 0 011.18-.78 3.761 3.761 0 011.44-.279c1.04 0 1.914.354 2.62 1.06.707.705 1.059 1.579 1.059 2.619zm-29.399 0c0 .506-.093.986-.28 1.439a3.564 3.564 0 01-.779 1.181c-.333.333-.721.6-1.16.8-.44.2-.927.3-1.46.3-.507 0-.986-.1-1.44-.3a3.863 3.863 0 01-1.18-.8c-.333-.334-.6-.728-.8-1.181s-.3-.934-.3-1.439c0-.534.1-1.021.3-1.46.2-.44.467-.827.8-1.16a3.578 3.578 0 011.18-.78 3.761 3.761 0 011.44-.279c1.04 0 1.914.354 2.62 1.06.706.705 1.059 1.579 1.059 2.619zm-29.4 0c0 .506-.093.986-.28 1.439a3.564 3.564 0 01-.779 1.181c-.333.333-.721.6-1.16.8-.44.2-.927.3-1.46.3-.507 0-.986-.1-1.44-.3a3.863 3.863 0 01-1.18-.8c-.333-.334-.6-.728-.8-1.181s-.3-.934-.3-1.439c0-.534.1-1.021.3-1.46.2-.44.467-.827.8-1.16a3.578 3.578 0 011.18-.78 3.761 3.761 0 011.44-.279c1.04 0 1.914.354 2.62 1.06.707.705 1.059 1.579 1.059 2.619zm-29.399 0c0 .506-.093.986-.28 1.439a3.564 3.564 0 01-.779 1.181c-.333.333-.721.6-1.16.8-.44.2-.927.3-1.46.3-.507 0-.986-.1-1.44-.3a3.863 3.863 0 01-1.18-.8c-.333-.334-.6-.728-.8-1.181s-.3-.934-.3-1.439c0-.534.1-1.021.3-1.46.2-.44.467-.827.8-1.16a3.578 3.578 0 011.18-.78 3.761 3.761 0 011.44-.279c1.04 0 1.914.354 2.62 1.06.706.705 1.059 1.579 1.059 2.619zm-29.4 0c0 .506-.093.986-.28 1.439a3.564 3.564 0 01-.779 1.181c-.333.333-.721.6-1.16.8-.44.2-.927.3-1.46.3-.507 0-.986-.1-1.44-.3a3.863 3.863 0 01-1.18-.8c-.333-.334-.6-.728-.8-1.181s-.3-.934-.3-1.439c0-.534.1-1.021.3-1.46.2-.44.467-.827.8-1.16a3.578 3.578 0 011.18-.78 3.761 3.761 0 011.44-.279c1.04 0 1.914.354 2.62 1.06.707.705 1.059 1.579 1.059 2.619zm-29.4 0c0 .506-.093.986-.28 1.439a3.564 3.564 0 01-.779 1.181c-.333.333-.721.6-1.16.8-.44.2-.927.3-1.46.3-.507 0-.986-.1-1.44-.3a3.863 3.863 0 01-1.18-.8c-.333-.334-.6-.728-.8-1.181s-.3-.934-.3-1.439c0-.534.1-1.021.3-1.46.2-.44.467-.827.8-1.16a3.578 3.578 0 011.18-.78 3.761 3.761 0 011.44-.279c1.04 0 1.914.354 2.62 1.06.707.705 1.059 1.579 1.059 2.619zm499.793 33.7c0 .506-.093.986-.28 1.439a3.564 3.564 0 01-.779 1.181c-.334.333-.721.6-1.16.8s-.926.3-1.46.3c-.507 0-.986-.1-1.44-.3a3.863 3.863 0 01-1.18-.8c-.333-.334-.6-.728-.8-1.181s-.3-.934-.3-1.439c0-.534.1-1.021.3-1.46.2-.44.467-.827.8-1.16a3.578 3.578 0 011.18-.78 3.761 3.761 0 011.44-.279c1.04 0 1.913.354 2.62 1.06s1.059 1.579 1.059 2.619zm-29.399 0c0 .506-.093.986-.279 1.439s-.447.847-.78 1.181c-.333.333-.72.6-1.16.8s-.927.3-1.46.3c-.506 0-.986-.1-1.439-.3s-.847-.467-1.181-.8a3.85 3.85 0 01-.8-1.181 3.529 3.529 0 01-.301-1.439c0-.534.101-1.021.301-1.46.199-.44.467-.827.8-1.16a3.582 3.582 0 011.181-.78 3.756 3.756 0 011.439-.279c1.04 0 1.914.354 2.62 1.06s1.059 1.579 1.059 2.619zm-29.401 0c0 .506-.092.986-.279 1.439a3.58 3.58 0 01-.779 1.181c-.334.333-.721.6-1.16.8-.44.2-.927.3-1.461.3-.506 0-.986-.1-1.439-.3s-.846-.467-1.18-.8a3.853 3.853 0 01-.801-1.181 3.545 3.545 0 01-.3-1.439c0-.534.101-1.021.3-1.46.2-.44.467-.827.801-1.16a3.578 3.578 0 011.18-.78 3.756 3.756 0 011.439-.279c1.041 0 1.914.354 2.621 1.06.706.705 1.058 1.579 1.058 2.619zm-29.398 0c0 .506-.094.986-.28 1.439s-.446.847-.78 1.181c-.333.333-.72.6-1.16.8-.439.2-.926.3-1.459.3-.507 0-.986-.1-1.44-.3a3.868 3.868 0 01-1.181-.8 3.865 3.865 0 01-.799-1.181 3.513 3.513 0 01-.301-1.439c0-.534.1-1.021.301-1.46.199-.44.467-.827.799-1.16a3.582 3.582 0 011.181-.78 3.761 3.761 0 011.44-.279c1.039 0 1.913.354 2.619 1.06.706.705 1.06 1.579 1.06 2.619zm-29.401 0c0 .506-.092.986-.279 1.439a3.58 3.58 0 01-.779 1.181c-.334.333-.721.6-1.16.8-.44.2-.927.3-1.461.3-.506 0-.986-.1-1.439-.3s-.846-.467-1.18-.8a3.853 3.853 0 01-.801-1.181 3.545 3.545 0 01-.3-1.439c0-.534.101-1.021.3-1.46.2-.44.467-.827.801-1.16a3.578 3.578 0 011.18-.78 3.756 3.756 0 011.439-.279c1.041 0 1.914.354 2.621 1.06.706.705 1.058 1.579 1.058 2.619zm-29.399 0c0 .506-.093.986-.28 1.439a3.564 3.564 0 01-.779 1.181c-.334.333-.721.6-1.16.8s-.926.3-1.46.3c-.507 0-.986-.1-1.44-.3a3.863 3.863 0 01-1.18-.8c-.333-.334-.6-.728-.8-1.181s-.3-.934-.3-1.439c0-.534.1-1.021.3-1.46.2-.44.467-.827.8-1.16a3.578 3.578 0 011.18-.78 3.761 3.761 0 011.44-.279c1.04 0 1.913.354 2.62 1.06s1.059 1.579 1.059 2.619zm-29.399 0c0 .506-.093.986-.279 1.439s-.447.847-.78 1.181c-.333.333-.72.6-1.16.8s-.927.3-1.46.3c-.506 0-.986-.1-1.439-.3s-.847-.467-1.181-.8a3.85 3.85 0 01-.8-1.181 3.529 3.529 0 01-.301-1.439c0-.534.101-1.021.301-1.46.199-.44.467-.827.8-1.16a3.582 3.582 0 011.181-.78 3.756 3.756 0 011.439-.279c1.04 0 1.914.354 2.62 1.06s1.059 1.579 1.059 2.619zm-29.4 0c0 .506-.093.986-.28 1.439a3.564 3.564 0 01-.779 1.181c-.334.333-.721.6-1.16.8s-.926.3-1.46.3c-.507 0-.986-.1-1.44-.3a3.863 3.863 0 01-1.18-.8c-.333-.334-.6-.728-.8-1.181s-.3-.934-.3-1.439c0-.534.1-1.021.3-1.46.2-.44.467-.827.8-1.16a3.578 3.578 0 011.18-.78 3.761 3.761 0 011.44-.279c1.04 0 1.913.354 2.62 1.06s1.059 1.579 1.059 2.619zm-29.399 0c0 .506-.093.986-.279 1.439s-.447.847-.78 1.181c-.333.333-.72.6-1.16.8s-.927.3-1.46.3c-.506 0-.986-.1-1.439-.3s-.847-.467-1.181-.8a3.85 3.85 0 01-.8-1.181 3.529 3.529 0 01-.301-1.439c0-.534.101-1.021.301-1.46.199-.44.467-.827.8-1.16a3.582 3.582 0 011.181-.78 3.756 3.756 0 011.439-.279c1.04 0 1.914.354 2.62 1.06s1.059 1.579 1.059 2.619zm-29.4 0c0 .506-.093.986-.28 1.439a3.567 3.567 0 01-.78 1.181c-.333.333-.72.6-1.16.8s-.926.3-1.46.3c-.506 0-.986-.1-1.44-.3a3.863 3.863 0 01-1.18-.8 3.868 3.868 0 01-.8-1.181c-.2-.453-.3-.934-.3-1.439 0-.534.1-1.021.3-1.46.2-.44.467-.827.8-1.16a3.578 3.578 0 011.18-.78 3.761 3.761 0 011.44-.279c1.04 0 1.914.354 2.62 1.06s1.06 1.579 1.06 2.619zm-29.399 0c0 .506-.094.986-.28 1.439s-.446.847-.78 1.181c-.332.333-.721.6-1.16.8s-.926.3-1.459.3c-.508 0-.986-.1-1.441-.3a3.863 3.863 0 01-1.18-.8 3.865 3.865 0 01-.799-1.181 3.513 3.513 0 01-.301-1.439c0-.534.1-1.021.301-1.46.199-.44.467-.827.799-1.16a3.578 3.578 0 011.18-.78 3.766 3.766 0 011.441-.279c1.039 0 1.914.354 2.619 1.06.706.705 1.06 1.579 1.06 2.619zm-29.4 0c0 .506-.093.986-.28 1.439a3.564 3.564 0 01-.779 1.181c-.333.333-.721.6-1.16.8-.44.2-.927.3-1.46.3-.507 0-.986-.1-1.44-.3a3.863 3.863 0 01-1.18-.8c-.333-.334-.6-.728-.8-1.181s-.3-.934-.3-1.439c0-.534.1-1.021.3-1.46.2-.44.467-.827.8-1.16a3.578 3.578 0 011.18-.78 3.761 3.761 0 011.44-.279c1.04 0 1.914.354 2.62 1.06.706.705 1.059 1.579 1.059 2.619zm-29.4 0c0 .506-.093.986-.28 1.439a3.564 3.564 0 01-.779 1.181c-.333.333-.721.6-1.16.8-.44.2-.927.3-1.46.3-.507 0-.986-.1-1.44-.3a3.863 3.863 0 01-1.18-.8c-.333-.334-.6-.728-.8-1.181s-.3-.934-.3-1.439c0-.534.1-1.021.3-1.46.2-.44.467-.827.8-1.16a3.578 3.578 0 011.18-.78 3.761 3.761 0 011.44-.279c1.04 0 1.914.354 2.62 1.06.707.705 1.059 1.579 1.059 2.619zm-29.399 0c0 .506-.093.986-.28 1.439a3.564 3.564 0 01-.779 1.181c-.333.333-.721.6-1.16.8-.44.2-.927.3-1.46.3-.507 0-.986-.1-1.44-.3a3.863 3.863 0 01-1.18-.8c-.333-.334-.6-.728-.8-1.181s-.3-.934-.3-1.439c0-.534.1-1.021.3-1.46.2-.44.467-.827.8-1.16a3.578 3.578 0 011.18-.78 3.761 3.761 0 011.44-.279c1.04 0 1.914.354 2.62 1.06.706.705 1.059 1.579 1.059 2.619zm-29.4 0c0 .506-.093.986-.28 1.439a3.564 3.564 0 01-.779 1.181c-.333.333-.721.6-1.16.8-.44.2-.927.3-1.46.3-.507 0-.986-.1-1.44-.3a3.863 3.863 0 01-1.18-.8c-.333-.334-.6-.728-.8-1.181s-.3-.934-.3-1.439c0-.534.1-1.021.3-1.46.2-.44.467-.827.8-1.16a3.578 3.578 0 011.18-.78 3.761 3.761 0 011.44-.279c1.04 0 1.914.354 2.62 1.06.707.705 1.059 1.579 1.059 2.619zm-29.399 0c0 .506-.093.986-.28 1.439a3.564 3.564 0 01-.779 1.181c-.333.333-.721.6-1.16.8-.44.2-.927.3-1.46.3-.507 0-.986-.1-1.44-.3a3.863 3.863 0 01-1.18-.8c-.333-.334-.6-.728-.8-1.181s-.3-.934-.3-1.439c0-.534.1-1.021.3-1.46.2-.44.467-.827.8-1.16a3.578 3.578 0 011.18-.78 3.761 3.761 0 011.44-.279c1.04 0 1.914.354 2.62 1.06.706.705 1.059 1.579 1.059 2.619zm-29.4 0c0 .506-.093.986-.28 1.439a3.564 3.564 0 01-.779 1.181c-.333.333-.721.6-1.16.8-.44.2-.927.3-1.46.3-.507 0-.986-.1-1.44-.3a3.863 3.863 0 01-1.18-.8c-.333-.334-.6-.728-.8-1.181s-.3-.934-.3-1.439c0-.534.1-1.021.3-1.46.2-.44.467-.827.8-1.16a3.578 3.578 0 011.18-.78 3.761 3.761 0 011.44-.279c1.04 0 1.914.354 2.62 1.06.707.705 1.059 1.579 1.059 2.619zm-29.4 0c0 .506-.093.986-.28 1.439a3.564 3.564 0 01-.779 1.181c-.333.333-.721.6-1.16.8-.44.2-.927.3-1.46.3-.507 0-.986-.1-1.44-.3a3.863 3.863 0 01-1.18-.8c-.333-.334-.6-.728-.8-1.181s-.3-.934-.3-1.439c0-.534.1-1.021.3-1.46.2-.44.467-.827.8-1.16a3.578 3.578 0 011.18-.78 3.761 3.761 0 011.44-.279c1.04 0 1.914.354 2.62 1.06.707.705 1.059 1.579 1.059 2.619zM511.8 369.08c0 .506-.093.986-.28 1.439a3.564 3.564 0 01-.779 1.181c-.334.333-.721.6-1.16.8s-.926.3-1.46.3c-.507 0-.986-.1-1.44-.3a3.863 3.863 0 01-1.18-.8c-.333-.334-.6-.728-.8-1.181s-.3-.934-.3-1.439c0-.534.1-1.021.3-1.46.2-.44.467-.827.8-1.16a3.578 3.578 0 011.18-.78 3.761 3.761 0 011.44-.279c1.04 0 1.913.354 2.62 1.06s1.059 1.579 1.059 2.619zm-29.399 0c0 .506-.093.986-.279 1.439s-.447.847-.78 1.181c-.333.333-.72.6-1.16.8s-.927.3-1.46.3c-.506 0-.986-.1-1.439-.3s-.847-.467-1.181-.8a3.85 3.85 0 01-.8-1.181 3.529 3.529 0 01-.301-1.439c0-.534.101-1.021.301-1.46.199-.44.467-.827.8-1.16a3.582 3.582 0 011.181-.78 3.756 3.756 0 011.439-.279c1.04 0 1.914.354 2.62 1.06s1.059 1.579 1.059 2.619zm-29.401 0c0 .506-.092.986-.279 1.439a3.58 3.58 0 01-.779 1.181c-.334.333-.721.6-1.16.8-.44.2-.927.3-1.461.3-.506 0-.986-.1-1.439-.3s-.846-.467-1.18-.8a3.853 3.853 0 01-.801-1.181 3.545 3.545 0 01-.3-1.439c0-.534.101-1.021.3-1.46.2-.44.467-.827.801-1.16a3.578 3.578 0 011.18-.78 3.756 3.756 0 011.439-.279c1.041 0 1.914.354 2.621 1.06.706.705 1.058 1.579 1.058 2.619zm-29.398 0c0 .506-.094.986-.28 1.439s-.446.847-.78 1.181c-.333.333-.72.6-1.16.8-.439.2-.926.3-1.459.3-.507 0-.986-.1-1.44-.3a3.868 3.868 0 01-1.181-.8 3.865 3.865 0 01-.799-1.181 3.513 3.513 0 01-.301-1.439c0-.534.1-1.021.301-1.46.199-.44.467-.827.799-1.16a3.582 3.582 0 011.181-.78 3.761 3.761 0 011.44-.279c1.039 0 1.913.354 2.619 1.06.706.705 1.06 1.579 1.06 2.619zm-29.401 0c0 .506-.092.986-.279 1.439a3.58 3.58 0 01-.779 1.181c-.334.333-.721.6-1.16.8-.44.2-.927.3-1.461.3-.506 0-.986-.1-1.439-.3s-.846-.467-1.18-.8a3.853 3.853 0 01-.801-1.181 3.545 3.545 0 01-.3-1.439c0-.534.101-1.021.3-1.46.2-.44.467-.827.801-1.16a3.578 3.578 0 011.18-.78 3.756 3.756 0 011.439-.279c1.041 0 1.914.354 2.621 1.06.706.705 1.058 1.579 1.058 2.619zm-29.399 0c0 .506-.093.986-.28 1.439a3.564 3.564 0 01-.779 1.181c-.334.333-.721.6-1.16.8s-.926.3-1.46.3c-.507 0-.986-.1-1.44-.3a3.863 3.863 0 01-1.18-.8c-.333-.334-.6-.728-.8-1.181s-.3-.934-.3-1.439c0-.534.1-1.021.3-1.46.2-.44.467-.827.8-1.16a3.578 3.578 0 011.18-.78 3.761 3.761 0 011.44-.279c1.04 0 1.913.354 2.62 1.06s1.059 1.579 1.059 2.619zm-29.399 0c0 .506-.093.986-.279 1.439s-.447.847-.78 1.181c-.333.333-.72.6-1.16.8s-.927.3-1.46.3c-.506 0-.986-.1-1.439-.3s-.847-.467-1.181-.8a3.85 3.85 0 01-.8-1.181 3.529 3.529 0 01-.301-1.439c0-.534.101-1.021.301-1.46.199-.44.467-.827.8-1.16a3.582 3.582 0 011.181-.78 3.756 3.756 0 011.439-.279c1.04 0 1.914.354 2.62 1.06s1.059 1.579 1.059 2.619zm-29.4 0c0 .506-.093.986-.28 1.439a3.564 3.564 0 01-.779 1.181c-.334.333-.721.6-1.16.8s-.926.3-1.46.3c-.507 0-.986-.1-1.44-.3a3.863 3.863 0 01-1.18-.8c-.333-.334-.6-.728-.8-1.181s-.3-.934-.3-1.439c0-.534.1-1.021.3-1.46.2-.44.467-.827.8-1.16a3.578 3.578 0 011.18-.78 3.761 3.761 0 011.44-.279c1.04 0 1.913.354 2.62 1.06s1.059 1.579 1.059 2.619zm-29.399 0c0 .506-.093.986-.279 1.439s-.447.847-.78 1.181c-.333.333-.72.6-1.16.8s-.927.3-1.46.3c-.506 0-.986-.1-1.439-.3s-.847-.467-1.181-.8a3.85 3.85 0 01-.8-1.181 3.529 3.529 0 01-.301-1.439c0-.534.101-1.021.301-1.46.199-.44.467-.827.8-1.16a3.582 3.582 0 011.181-.78 3.756 3.756 0 011.439-.279c1.04 0 1.914.354 2.62 1.06s1.059 1.579 1.059 2.619zm-29.4 0c0 .506-.093.986-.28 1.439a3.567 3.567 0 01-.78 1.181c-.333.333-.72.6-1.16.8s-.926.3-1.46.3c-.506 0-.986-.1-1.44-.3a3.863 3.863 0 01-1.18-.8 3.868 3.868 0 01-.8-1.181c-.2-.453-.3-.934-.3-1.439 0-.534.1-1.021.3-1.46.2-.44.467-.827.8-1.16a3.578 3.578 0 011.18-.78 3.761 3.761 0 011.44-.279c1.04 0 1.914.354 2.62 1.06s1.06 1.579 1.06 2.619zm-29.399 0c0 .506-.094.986-.28 1.439s-.446.847-.78 1.181c-.332.333-.721.6-1.16.8s-.926.3-1.459.3c-.508 0-.986-.1-1.441-.3a3.863 3.863 0 01-1.18-.8 3.865 3.865 0 01-.799-1.181 3.513 3.513 0 01-.301-1.439c0-.534.1-1.021.301-1.46.199-.44.467-.827.799-1.16a3.578 3.578 0 011.18-.78 3.766 3.766 0 011.441-.279c1.039 0 1.914.354 2.619 1.06.706.705 1.06 1.579 1.06 2.619zm-29.4 0c0 .506-.093.986-.28 1.439a3.564 3.564 0 01-.779 1.181c-.333.333-.721.6-1.16.8-.44.2-.927.3-1.46.3-.507 0-.986-.1-1.44-.3a3.863 3.863 0 01-1.18-.8c-.333-.334-.6-.728-.8-1.181s-.3-.934-.3-1.439c0-.534.1-1.021.3-1.46.2-.44.467-.827.8-1.16a3.578 3.578 0 011.18-.78 3.761 3.761 0 011.44-.279c1.04 0 1.914.354 2.62 1.06.706.705 1.059 1.579 1.059 2.619zm-29.4 0c0 .506-.093.986-.28 1.439a3.564 3.564 0 01-.779 1.181c-.333.333-.721.6-1.16.8-.44.2-.927.3-1.46.3-.507 0-.986-.1-1.44-.3a3.863 3.863 0 01-1.18-.8c-.333-.334-.6-.728-.8-1.181s-.3-.934-.3-1.439c0-.534.1-1.021.3-1.46.2-.44.467-.827.8-1.16a3.578 3.578 0 011.18-.78 3.761 3.761 0 011.44-.279c1.04 0 1.914.354 2.62 1.06.707.705 1.059 1.579 1.059 2.619zm-29.399 0c0 .506-.093.986-.28 1.439a3.564 3.564 0 01-.779 1.181c-.333.333-.721.6-1.16.8-.44.2-.927.3-1.46.3-.507 0-.986-.1-1.44-.3a3.863 3.863 0 01-1.18-.8c-.333-.334-.6-.728-.8-1.181s-.3-.934-.3-1.439c0-.534.1-1.021.3-1.46.2-.44.467-.827.8-1.16a3.578 3.578 0 011.18-.78 3.761 3.761 0 011.44-.279c1.04 0 1.914.354 2.62 1.06.706.705 1.059 1.579 1.059 2.619zm-29.4 0c0 .506-.093.986-.28 1.439a3.564 3.564 0 01-.779 1.181c-.333.333-.721.6-1.16.8-.44.2-.927.3-1.46.3-.507 0-.986-.1-1.44-.3a3.863 3.863 0 01-1.18-.8c-.333-.334-.6-.728-.8-1.181s-.3-.934-.3-1.439c0-.534.1-1.021.3-1.46.2-.44.467-.827.8-1.16a3.578 3.578 0 011.18-.78 3.761 3.761 0 011.44-.279c1.04 0 1.914.354 2.62 1.06.707.705 1.059 1.579 1.059 2.619zm-29.399 0c0 .506-.093.986-.28 1.439a3.564 3.564 0 01-.779 1.181c-.333.333-.721.6-1.16.8-.44.2-.927.3-1.46.3-.507 0-.986-.1-1.44-.3a3.863 3.863 0 01-1.18-.8c-.333-.334-.6-.728-.8-1.181s-.3-.934-.3-1.439c0-.534.1-1.021.3-1.46.2-.44.467-.827.8-1.16a3.578 3.578 0 011.18-.78 3.761 3.761 0 011.44-.279c1.04 0 1.914.354 2.62 1.06.706.705 1.059 1.579 1.059 2.619zm-29.4 0c0 .506-.093.986-.28 1.439a3.564 3.564 0 01-.779 1.181c-.333.333-.721.6-1.16.8-.44.2-.927.3-1.46.3-.507 0-.986-.1-1.44-.3a3.863 3.863 0 01-1.18-.8c-.333-.334-.6-.728-.8-1.181s-.3-.934-.3-1.439c0-.534.1-1.021.3-1.46.2-.44.467-.827.8-1.16a3.578 3.578 0 011.18-.78 3.761 3.761 0 011.44-.279c1.04 0 1.914.354 2.62 1.06.707.705 1.059 1.579 1.059 2.619zm-29.4 0c0 .506-.093.986-.28 1.439a3.564 3.564 0 01-.779 1.181c-.333.333-.721.6-1.16.8-.44.2-.927.3-1.46.3-.507 0-.986-.1-1.44-.3a3.863 3.863 0 01-1.18-.8c-.333-.334-.6-.728-.8-1.181s-.3-.934-.3-1.439c0-.534.1-1.021.3-1.46.2-.44.467-.827.8-1.16a3.578 3.578 0 011.18-.78 3.761 3.761 0 011.44-.279c1.04 0 1.914.354 2.62 1.06.707.705 1.059 1.579 1.059 2.619zm499.793-40c0 .506-.093.986-.28 1.439a3.564 3.564 0 01-.779 1.181c-.334.333-.721.6-1.16.8s-.926.3-1.46.3c-.507 0-.986-.1-1.44-.3a3.863 3.863 0 01-1.18-.8c-.333-.334-.6-.728-.8-1.181s-.3-.934-.3-1.439c0-.534.1-1.021.3-1.46.2-.44.467-.827.8-1.16a3.578 3.578 0 011.18-.78 3.761 3.761 0 011.44-.279c1.04 0 1.913.354 2.62 1.06s1.059 1.579 1.059 2.619zm-29.399 0c0 .506-.093.986-.279 1.439s-.447.847-.78 1.181c-.333.333-.72.6-1.16.8s-.927.3-1.46.3c-.506 0-.986-.1-1.439-.3s-.847-.467-1.181-.8a3.85 3.85 0 01-.8-1.181 3.529 3.529 0 01-.301-1.439c0-.534.101-1.021.301-1.46.199-.44.467-.827.8-1.16a3.582 3.582 0 011.181-.78 3.756 3.756 0 011.439-.279c1.04 0 1.914.354 2.62 1.06s1.059 1.579 1.059 2.619zm-29.401 0c0 .506-.092.986-.279 1.439a3.58 3.58 0 01-.779 1.181c-.334.333-.721.6-1.16.8-.44.2-.927.3-1.461.3-.506 0-.986-.1-1.439-.3s-.846-.467-1.18-.8a3.853 3.853 0 01-.801-1.181 3.545 3.545 0 01-.3-1.439c0-.534.101-1.021.3-1.46.2-.44.467-.827.801-1.16a3.578 3.578 0 011.18-.78 3.756 3.756 0 011.439-.279c1.041 0 1.914.354 2.621 1.06.706.705 1.058 1.579 1.058 2.619zm-29.398 0c0 .506-.094.986-.28 1.439s-.446.847-.78 1.181c-.333.333-.72.6-1.16.8-.439.2-.926.3-1.459.3-.507 0-.986-.1-1.44-.3a3.868 3.868 0 01-1.181-.8 3.865 3.865 0 01-.799-1.181 3.513 3.513 0 01-.301-1.439c0-.534.1-1.021.301-1.46.199-.44.467-.827.799-1.16a3.582 3.582 0 011.181-.78 3.761 3.761 0 011.44-.279c1.039 0 1.913.354 2.619 1.06.706.705 1.06 1.579 1.06 2.619zm-29.401 0c0 .506-.092.986-.279 1.439a3.58 3.58 0 01-.779 1.181c-.334.333-.721.6-1.16.8-.44.2-.927.3-1.461.3-.506 0-.986-.1-1.439-.3s-.846-.467-1.18-.8a3.853 3.853 0 01-.801-1.181 3.545 3.545 0 01-.3-1.439c0-.534.101-1.021.3-1.46.2-.44.467-.827.801-1.16a3.578 3.578 0 011.18-.78 3.756 3.756 0 011.439-.279c1.041 0 1.914.354 2.621 1.06.706.705 1.058 1.579 1.058 2.619zm-29.399 0c0 .506-.093.986-.28 1.439a3.564 3.564 0 01-.779 1.181c-.334.333-.721.6-1.16.8s-.926.3-1.46.3c-.507 0-.986-.1-1.44-.3a3.863 3.863 0 01-1.18-.8c-.333-.334-.6-.728-.8-1.181s-.3-.934-.3-1.439c0-.534.1-1.021.3-1.46.2-.44.467-.827.8-1.16a3.578 3.578 0 011.18-.78 3.761 3.761 0 011.44-.279c1.04 0 1.913.354 2.62 1.06s1.059 1.579 1.059 2.619zm-29.399 0c0 .506-.093.986-.279 1.439s-.447.847-.78 1.181c-.333.333-.72.6-1.16.8s-.927.3-1.46.3c-.506 0-.986-.1-1.439-.3s-.847-.467-1.181-.8a3.85 3.85 0 01-.8-1.181 3.529 3.529 0 01-.301-1.439c0-.534.101-1.021.301-1.46.199-.44.467-.827.8-1.16a3.582 3.582 0 011.181-.78 3.756 3.756 0 011.439-.279c1.04 0 1.914.354 2.62 1.06s1.059 1.579 1.059 2.619zm-29.4 0c0 .506-.093.986-.28 1.439a3.564 3.564 0 01-.779 1.181c-.334.333-.721.6-1.16.8s-.926.3-1.46.3c-.507 0-.986-.1-1.44-.3a3.863 3.863 0 01-1.18-.8c-.333-.334-.6-.728-.8-1.181s-.3-.934-.3-1.439c0-.534.1-1.021.3-1.46.2-.44.467-.827.8-1.16a3.578 3.578 0 011.18-.78 3.761 3.761 0 011.44-.279c1.04 0 1.913.354 2.62 1.06s1.059 1.579 1.059 2.619zm-29.399 0c0 .506-.093.986-.279 1.439s-.447.847-.78 1.181c-.333.333-.72.6-1.16.8s-.927.3-1.46.3c-.506 0-.986-.1-1.439-.3s-.847-.467-1.181-.8a3.85 3.85 0 01-.8-1.181 3.529 3.529 0 01-.301-1.439c0-.534.101-1.021.301-1.46.199-.44.467-.827.8-1.16a3.582 3.582 0 011.181-.78 3.756 3.756 0 011.439-.279c1.04 0 1.914.354 2.62 1.06s1.059 1.579 1.059 2.619zm-29.4 0c0 .506-.093.986-.28 1.439a3.567 3.567 0 01-.78 1.181c-.333.333-.72.6-1.16.8s-.926.3-1.46.3c-.506 0-.986-.1-1.44-.3a3.863 3.863 0 01-1.18-.8 3.868 3.868 0 01-.8-1.181c-.2-.453-.3-.934-.3-1.439 0-.534.1-1.021.3-1.46.2-.44.467-.827.8-1.16a3.578 3.578 0 011.18-.78 3.761 3.761 0 011.44-.279c1.04 0 1.914.354 2.62 1.06s1.06 1.579 1.06 2.619zm-29.399 0c0 .506-.094.986-.28 1.439s-.446.847-.78 1.181c-.332.333-.721.6-1.16.8s-.926.3-1.459.3c-.508 0-.986-.1-1.441-.3a3.863 3.863 0 01-1.18-.8 3.865 3.865 0 01-.799-1.181 3.513 3.513 0 01-.301-1.439c0-.534.1-1.021.301-1.46.199-.44.467-.827.799-1.16a3.578 3.578 0 011.18-.78 3.766 3.766 0 011.441-.279c1.039 0 1.914.354 2.619 1.06.706.705 1.06 1.579 1.06 2.619zm-29.4 0c0 .506-.093.986-.28 1.439a3.564 3.564 0 01-.779 1.181c-.333.333-.721.6-1.16.8-.44.2-.927.3-1.46.3-.507 0-.986-.1-1.44-.3a3.863 3.863 0 01-1.18-.8c-.333-.334-.6-.728-.8-1.181s-.3-.934-.3-1.439c0-.534.1-1.021.3-1.46.2-.44.467-.827.8-1.16a3.578 3.578 0 011.18-.78 3.761 3.761 0 011.44-.279c1.04 0 1.914.354 2.62 1.06.706.705 1.059 1.579 1.059 2.619zm-29.4 0c0 .506-.093.986-.28 1.439a3.564 3.564 0 01-.779 1.181c-.333.333-.721.6-1.16.8-.44.2-.927.3-1.46.3-.507 0-.986-.1-1.44-.3a3.863 3.863 0 01-1.18-.8c-.333-.334-.6-.728-.8-1.181s-.3-.934-.3-1.439c0-.534.1-1.021.3-1.46.2-.44.467-.827.8-1.16a3.578 3.578 0 011.18-.78 3.761 3.761 0 011.44-.279c1.04 0 1.914.354 2.62 1.06.707.705 1.059 1.579 1.059 2.619zm-29.399 0c0 .506-.093.986-.28 1.439a3.564 3.564 0 01-.779 1.181c-.333.333-.721.6-1.16.8-.44.2-.927.3-1.46.3-.507 0-.986-.1-1.44-.3a3.863 3.863 0 01-1.18-.8c-.333-.334-.6-.728-.8-1.181s-.3-.934-.3-1.439c0-.534.1-1.021.3-1.46.2-.44.467-.827.8-1.16a3.578 3.578 0 011.18-.78 3.761 3.761 0 011.44-.279c1.04 0 1.914.354 2.62 1.06.706.705 1.059 1.579 1.059 2.619zm-29.4 0c0 .506-.093.986-.28 1.439a3.564 3.564 0 01-.779 1.181c-.333.333-.721.6-1.16.8-.44.2-.927.3-1.46.3-.507 0-.986-.1-1.44-.3a3.863 3.863 0 01-1.18-.8c-.333-.334-.6-.728-.8-1.181s-.3-.934-.3-1.439c0-.534.1-1.021.3-1.46.2-.44.467-.827.8-1.16a3.578 3.578 0 011.18-.78 3.761 3.761 0 011.44-.279c1.04 0 1.914.354 2.62 1.06.707.705 1.059 1.579 1.059 2.619zm-29.399 0c0 .506-.093.986-.28 1.439a3.564 3.564 0 01-.779 1.181c-.333.333-.721.6-1.16.8-.44.2-.927.3-1.46.3-.507 0-.986-.1-1.44-.3a3.863 3.863 0 01-1.18-.8c-.333-.334-.6-.728-.8-1.181s-.3-.934-.3-1.439c0-.534.1-1.021.3-1.46.2-.44.467-.827.8-1.16a3.578 3.578 0 011.18-.78 3.761 3.761 0 011.44-.279c1.04 0 1.914.354 2.62 1.06.706.705 1.059 1.579 1.059 2.619zm-29.4 0c0 .506-.093.986-.28 1.439a3.564 3.564 0 01-.779 1.181c-.333.333-.721.6-1.16.8-.44.2-.927.3-1.46.3-.507 0-.986-.1-1.44-.3a3.863 3.863 0 01-1.18-.8c-.333-.334-.6-.728-.8-1.181s-.3-.934-.3-1.439c0-.534.1-1.021.3-1.46.2-.44.467-.827.8-1.16a3.578 3.578 0 011.18-.78 3.761 3.761 0 011.44-.279c1.04 0 1.914.354 2.62 1.06.707.705 1.059 1.579 1.059 2.619zm-29.4 0c0 .506-.093.986-.28 1.439a3.564 3.564 0 01-.779 1.181c-.333.333-.721.6-1.16.8-.44.2-.927.3-1.46.3-.507 0-.986-.1-1.44-.3a3.863 3.863 0 01-1.18-.8c-.333-.334-.6-.728-.8-1.181s-.3-.934-.3-1.439c0-.534.1-1.021.3-1.46.2-.44.467-.827.8-1.16a3.578 3.578 0 011.18-.78 3.761 3.761 0 011.44-.279c1.04 0 1.914.354 2.62 1.06.707.705 1.059 1.579 1.059 2.619zm499.793-40c0 .506-.093.986-.28 1.439a3.564 3.564 0 01-.779 1.181c-.334.333-.721.6-1.16.8s-.926.3-1.46.3c-.507 0-.986-.1-1.44-.3a3.863 3.863 0 01-1.18-.8c-.333-.334-.6-.728-.8-1.181s-.3-.934-.3-1.439c0-.534.1-1.021.3-1.46.2-.44.467-.827.8-1.16a3.578 3.578 0 011.18-.78 3.761 3.761 0 011.44-.279c1.04 0 1.913.354 2.62 1.06s1.059 1.579 1.059 2.619zm-29.399 0c0 .506-.093.986-.279 1.439s-.447.847-.78 1.181c-.333.333-.72.6-1.16.8s-.927.3-1.46.3c-.506 0-.986-.1-1.439-.3s-.847-.467-1.181-.8a3.85 3.85 0 01-.8-1.181 3.529 3.529 0 01-.301-1.439c0-.534.101-1.021.301-1.46.199-.44.467-.827.8-1.16a3.582 3.582 0 011.181-.78 3.756 3.756 0 011.439-.279c1.04 0 1.914.354 2.62 1.06s1.059 1.579 1.059 2.619zm-29.401 0c0 .506-.092.986-.279 1.439a3.58 3.58 0 01-.779 1.181c-.334.333-.721.6-1.16.8-.44.2-.927.3-1.461.3-.506 0-.986-.1-1.439-.3s-.846-.467-1.18-.8a3.853 3.853 0 01-.801-1.181 3.545 3.545 0 01-.3-1.439c0-.534.101-1.021.3-1.46.2-.44.467-.827.801-1.16a3.578 3.578 0 011.18-.78 3.756 3.756 0 011.439-.279c1.041 0 1.914.354 2.621 1.06.706.705 1.058 1.579 1.058 2.619zm-29.398 0c0 .506-.094.986-.28 1.439s-.446.847-.78 1.181c-.333.333-.72.6-1.16.8-.439.2-.926.3-1.459.3-.507 0-.986-.1-1.44-.3a3.868 3.868 0 01-1.181-.8 3.865 3.865 0 01-.799-1.181 3.513 3.513 0 01-.301-1.439c0-.534.1-1.021.301-1.46.199-.44.467-.827.799-1.16a3.582 3.582 0 011.181-.78 3.761 3.761 0 011.44-.279c1.039 0 1.913.354 2.619 1.06.706.705 1.06 1.579 1.06 2.619zm-29.401 0c0 .506-.092.986-.279 1.439a3.58 3.58 0 01-.779 1.181c-.334.333-.721.6-1.16.8-.44.2-.927.3-1.461.3-.506 0-.986-.1-1.439-.3s-.846-.467-1.18-.8a3.853 3.853 0 01-.801-1.181 3.545 3.545 0 01-.3-1.439c0-.534.101-1.021.3-1.46.2-.44.467-.827.801-1.16a3.578 3.578 0 011.18-.78 3.756 3.756 0 011.439-.279c1.041 0 1.914.354 2.621 1.06.706.705 1.058 1.579 1.058 2.619zm-29.399 0c0 .506-.093.986-.28 1.439a3.564 3.564 0 01-.779 1.181c-.334.333-.721.6-1.16.8s-.926.3-1.46.3c-.507 0-.986-.1-1.44-.3a3.863 3.863 0 01-1.18-.8c-.333-.334-.6-.728-.8-1.181s-.3-.934-.3-1.439c0-.534.1-1.021.3-1.46.2-.44.467-.827.8-1.16a3.578 3.578 0 011.18-.78 3.761 3.761 0 011.44-.279c1.04 0 1.913.354 2.62 1.06s1.059 1.579 1.059 2.619zm-29.399 0c0 .506-.093.986-.279 1.439s-.447.847-.78 1.181c-.333.333-.72.6-1.16.8s-.927.3-1.46.3c-.506 0-.986-.1-1.439-.3s-.847-.467-1.181-.8a3.85 3.85 0 01-.8-1.181 3.529 3.529 0 01-.301-1.439c0-.534.101-1.021.301-1.46.199-.44.467-.827.8-1.16a3.582 3.582 0 011.181-.78 3.756 3.756 0 011.439-.279c1.04 0 1.914.354 2.62 1.06s1.059 1.579 1.059 2.619zm-29.4 0c0 .506-.093.986-.28 1.439a3.564 3.564 0 01-.779 1.181c-.334.333-.721.6-1.16.8s-.926.3-1.46.3c-.507 0-.986-.1-1.44-.3a3.863 3.863 0 01-1.18-.8c-.333-.334-.6-.728-.8-1.181s-.3-.934-.3-1.439c0-.534.1-1.021.3-1.46.2-.44.467-.827.8-1.16a3.578 3.578 0 011.18-.78 3.761 3.761 0 011.44-.279c1.04 0 1.913.354 2.62 1.06s1.059 1.579 1.059 2.619zm-29.399 0c0 .506-.093.986-.279 1.439s-.447.847-.78 1.181c-.333.333-.72.6-1.16.8s-.927.3-1.46.3c-.506 0-.986-.1-1.439-.3s-.847-.467-1.181-.8a3.85 3.85 0 01-.8-1.181 3.529 3.529 0 01-.301-1.439c0-.534.101-1.021.301-1.46.199-.44.467-.827.8-1.16a3.582 3.582 0 011.181-.78 3.756 3.756 0 011.439-.279c1.04 0 1.914.354 2.62 1.06s1.059 1.579 1.059 2.619zm-29.4 0c0 .506-.093.986-.28 1.439a3.567 3.567 0 01-.78 1.181c-.333.333-.72.6-1.16.8s-.926.3-1.46.3c-.506 0-.986-.1-1.44-.3a3.863 3.863 0 01-1.18-.8 3.868 3.868 0 01-.8-1.181c-.2-.453-.3-.934-.3-1.439 0-.534.1-1.021.3-1.46.2-.44.467-.827.8-1.16a3.578 3.578 0 011.18-.78 3.761 3.761 0 011.44-.279c1.04 0 1.914.354 2.62 1.06s1.06 1.579 1.06 2.619zm-29.399 0c0 .506-.094.986-.28 1.439s-.446.847-.78 1.181c-.332.333-.721.6-1.16.8s-.926.3-1.459.3c-.508 0-.986-.1-1.441-.3a3.863 3.863 0 01-1.18-.8 3.865 3.865 0 01-.799-1.181 3.513 3.513 0 01-.301-1.439c0-.534.1-1.021.301-1.46.199-.44.467-.827.799-1.16a3.578 3.578 0 011.18-.78 3.766 3.766 0 011.441-.279c1.039 0 1.914.354 2.619 1.06.706.705 1.06 1.579 1.06 2.619zm-29.4 0c0 .506-.093.986-.28 1.439a3.564 3.564 0 01-.779 1.181c-.333.333-.721.6-1.16.8-.44.2-.927.3-1.46.3-.507 0-.986-.1-1.44-.3a3.863 3.863 0 01-1.18-.8c-.333-.334-.6-.728-.8-1.181s-.3-.934-.3-1.439c0-.534.1-1.021.3-1.46.2-.44.467-.827.8-1.16a3.578 3.578 0 011.18-.78 3.761 3.761 0 011.44-.279c1.04 0 1.914.354 2.62 1.06.706.705 1.059 1.579 1.059 2.619zm-29.4 0c0 .506-.093.986-.28 1.439a3.564 3.564 0 01-.779 1.181c-.333.333-.721.6-1.16.8-.44.2-.927.3-1.46.3-.507 0-.986-.1-1.44-.3a3.863 3.863 0 01-1.18-.8c-.333-.334-.6-.728-.8-1.181s-.3-.934-.3-1.439c0-.534.1-1.021.3-1.46.2-.44.467-.827.8-1.16a3.578 3.578 0 011.18-.78 3.761 3.761 0 011.44-.279c1.04 0 1.914.354 2.62 1.06.707.705 1.059 1.579 1.059 2.619zm-29.399 0c0 .506-.093.986-.28 1.439a3.564 3.564 0 01-.779 1.181c-.333.333-.721.6-1.16.8-.44.2-.927.3-1.46.3-.507 0-.986-.1-1.44-.3a3.863 3.863 0 01-1.18-.8c-.333-.334-.6-.728-.8-1.181s-.3-.934-.3-1.439c0-.534.1-1.021.3-1.46.2-.44.467-.827.8-1.16a3.578 3.578 0 011.18-.78 3.761 3.761 0 011.44-.279c1.04 0 1.914.354 2.62 1.06.706.705 1.059 1.579 1.059 2.619zm-29.4 0c0 .506-.093.986-.28 1.439a3.564 3.564 0 01-.779 1.181c-.333.333-.721.6-1.16.8-.44.2-.927.3-1.46.3-.507 0-.986-.1-1.44-.3a3.863 3.863 0 01-1.18-.8c-.333-.334-.6-.728-.8-1.181s-.3-.934-.3-1.439c0-.534.1-1.021.3-1.46.2-.44.467-.827.8-1.16a3.578 3.578 0 011.18-.78 3.761 3.761 0 011.44-.279c1.04 0 1.914.354 2.62 1.06.707.705 1.059 1.579 1.059 2.619zm-29.399 0c0 .506-.093.986-.28 1.439a3.564 3.564 0 01-.779 1.181c-.333.333-.721.6-1.16.8-.44.2-.927.3-1.46.3-.507 0-.986-.1-1.44-.3a3.863 3.863 0 01-1.18-.8c-.333-.334-.6-.728-.8-1.181s-.3-.934-.3-1.439c0-.534.1-1.021.3-1.46.2-.44.467-.827.8-1.16a3.578 3.578 0 011.18-.78 3.761 3.761 0 011.44-.279c1.04 0 1.914.354 2.62 1.06.706.705 1.059 1.579 1.059 2.619zm-29.4 0c0 .506-.093.986-.28 1.439a3.564 3.564 0 01-.779 1.181c-.333.333-.721.6-1.16.8-.44.2-.927.3-1.46.3-.507 0-.986-.1-1.44-.3a3.863 3.863 0 01-1.18-.8c-.333-.334-.6-.728-.8-1.181s-.3-.934-.3-1.439c0-.534.1-1.021.3-1.46.2-.44.467-.827.8-1.16a3.578 3.578 0 011.18-.78 3.761 3.761 0 011.44-.279c1.04 0 1.914.354 2.62 1.06.707.705 1.059 1.579 1.059 2.619zm-29.4 0c0 .506-.093.986-.28 1.439a3.564 3.564 0 01-.779 1.181c-.333.333-.721.6-1.16.8-.44.2-.927.3-1.46.3-.507 0-.986-.1-1.44-.3a3.863 3.863 0 01-1.18-.8c-.333-.334-.6-.728-.8-1.181s-.3-.934-.3-1.439c0-.534.1-1.021.3-1.46.2-.44.467-.827.8-1.16a3.578 3.578 0 011.18-.78 3.761 3.761 0 011.44-.279c1.04 0 1.914.354 2.62 1.06.707.705 1.059 1.579 1.059 2.619zm499.793-40c0 .506-.093.986-.28 1.439a3.564 3.564 0 01-.779 1.181c-.334.333-.721.6-1.16.8s-.926.3-1.46.3c-.507 0-.986-.1-1.44-.3a3.863 3.863 0 01-1.18-.8c-.333-.334-.6-.728-.8-1.181s-.3-.934-.3-1.439c0-.534.1-1.021.3-1.46.2-.44.467-.827.8-1.16a3.578 3.578 0 011.18-.78 3.761 3.761 0 011.44-.279c1.04 0 1.913.354 2.62 1.06s1.059 1.579 1.059 2.619zm-29.399 0c0 .506-.093.986-.279 1.439s-.447.847-.78 1.181c-.333.333-.72.6-1.16.8s-.927.3-1.46.3c-.506 0-.986-.1-1.439-.3s-.847-.467-1.181-.8a3.85 3.85 0 01-.8-1.181 3.529 3.529 0 01-.301-1.439c0-.534.101-1.021.301-1.46.199-.44.467-.827.8-1.16a3.582 3.582 0 011.181-.78 3.756 3.756 0 011.439-.279c1.04 0 1.914.354 2.62 1.06s1.059 1.579 1.059 2.619zm-29.401 0c0 .506-.092.986-.279 1.439a3.58 3.58 0 01-.779 1.181c-.334.333-.721.6-1.16.8-.44.2-.927.3-1.461.3-.506 0-.986-.1-1.439-.3s-.846-.467-1.18-.8a3.853 3.853 0 01-.801-1.181 3.545 3.545 0 01-.3-1.439c0-.534.101-1.021.3-1.46.2-.44.467-.827.801-1.16a3.578 3.578 0 011.18-.78 3.756 3.756 0 011.439-.279c1.041 0 1.914.354 2.621 1.06.706.705 1.058 1.579 1.058 2.619zm-29.398 0c0 .506-.094.986-.28 1.439s-.446.847-.78 1.181c-.333.333-.72.6-1.16.8-.439.2-.926.3-1.459.3-.507 0-.986-.1-1.44-.3a3.868 3.868 0 01-1.181-.8 3.865 3.865 0 01-.799-1.181 3.513 3.513 0 01-.301-1.439c0-.534.1-1.021.301-1.46.199-.44.467-.827.799-1.16a3.582 3.582 0 011.181-.78 3.761 3.761 0 011.44-.279c1.039 0 1.913.354 2.619 1.06.706.705 1.06 1.579 1.06 2.619zm-29.401 0c0 .506-.092.986-.279 1.439a3.58 3.58 0 01-.779 1.181c-.334.333-.721.6-1.16.8-.44.2-.927.3-1.461.3-.506 0-.986-.1-1.439-.3s-.846-.467-1.18-.8a3.853 3.853 0 01-.801-1.181 3.545 3.545 0 01-.3-1.439c0-.534.101-1.021.3-1.46.2-.44.467-.827.801-1.16a3.578 3.578 0 011.18-.78 3.756 3.756 0 011.439-.279c1.041 0 1.914.354 2.621 1.06.706.705 1.058 1.579 1.058 2.619zm-29.399 0c0 .506-.093.986-.28 1.439a3.564 3.564 0 01-.779 1.181c-.334.333-.721.6-1.16.8s-.926.3-1.46.3c-.507 0-.986-.1-1.44-.3a3.863 3.863 0 01-1.18-.8c-.333-.334-.6-.728-.8-1.181s-.3-.934-.3-1.439c0-.534.1-1.021.3-1.46.2-.44.467-.827.8-1.16a3.578 3.578 0 011.18-.78 3.761 3.761 0 011.44-.279c1.04 0 1.913.354 2.62 1.06s1.059 1.579 1.059 2.619zm-29.399 0c0 .506-.093.986-.279 1.439s-.447.847-.78 1.181c-.333.333-.72.6-1.16.8s-.927.3-1.46.3c-.506 0-.986-.1-1.439-.3s-.847-.467-1.181-.8a3.85 3.85 0 01-.8-1.181 3.529 3.529 0 01-.301-1.439c0-.534.101-1.021.301-1.46.199-.44.467-.827.8-1.16a3.582 3.582 0 011.181-.78 3.756 3.756 0 011.439-.279c1.04 0 1.914.354 2.62 1.06s1.059 1.579 1.059 2.619zm-29.4 0c0 .506-.093.986-.28 1.439a3.564 3.564 0 01-.779 1.181c-.334.333-.721.6-1.16.8s-.926.3-1.46.3c-.507 0-.986-.1-1.44-.3a3.863 3.863 0 01-1.18-.8c-.333-.334-.6-.728-.8-1.181s-.3-.934-.3-1.439c0-.534.1-1.021.3-1.46.2-.44.467-.827.8-1.16a3.578 3.578 0 011.18-.78 3.761 3.761 0 011.44-.279c1.04 0 1.913.354 2.62 1.06s1.059 1.579 1.059 2.619zm-29.399 0c0 .506-.093.986-.279 1.439s-.447.847-.78 1.181c-.333.333-.72.6-1.16.8s-.927.3-1.46.3c-.506 0-.986-.1-1.439-.3s-.847-.467-1.181-.8a3.85 3.85 0 01-.8-1.181 3.529 3.529 0 01-.301-1.439c0-.534.101-1.021.301-1.46.199-.44.467-.827.8-1.16a3.582 3.582 0 011.181-.78 3.756 3.756 0 011.439-.279c1.04 0 1.914.354 2.62 1.06s1.059 1.579 1.059 2.619zm-29.4 0c0 .506-.093.986-.28 1.439a3.567 3.567 0 01-.78 1.181c-.333.333-.72.6-1.16.8s-.926.3-1.46.3c-.506 0-.986-.1-1.44-.3a3.863 3.863 0 01-1.18-.8 3.868 3.868 0 01-.8-1.181c-.2-.453-.3-.934-.3-1.439 0-.534.1-1.021.3-1.46.2-.44.467-.827.8-1.16a3.578 3.578 0 011.18-.78 3.761 3.761 0 011.44-.279c1.04 0 1.914.354 2.62 1.06s1.06 1.579 1.06 2.619zm-29.399 0c0 .506-.094.986-.28 1.439s-.446.847-.78 1.181c-.332.333-.721.6-1.16.8s-.926.3-1.459.3c-.508 0-.986-.1-1.441-.3a3.863 3.863 0 01-1.18-.8 3.865 3.865 0 01-.799-1.181 3.513 3.513 0 01-.301-1.439c0-.534.1-1.021.301-1.46.199-.44.467-.827.799-1.16a3.578 3.578 0 011.18-.78 3.766 3.766 0 011.441-.279c1.039 0 1.914.354 2.619 1.06.706.705 1.06 1.579 1.06 2.619zm-29.4 0c0 .506-.093.986-.28 1.439a3.564 3.564 0 01-.779 1.181c-.333.333-.721.6-1.16.8-.44.2-.927.3-1.46.3-.507 0-.986-.1-1.44-.3a3.863 3.863 0 01-1.18-.8c-.333-.334-.6-.728-.8-1.181s-.3-.934-.3-1.439c0-.534.1-1.021.3-1.46.2-.44.467-.827.8-1.16a3.578 3.578 0 011.18-.78 3.761 3.761 0 011.44-.279c1.04 0 1.914.354 2.62 1.06.706.705 1.059 1.579 1.059 2.619zm-29.4 0c0 .506-.093.986-.28 1.439a3.564 3.564 0 01-.779 1.181c-.333.333-.721.6-1.16.8-.44.2-.927.3-1.46.3-.507 0-.986-.1-1.44-.3a3.863 3.863 0 01-1.18-.8c-.333-.334-.6-.728-.8-1.181s-.3-.934-.3-1.439c0-.534.1-1.021.3-1.46.2-.44.467-.827.8-1.16a3.578 3.578 0 011.18-.78 3.761 3.761 0 011.44-.279c1.04 0 1.914.354 2.62 1.06.707.705 1.059 1.579 1.059 2.619zm-29.399 0c0 .506-.093.986-.28 1.439a3.564 3.564 0 01-.779 1.181c-.333.333-.721.6-1.16.8-.44.2-.927.3-1.46.3-.507 0-.986-.1-1.44-.3a3.863 3.863 0 01-1.18-.8c-.333-.334-.6-.728-.8-1.181s-.3-.934-.3-1.439c0-.534.1-1.021.3-1.46.2-.44.467-.827.8-1.16a3.578 3.578 0 011.18-.78 3.761 3.761 0 011.44-.279c1.04 0 1.914.354 2.62 1.06.706.705 1.059 1.579 1.059 2.619zm-29.4 0c0 .506-.093.986-.28 1.439a3.564 3.564 0 01-.779 1.181c-.333.333-.721.6-1.16.8-.44.2-.927.3-1.46.3-.507 0-.986-.1-1.44-.3a3.863 3.863 0 01-1.18-.8c-.333-.334-.6-.728-.8-1.181s-.3-.934-.3-1.439c0-.534.1-1.021.3-1.46.2-.44.467-.827.8-1.16a3.578 3.578 0 011.18-.78 3.761 3.761 0 011.44-.279c1.04 0 1.914.354 2.62 1.06.707.705 1.059 1.579 1.059 2.619zm-29.399 0c0 .506-.093.986-.28 1.439a3.564 3.564 0 01-.779 1.181c-.333.333-.721.6-1.16.8-.44.2-.927.3-1.46.3-.507 0-.986-.1-1.44-.3a3.863 3.863 0 01-1.18-.8c-.333-.334-.6-.728-.8-1.181s-.3-.934-.3-1.439c0-.534.1-1.021.3-1.46.2-.44.467-.827.8-1.16a3.578 3.578 0 011.18-.78 3.761 3.761 0 011.44-.279c1.04 0 1.914.354 2.62 1.06.706.705 1.059 1.579 1.059 2.619zm-29.4 0c0 .506-.093.986-.28 1.439a3.564 3.564 0 01-.779 1.181c-.333.333-.721.6-1.16.8-.44.2-.927.3-1.46.3-.507 0-.986-.1-1.44-.3a3.863 3.863 0 01-1.18-.8c-.333-.334-.6-.728-.8-1.181s-.3-.934-.3-1.439c0-.534.1-1.021.3-1.46.2-.44.467-.827.8-1.16a3.578 3.578 0 011.18-.78 3.761 3.761 0 011.44-.279c1.04 0 1.914.354 2.62 1.06.707.705 1.059 1.579 1.059 2.619zm-29.4 0c0 .506-.093.986-.28 1.439a3.564 3.564 0 01-.779 1.181c-.333.333-.721.6-1.16.8-.44.2-.927.3-1.46.3-.507 0-.986-.1-1.44-.3a3.863 3.863 0 01-1.18-.8c-.333-.334-.6-.728-.8-1.181s-.3-.934-.3-1.439c0-.534.1-1.021.3-1.46.2-.44.467-.827.8-1.16a3.578 3.578 0 011.18-.78 3.761 3.761 0 011.44-.279c1.04 0 1.914.354 2.62 1.06.707.705 1.059 1.579 1.059 2.619zm499.793-40c0 .506-.093.986-.28 1.439a3.564 3.564 0 01-.779 1.181c-.334.333-.721.6-1.16.8s-.926.3-1.46.3c-.507 0-.986-.1-1.44-.3a3.863 3.863 0 01-1.18-.8c-.333-.334-.6-.728-.8-1.181s-.3-.934-.3-1.439c0-.534.1-1.021.3-1.46.2-.44.467-.827.8-1.16a3.578 3.578 0 011.18-.78 3.761 3.761 0 011.44-.279c1.04 0 1.913.354 2.62 1.06s1.059 1.579 1.059 2.619zm-29.399 0c0 .506-.093.986-.279 1.439s-.447.847-.78 1.181c-.333.333-.72.6-1.16.8s-.927.3-1.46.3c-.506 0-.986-.1-1.439-.3s-.847-.467-1.181-.8a3.85 3.85 0 01-.8-1.181 3.529 3.529 0 01-.301-1.439c0-.534.101-1.021.301-1.46.199-.44.467-.827.8-1.16a3.582 3.582 0 011.181-.78 3.756 3.756 0 011.439-.279c1.04 0 1.914.354 2.62 1.06s1.059 1.579 1.059 2.619zm-29.401 0c0 .506-.092.986-.279 1.439a3.58 3.58 0 01-.779 1.181c-.334.333-.721.6-1.16.8-.44.2-.927.3-1.461.3-.506 0-.986-.1-1.439-.3s-.846-.467-1.18-.8a3.853 3.853 0 01-.801-1.181 3.545 3.545 0 01-.3-1.439c0-.534.101-1.021.3-1.46.2-.44.467-.827.801-1.16a3.578 3.578 0 011.18-.78 3.756 3.756 0 011.439-.279c1.041 0 1.914.354 2.621 1.06.706.705 1.058 1.579 1.058 2.619zm-29.398 0c0 .506-.094.986-.28 1.439s-.446.847-.78 1.181c-.333.333-.72.6-1.16.8-.439.2-.926.3-1.459.3-.507 0-.986-.1-1.44-.3a3.868 3.868 0 01-1.181-.8 3.865 3.865 0 01-.799-1.181 3.513 3.513 0 01-.301-1.439c0-.534.1-1.021.301-1.46.199-.44.467-.827.799-1.16a3.582 3.582 0 011.181-.78 3.761 3.761 0 011.44-.279c1.039 0 1.913.354 2.619 1.06.706.705 1.06 1.579 1.06 2.619zm-29.401 0c0 .506-.092.986-.279 1.439a3.58 3.58 0 01-.779 1.181c-.334.333-.721.6-1.16.8-.44.2-.927.3-1.461.3-.506 0-.986-.1-1.439-.3s-.846-.467-1.18-.8a3.853 3.853 0 01-.801-1.181 3.545 3.545 0 01-.3-1.439c0-.534.101-1.021.3-1.46.2-.44.467-.827.801-1.16a3.578 3.578 0 011.18-.78 3.756 3.756 0 011.439-.279c1.041 0 1.914.354 2.621 1.06.706.705 1.058 1.579 1.058 2.619zm-29.399 0c0 .506-.093.986-.28 1.439a3.564 3.564 0 01-.779 1.181c-.334.333-.721.6-1.16.8s-.926.3-1.46.3c-.507 0-.986-.1-1.44-.3a3.863 3.863 0 01-1.18-.8c-.333-.334-.6-.728-.8-1.181s-.3-.934-.3-1.439c0-.534.1-1.021.3-1.46.2-.44.467-.827.8-1.16a3.578 3.578 0 011.18-.78 3.761 3.761 0 011.44-.279c1.04 0 1.913.354 2.62 1.06s1.059 1.579 1.059 2.619zm-29.399 0c0 .506-.093.986-.279 1.439s-.447.847-.78 1.181c-.333.333-.72.6-1.16.8s-.927.3-1.46.3c-.506 0-.986-.1-1.439-.3s-.847-.467-1.181-.8a3.85 3.85 0 01-.8-1.181 3.529 3.529 0 01-.301-1.439c0-.534.101-1.021.301-1.46.199-.44.467-.827.8-1.16a3.582 3.582 0 011.181-.78 3.756 3.756 0 011.439-.279c1.04 0 1.914.354 2.62 1.06s1.059 1.579 1.059 2.619zm-29.4 0c0 .506-.093.986-.28 1.439a3.564 3.564 0 01-.779 1.181c-.334.333-.721.6-1.16.8s-.926.3-1.46.3c-.507 0-.986-.1-1.44-.3a3.863 3.863 0 01-1.18-.8c-.333-.334-.6-.728-.8-1.181s-.3-.934-.3-1.439c0-.534.1-1.021.3-1.46.2-.44.467-.827.8-1.16a3.578 3.578 0 011.18-.78 3.761 3.761 0 011.44-.279c1.04 0 1.913.354 2.62 1.06s1.059 1.579 1.059 2.619zm-29.399 0c0 .506-.093.986-.279 1.439s-.447.847-.78 1.181c-.333.333-.72.6-1.16.8s-.927.3-1.46.3c-.506 0-.986-.1-1.439-.3s-.847-.467-1.181-.8a3.85 3.85 0 01-.8-1.181 3.529 3.529 0 01-.301-1.439c0-.534.101-1.021.301-1.46.199-.44.467-.827.8-1.16a3.582 3.582 0 011.181-.78 3.756 3.756 0 011.439-.279c1.04 0 1.914.354 2.62 1.06s1.059 1.579 1.059 2.619zm-29.4 0c0 .506-.093.986-.28 1.439a3.567 3.567 0 01-.78 1.181c-.333.333-.72.6-1.16.8s-.926.3-1.46.3c-.506 0-.986-.1-1.44-.3a3.863 3.863 0 01-1.18-.8 3.868 3.868 0 01-.8-1.181c-.2-.453-.3-.934-.3-1.439 0-.534.1-1.021.3-1.46.2-.44.467-.827.8-1.16a3.578 3.578 0 011.18-.78 3.761 3.761 0 011.44-.279c1.04 0 1.914.354 2.62 1.06s1.06 1.579 1.06 2.619zm-29.399 0c0 .506-.094.986-.28 1.439s-.446.847-.78 1.181c-.332.333-.721.6-1.16.8s-.926.3-1.459.3c-.508 0-.986-.1-1.441-.3a3.863 3.863 0 01-1.18-.8 3.865 3.865 0 01-.799-1.181 3.513 3.513 0 01-.301-1.439c0-.534.1-1.021.301-1.46.199-.44.467-.827.799-1.16a3.578 3.578 0 011.18-.78 3.766 3.766 0 011.441-.279c1.039 0 1.914.354 2.619 1.06.706.705 1.06 1.579 1.06 2.619zm-29.4 0c0 .506-.093.986-.28 1.439a3.564 3.564 0 01-.779 1.181c-.333.333-.721.6-1.16.8-.44.2-.927.3-1.46.3-.507 0-.986-.1-1.44-.3a3.863 3.863 0 01-1.18-.8c-.333-.334-.6-.728-.8-1.181s-.3-.934-.3-1.439c0-.534.1-1.021.3-1.46.2-.44.467-.827.8-1.16a3.578 3.578 0 011.18-.78 3.761 3.761 0 011.44-.279c1.04 0 1.914.354 2.62 1.06.706.705 1.059 1.579 1.059 2.619zm-29.4 0c0 .506-.093.986-.28 1.439a3.564 3.564 0 01-.779 1.181c-.333.333-.721.6-1.16.8-.44.2-.927.3-1.46.3-.507 0-.986-.1-1.44-.3a3.863 3.863 0 01-1.18-.8c-.333-.334-.6-.728-.8-1.181s-.3-.934-.3-1.439c0-.534.1-1.021.3-1.46.2-.44.467-.827.8-1.16a3.578 3.578 0 011.18-.78 3.761 3.761 0 011.44-.279c1.04 0 1.914.354 2.62 1.06.707.705 1.059 1.579 1.059 2.619zm-29.399 0c0 .506-.093.986-.28 1.439a3.564 3.564 0 01-.779 1.181c-.333.333-.721.6-1.16.8-.44.2-.927.3-1.46.3-.507 0-.986-.1-1.44-.3a3.863 3.863 0 01-1.18-.8c-.333-.334-.6-.728-.8-1.181s-.3-.934-.3-1.439c0-.534.1-1.021.3-1.46.2-.44.467-.827.8-1.16a3.578 3.578 0 011.18-.78 3.761 3.761 0 011.44-.279c1.04 0 1.914.354 2.62 1.06.706.705 1.059 1.579 1.059 2.619zm-29.4 0c0 .506-.093.986-.28 1.439a3.564 3.564 0 01-.779 1.181c-.333.333-.721.6-1.16.8-.44.2-.927.3-1.46.3-.507 0-.986-.1-1.44-.3a3.863 3.863 0 01-1.18-.8c-.333-.334-.6-.728-.8-1.181s-.3-.934-.3-1.439c0-.534.1-1.021.3-1.46.2-.44.467-.827.8-1.16a3.578 3.578 0 011.18-.78 3.761 3.761 0 011.44-.279c1.04 0 1.914.354 2.62 1.06.707.705 1.059 1.579 1.059 2.619zm-29.399 0c0 .506-.093.986-.28 1.439a3.564 3.564 0 01-.779 1.181c-.333.333-.721.6-1.16.8-.44.2-.927.3-1.46.3-.507 0-.986-.1-1.44-.3a3.863 3.863 0 01-1.18-.8c-.333-.334-.6-.728-.8-1.181s-.3-.934-.3-1.439c0-.534.1-1.021.3-1.46.2-.44.467-.827.8-1.16a3.578 3.578 0 011.18-.78 3.761 3.761 0 011.44-.279c1.04 0 1.914.354 2.62 1.06.706.705 1.059 1.579 1.059 2.619zm-29.4 0c0 .506-.093.986-.28 1.439a3.564 3.564 0 01-.779 1.181c-.333.333-.721.6-1.16.8-.44.2-.927.3-1.46.3-.507 0-.986-.1-1.44-.3a3.863 3.863 0 01-1.18-.8c-.333-.334-.6-.728-.8-1.181s-.3-.934-.3-1.439c0-.534.1-1.021.3-1.46.2-.44.467-.827.8-1.16a3.578 3.578 0 011.18-.78 3.761 3.761 0 011.44-.279c1.04 0 1.914.354 2.62 1.06.707.705 1.059 1.579 1.059 2.619zm-29.4 0c0 .506-.093.986-.28 1.439a3.564 3.564 0 01-.779 1.181c-.333.333-.721.6-1.16.8-.44.2-.927.3-1.46.3-.507 0-.986-.1-1.44-.3a3.863 3.863 0 01-1.18-.8c-.333-.334-.6-.728-.8-1.181s-.3-.934-.3-1.439c0-.534.1-1.021.3-1.46.2-.44.467-.827.8-1.16a3.578 3.578 0 011.18-.78 3.761 3.761 0 011.44-.279c1.04 0 1.914.354 2.62 1.06.707.705 1.059 1.579 1.059 2.619zm499.793-40c0 .506-.093.986-.28 1.439a3.564 3.564 0 01-.779 1.181c-.334.333-.721.6-1.16.8s-.926.3-1.46.3c-.507 0-.986-.1-1.44-.3a3.863 3.863 0 01-1.18-.8c-.333-.334-.6-.728-.8-1.181s-.3-.934-.3-1.439c0-.534.1-1.021.3-1.46.2-.44.467-.827.8-1.16a3.578 3.578 0 011.18-.78 3.761 3.761 0 011.44-.279c1.04 0 1.913.354 2.62 1.06s1.059 1.579 1.059 2.619zm-29.399 0c0 .506-.093.986-.279 1.439s-.447.847-.78 1.181c-.333.333-.72.6-1.16.8s-.927.3-1.46.3c-.506 0-.986-.1-1.439-.3s-.847-.467-1.181-.8a3.85 3.85 0 01-.8-1.181 3.529 3.529 0 01-.301-1.439c0-.534.101-1.021.301-1.46.199-.44.467-.827.8-1.16a3.582 3.582 0 011.181-.78 3.756 3.756 0 011.439-.279c1.04 0 1.914.354 2.62 1.06s1.059 1.579 1.059 2.619zm-29.401 0c0 .506-.092.986-.279 1.439a3.58 3.58 0 01-.779 1.181c-.334.333-.721.6-1.16.8-.44.2-.927.3-1.461.3-.506 0-.986-.1-1.439-.3s-.846-.467-1.18-.8a3.853 3.853 0 01-.801-1.181 3.545 3.545 0 01-.3-1.439c0-.534.101-1.021.3-1.46.2-.44.467-.827.801-1.16a3.578 3.578 0 011.18-.78 3.756 3.756 0 011.439-.279c1.041 0 1.914.354 2.621 1.06.706.705 1.058 1.579 1.058 2.619zm-29.398 0c0 .506-.094.986-.28 1.439s-.446.847-.78 1.181c-.333.333-.72.6-1.16.8-.439.2-.926.3-1.459.3-.507 0-.986-.1-1.44-.3a3.868 3.868 0 01-1.181-.8 3.865 3.865 0 01-.799-1.181 3.513 3.513 0 01-.301-1.439c0-.534.1-1.021.301-1.46.199-.44.467-.827.799-1.16a3.582 3.582 0 011.181-.78 3.761 3.761 0 011.44-.279c1.039 0 1.913.354 2.619 1.06.706.705 1.06 1.579 1.06 2.619zm-29.401 0c0 .506-.092.986-.279 1.439a3.58 3.58 0 01-.779 1.181c-.334.333-.721.6-1.16.8-.44.2-.927.3-1.461.3-.506 0-.986-.1-1.439-.3s-.846-.467-1.18-.8a3.853 3.853 0 01-.801-1.181 3.545 3.545 0 01-.3-1.439c0-.534.101-1.021.3-1.46.2-.44.467-.827.801-1.16a3.578 3.578 0 011.18-.78 3.756 3.756 0 011.439-.279c1.041 0 1.914.354 2.621 1.06.706.705 1.058 1.579 1.058 2.619zm-29.399 0c0 .506-.093.986-.28 1.439a3.564 3.564 0 01-.779 1.181c-.334.333-.721.6-1.16.8s-.926.3-1.46.3c-.507 0-.986-.1-1.44-.3a3.863 3.863 0 01-1.18-.8c-.333-.334-.6-.728-.8-1.181s-.3-.934-.3-1.439c0-.534.1-1.021.3-1.46.2-.44.467-.827.8-1.16a3.578 3.578 0 011.18-.78 3.761 3.761 0 011.44-.279c1.04 0 1.913.354 2.62 1.06s1.059 1.579 1.059 2.619zm-29.399 0c0 .506-.093.986-.279 1.439s-.447.847-.78 1.181c-.333.333-.72.6-1.16.8s-.927.3-1.46.3c-.506 0-.986-.1-1.439-.3s-.847-.467-1.181-.8a3.85 3.85 0 01-.8-1.181 3.529 3.529 0 01-.301-1.439c0-.534.101-1.021.301-1.46.199-.44.467-.827.8-1.16a3.582 3.582 0 011.181-.78 3.756 3.756 0 011.439-.279c1.04 0 1.914.354 2.62 1.06s1.059 1.579 1.059 2.619zm-29.4 0c0 .506-.093.986-.28 1.439a3.564 3.564 0 01-.779 1.181c-.334.333-.721.6-1.16.8s-.926.3-1.46.3c-.507 0-.986-.1-1.44-.3a3.863 3.863 0 01-1.18-.8c-.333-.334-.6-.728-.8-1.181s-.3-.934-.3-1.439c0-.534.1-1.021.3-1.46.2-.44.467-.827.8-1.16a3.578 3.578 0 011.18-.78 3.761 3.761 0 011.44-.279c1.04 0 1.913.354 2.62 1.06s1.059 1.579 1.059 2.619zm-29.399 0c0 .506-.093.986-.279 1.439s-.447.847-.78 1.181c-.333.333-.72.6-1.16.8s-.927.3-1.46.3c-.506 0-.986-.1-1.439-.3s-.847-.467-1.181-.8a3.85 3.85 0 01-.8-1.181 3.529 3.529 0 01-.301-1.439c0-.534.101-1.021.301-1.46.199-.44.467-.827.8-1.16a3.582 3.582 0 011.181-.78 3.756 3.756 0 011.439-.279c1.04 0 1.914.354 2.62 1.06s1.059 1.579 1.059 2.619zm-29.4 0c0 .506-.093.986-.28 1.439a3.567 3.567 0 01-.78 1.181c-.333.333-.72.6-1.16.8s-.926.3-1.46.3c-.506 0-.986-.1-1.44-.3a3.863 3.863 0 01-1.18-.8 3.868 3.868 0 01-.8-1.181c-.2-.453-.3-.934-.3-1.439 0-.534.1-1.021.3-1.46.2-.44.467-.827.8-1.16a3.578 3.578 0 011.18-.78 3.761 3.761 0 011.44-.279c1.04 0 1.914.354 2.62 1.06s1.06 1.579 1.06 2.619zm-29.399 0c0 .506-.094.986-.28 1.439s-.446.847-.78 1.181c-.332.333-.721.6-1.16.8s-.926.3-1.459.3c-.508 0-.986-.1-1.441-.3a3.863 3.863 0 01-1.18-.8 3.865 3.865 0 01-.799-1.181 3.513 3.513 0 01-.301-1.439c0-.534.1-1.021.301-1.46.199-.44.467-.827.799-1.16a3.578 3.578 0 011.18-.78 3.766 3.766 0 011.441-.279c1.039 0 1.914.354 2.619 1.06.706.705 1.06 1.579 1.06 2.619zm-29.4 0c0 .506-.093.986-.28 1.439a3.564 3.564 0 01-.779 1.181c-.333.333-.721.6-1.16.8-.44.2-.927.3-1.46.3-.507 0-.986-.1-1.44-.3a3.863 3.863 0 01-1.18-.8c-.333-.334-.6-.728-.8-1.181s-.3-.934-.3-1.439c0-.534.1-1.021.3-1.46.2-.44.467-.827.8-1.16a3.578 3.578 0 011.18-.78 3.761 3.761 0 011.44-.279c1.04 0 1.914.354 2.62 1.06.706.705 1.059 1.579 1.059 2.619zm-29.4 0c0 .506-.093.986-.28 1.439a3.564 3.564 0 01-.779 1.181c-.333.333-.721.6-1.16.8-.44.2-.927.3-1.46.3-.507 0-.986-.1-1.44-.3a3.863 3.863 0 01-1.18-.8c-.333-.334-.6-.728-.8-1.181s-.3-.934-.3-1.439c0-.534.1-1.021.3-1.46.2-.44.467-.827.8-1.16a3.578 3.578 0 011.18-.78 3.761 3.761 0 011.44-.279c1.04 0 1.914.354 2.62 1.06.707.705 1.059 1.579 1.059 2.619zm-29.399 0c0 .506-.093.986-.28 1.439a3.564 3.564 0 01-.779 1.181c-.333.333-.721.6-1.16.8-.44.2-.927.3-1.46.3-.507 0-.986-.1-1.44-.3a3.863 3.863 0 01-1.18-.8c-.333-.334-.6-.728-.8-1.181s-.3-.934-.3-1.439c0-.534.1-1.021.3-1.46.2-.44.467-.827.8-1.16a3.578 3.578 0 011.18-.78 3.761 3.761 0 011.44-.279c1.04 0 1.914.354 2.62 1.06.706.705 1.059 1.579 1.059 2.619zm-29.4 0c0 .506-.093.986-.28 1.439a3.564 3.564 0 01-.779 1.181c-.333.333-.721.6-1.16.8-.44.2-.927.3-1.46.3-.507 0-.986-.1-1.44-.3a3.863 3.863 0 01-1.18-.8c-.333-.334-.6-.728-.8-1.181s-.3-.934-.3-1.439c0-.534.1-1.021.3-1.46.2-.44.467-.827.8-1.16a3.578 3.578 0 011.18-.78 3.761 3.761 0 011.44-.279c1.04 0 1.914.354 2.62 1.06.707.705 1.059 1.579 1.059 2.619zm-29.399 0c0 .506-.093.986-.28 1.439a3.564 3.564 0 01-.779 1.181c-.333.333-.721.6-1.16.8-.44.2-.927.3-1.46.3-.507 0-.986-.1-1.44-.3a3.863 3.863 0 01-1.18-.8c-.333-.334-.6-.728-.8-1.181s-.3-.934-.3-1.439c0-.534.1-1.021.3-1.46.2-.44.467-.827.8-1.16a3.578 3.578 0 011.18-.78 3.761 3.761 0 011.44-.279c1.04 0 1.914.354 2.62 1.06.706.705 1.059 1.579 1.059 2.619zm-29.4 0c0 .506-.093.986-.28 1.439a3.564 3.564 0 01-.779 1.181c-.333.333-.721.6-1.16.8-.44.2-.927.3-1.46.3-.507 0-.986-.1-1.44-.3a3.863 3.863 0 01-1.18-.8c-.333-.334-.6-.728-.8-1.181s-.3-.934-.3-1.439c0-.534.1-1.021.3-1.46.2-.44.467-.827.8-1.16a3.578 3.578 0 011.18-.78 3.761 3.761 0 011.44-.279c1.04 0 1.914.354 2.62 1.06.707.705 1.059 1.579 1.059 2.619zm-29.4 0c0 .506-.093.986-.28 1.439a3.564 3.564 0 01-.779 1.181c-.333.333-.721.6-1.16.8-.44.2-.927.3-1.46.3-.507 0-.986-.1-1.44-.3a3.863 3.863 0 01-1.18-.8c-.333-.334-.6-.728-.8-1.181s-.3-.934-.3-1.439c0-.534.1-1.021.3-1.46.2-.44.467-.827.8-1.16a3.578 3.578 0 011.18-.78 3.761 3.761 0 011.44-.279c1.04 0 1.914.354 2.62 1.06.707.705 1.059 1.579 1.059 2.619zm499.793-40c0 .506-.093.986-.28 1.439a3.564 3.564 0 01-.779 1.181c-.334.333-.721.6-1.16.8s-.926.3-1.46.3c-.507 0-.986-.1-1.44-.3a3.863 3.863 0 01-1.18-.8c-.333-.334-.6-.728-.8-1.181s-.3-.934-.3-1.439c0-.534.1-1.021.3-1.46.2-.44.467-.827.8-1.16a3.578 3.578 0 011.18-.78 3.761 3.761 0 011.44-.279c1.04 0 1.913.354 2.62 1.06s1.059 1.579 1.059 2.619zm-29.399 0c0 .506-.093.986-.279 1.439s-.447.847-.78 1.181c-.333.333-.72.6-1.16.8s-.927.3-1.46.3c-.506 0-.986-.1-1.439-.3s-.847-.467-1.181-.8a3.85 3.85 0 01-.8-1.181 3.529 3.529 0 01-.301-1.439c0-.534.101-1.021.301-1.46.199-.44.467-.827.8-1.16a3.582 3.582 0 011.181-.78 3.756 3.756 0 011.439-.279c1.04 0 1.914.354 2.62 1.06s1.059 1.579 1.059 2.619zm-29.401 0c0 .506-.092.986-.279 1.439a3.58 3.58 0 01-.779 1.181c-.334.333-.721.6-1.16.8-.44.2-.927.3-1.461.3-.506 0-.986-.1-1.439-.3s-.846-.467-1.18-.8a3.853 3.853 0 01-.801-1.181 3.545 3.545 0 01-.3-1.439c0-.534.101-1.021.3-1.46.2-.44.467-.827.801-1.16a3.578 3.578 0 011.18-.78 3.756 3.756 0 011.439-.279c1.041 0 1.914.354 2.621 1.06.706.705 1.058 1.579 1.058 2.619zm-29.398 0c0 .506-.094.986-.28 1.439s-.446.847-.78 1.181c-.333.333-.72.6-1.16.8-.439.2-.926.3-1.459.3-.507 0-.986-.1-1.44-.3a3.868 3.868 0 01-1.181-.8 3.865 3.865 0 01-.799-1.181 3.513 3.513 0 01-.301-1.439c0-.534.1-1.021.301-1.46.199-.44.467-.827.799-1.16a3.582 3.582 0 011.181-.78 3.761 3.761 0 011.44-.279c1.039 0 1.913.354 2.619 1.06.706.705 1.06 1.579 1.06 2.619zm-29.401 0c0 .506-.092.986-.279 1.439a3.58 3.58 0 01-.779 1.181c-.334.333-.721.6-1.16.8-.44.2-.927.3-1.461.3-.506 0-.986-.1-1.439-.3s-.846-.467-1.18-.8a3.853 3.853 0 01-.801-1.181 3.545 3.545 0 01-.3-1.439c0-.534.101-1.021.3-1.46.2-.44.467-.827.801-1.16a3.578 3.578 0 011.18-.78 3.756 3.756 0 011.439-.279c1.041 0 1.914.354 2.621 1.06.706.705 1.058 1.579 1.058 2.619zm-29.399 0c0 .506-.093.986-.28 1.439a3.564 3.564 0 01-.779 1.181c-.334.333-.721.6-1.16.8s-.926.3-1.46.3c-.507 0-.986-.1-1.44-.3a3.863 3.863 0 01-1.18-.8c-.333-.334-.6-.728-.8-1.181s-.3-.934-.3-1.439c0-.534.1-1.021.3-1.46.2-.44.467-.827.8-1.16a3.578 3.578 0 011.18-.78 3.761 3.761 0 011.44-.279c1.04 0 1.913.354 2.62 1.06s1.059 1.579 1.059 2.619zm-29.399 0c0 .506-.093.986-.279 1.439s-.447.847-.78 1.181c-.333.333-.72.6-1.16.8s-.927.3-1.46.3c-.506 0-.986-.1-1.439-.3s-.847-.467-1.181-.8a3.85 3.85 0 01-.8-1.181 3.529 3.529 0 01-.301-1.439c0-.534.101-1.021.301-1.46.199-.44.467-.827.8-1.16a3.582 3.582 0 011.181-.78 3.756 3.756 0 011.439-.279c1.04 0 1.914.354 2.62 1.06s1.059 1.579 1.059 2.619zm-29.4 0c0 .506-.093.986-.28 1.439a3.564 3.564 0 01-.779 1.181c-.334.333-.721.6-1.16.8s-.926.3-1.46.3c-.507 0-.986-.1-1.44-.3a3.863 3.863 0 01-1.18-.8c-.333-.334-.6-.728-.8-1.181s-.3-.934-.3-1.439c0-.534.1-1.021.3-1.46.2-.44.467-.827.8-1.16a3.578 3.578 0 011.18-.78 3.761 3.761 0 011.44-.279c1.04 0 1.913.354 2.62 1.06s1.059 1.579 1.059 2.619zm-29.399 0c0 .506-.093.986-.279 1.439s-.447.847-.78 1.181c-.333.333-.72.6-1.16.8s-.927.3-1.46.3c-.506 0-.986-.1-1.439-.3s-.847-.467-1.181-.8a3.85 3.85 0 01-.8-1.181 3.529 3.529 0 01-.301-1.439c0-.534.101-1.021.301-1.46.199-.44.467-.827.8-1.16a3.582 3.582 0 011.181-.78 3.756 3.756 0 011.439-.279c1.04 0 1.914.354 2.62 1.06s1.059 1.579 1.059 2.619zm-29.4 0c0 .506-.093.986-.28 1.439a3.567 3.567 0 01-.78 1.181c-.333.333-.72.6-1.16.8s-.926.3-1.46.3c-.506 0-.986-.1-1.44-.3a3.863 3.863 0 01-1.18-.8 3.868 3.868 0 01-.8-1.181c-.2-.453-.3-.934-.3-1.439 0-.534.1-1.021.3-1.46.2-.44.467-.827.8-1.16a3.578 3.578 0 011.18-.78 3.761 3.761 0 011.44-.279c1.04 0 1.914.354 2.62 1.06s1.06 1.579 1.06 2.619zm-29.399 0c0 .506-.094.986-.28 1.439s-.446.847-.78 1.181c-.332.333-.721.6-1.16.8s-.926.3-1.459.3c-.508 0-.986-.1-1.441-.3a3.863 3.863 0 01-1.18-.8 3.865 3.865 0 01-.799-1.181 3.513 3.513 0 01-.301-1.439c0-.534.1-1.021.301-1.46.199-.44.467-.827.799-1.16a3.578 3.578 0 011.18-.78 3.766 3.766 0 011.441-.279c1.039 0 1.914.354 2.619 1.06.706.705 1.06 1.579 1.06 2.619zm-29.4 0c0 .506-.093.986-.28 1.439a3.564 3.564 0 01-.779 1.181c-.333.333-.721.6-1.16.8-.44.2-.927.3-1.46.3-.507 0-.986-.1-1.44-.3a3.863 3.863 0 01-1.18-.8c-.333-.334-.6-.728-.8-1.181s-.3-.934-.3-1.439c0-.534.1-1.021.3-1.46.2-.44.467-.827.8-1.16a3.578 3.578 0 011.18-.78 3.761 3.761 0 011.44-.279c1.04 0 1.914.354 2.62 1.06.706.705 1.059 1.579 1.059 2.619zm-29.4 0c0 .506-.093.986-.28 1.439a3.564 3.564 0 01-.779 1.181c-.333.333-.721.6-1.16.8-.44.2-.927.3-1.46.3-.507 0-.986-.1-1.44-.3a3.863 3.863 0 01-1.18-.8c-.333-.334-.6-.728-.8-1.181s-.3-.934-.3-1.439c0-.534.1-1.021.3-1.46.2-.44.467-.827.8-1.16a3.578 3.578 0 011.18-.78 3.761 3.761 0 011.44-.279c1.04 0 1.914.354 2.62 1.06.707.705 1.059 1.579 1.059 2.619zm-29.399 0c0 .506-.093.986-.28 1.439a3.564 3.564 0 01-.779 1.181c-.333.333-.721.6-1.16.8-.44.2-.927.3-1.46.3-.507 0-.986-.1-1.44-.3a3.863 3.863 0 01-1.18-.8c-.333-.334-.6-.728-.8-1.181s-.3-.934-.3-1.439c0-.534.1-1.021.3-1.46.2-.44.467-.827.8-1.16a3.578 3.578 0 011.18-.78 3.761 3.761 0 011.44-.279c1.04 0 1.914.354 2.62 1.06.706.705 1.059 1.579 1.059 2.619zm-29.4 0c0 .506-.093.986-.28 1.439a3.564 3.564 0 01-.779 1.181c-.333.333-.721.6-1.16.8-.44.2-.927.3-1.46.3-.507 0-.986-.1-1.44-.3a3.863 3.863 0 01-1.18-.8c-.333-.334-.6-.728-.8-1.181s-.3-.934-.3-1.439c0-.534.1-1.021.3-1.46.2-.44.467-.827.8-1.16a3.578 3.578 0 011.18-.78 3.761 3.761 0 011.44-.279c1.04 0 1.914.354 2.62 1.06.707.705 1.059 1.579 1.059 2.619zm-29.399 0c0 .506-.093.986-.28 1.439a3.564 3.564 0 01-.779 1.181c-.333.333-.721.6-1.16.8-.44.2-.927.3-1.46.3-.507 0-.986-.1-1.44-.3a3.863 3.863 0 01-1.18-.8c-.333-.334-.6-.728-.8-1.181s-.3-.934-.3-1.439c0-.534.1-1.021.3-1.46.2-.44.467-.827.8-1.16a3.578 3.578 0 011.18-.78 3.761 3.761 0 011.44-.279c1.04 0 1.914.354 2.62 1.06.706.705 1.059 1.579 1.059 2.619zm-29.4 0c0 .506-.093.986-.28 1.439a3.564 3.564 0 01-.779 1.181c-.333.333-.721.6-1.16.8-.44.2-.927.3-1.46.3-.507 0-.986-.1-1.44-.3a3.863 3.863 0 01-1.18-.8c-.333-.334-.6-.728-.8-1.181s-.3-.934-.3-1.439c0-.534.1-1.021.3-1.46.2-.44.467-.827.8-1.16a3.578 3.578 0 011.18-.78 3.761 3.761 0 011.44-.279c1.04 0 1.914.354 2.62 1.06.707.705 1.059 1.579 1.059 2.619zm-29.4 0c0 .506-.093.986-.28 1.439a3.564 3.564 0 01-.779 1.181c-.333.333-.721.6-1.16.8-.44.2-.927.3-1.46.3-.507 0-.986-.1-1.44-.3a3.863 3.863 0 01-1.18-.8c-.333-.334-.6-.728-.8-1.181s-.3-.934-.3-1.439c0-.534.1-1.021.3-1.46.2-.44.467-.827.8-1.16a3.578 3.578 0 011.18-.78 3.761 3.761 0 011.44-.279c1.04 0 1.914.354 2.62 1.06.707.705 1.059 1.579 1.059 2.619zm499.793-40c0 .506-.093.986-.28 1.439a3.564 3.564 0 01-.779 1.181c-.334.333-.721.6-1.16.8s-.926.3-1.46.3c-.507 0-.986-.1-1.44-.3a3.863 3.863 0 01-1.18-.8c-.333-.334-.6-.728-.8-1.181s-.3-.934-.3-1.439c0-.534.1-1.021.3-1.46.2-.44.467-.827.8-1.16a3.578 3.578 0 011.18-.78 3.761 3.761 0 011.44-.279c1.04 0 1.913.354 2.62 1.06s1.059 1.579 1.059 2.619zm-29.399 0c0 .506-.093.986-.279 1.439s-.447.847-.78 1.181c-.333.333-.72.6-1.16.8s-.927.3-1.46.3c-.506 0-.986-.1-1.439-.3s-.847-.467-1.181-.8a3.85 3.85 0 01-.8-1.181 3.529 3.529 0 01-.301-1.439c0-.534.101-1.021.301-1.46.199-.44.467-.827.8-1.16a3.582 3.582 0 011.181-.78 3.756 3.756 0 011.439-.279c1.04 0 1.914.354 2.62 1.06s1.059 1.579 1.059 2.619zm-29.401 0c0 .506-.092.986-.279 1.439a3.58 3.58 0 01-.779 1.181c-.334.333-.721.6-1.16.8-.44.2-.927.3-1.461.3-.506 0-.986-.1-1.439-.3s-.846-.467-1.18-.8a3.853 3.853 0 01-.801-1.181 3.545 3.545 0 01-.3-1.439c0-.534.101-1.021.3-1.46.2-.44.467-.827.801-1.16a3.578 3.578 0 011.18-.78 3.756 3.756 0 011.439-.279c1.041 0 1.914.354 2.621 1.06.706.705 1.058 1.579 1.058 2.619zm-29.398 0c0 .506-.094.986-.28 1.439s-.446.847-.78 1.181c-.333.333-.72.6-1.16.8-.439.2-.926.3-1.459.3-.507 0-.986-.1-1.44-.3a3.868 3.868 0 01-1.181-.8 3.865 3.865 0 01-.799-1.181 3.513 3.513 0 01-.301-1.439c0-.534.1-1.021.301-1.46.199-.44.467-.827.799-1.16a3.582 3.582 0 011.181-.78 3.761 3.761 0 011.44-.279c1.039 0 1.913.354 2.619 1.06.706.705 1.06 1.579 1.06 2.619zm-29.401 0c0 .506-.092.986-.279 1.439a3.58 3.58 0 01-.779 1.181c-.334.333-.721.6-1.16.8-.44.2-.927.3-1.461.3-.506 0-.986-.1-1.439-.3s-.846-.467-1.18-.8a3.853 3.853 0 01-.801-1.181 3.545 3.545 0 01-.3-1.439c0-.534.101-1.021.3-1.46.2-.44.467-.827.801-1.16a3.578 3.578 0 011.18-.78 3.756 3.756 0 011.439-.279c1.041 0 1.914.354 2.621 1.06.706.705 1.058 1.579 1.058 2.619zm-29.399 0c0 .506-.093.986-.28 1.439a3.564 3.564 0 01-.779 1.181c-.334.333-.721.6-1.16.8s-.926.3-1.46.3c-.507 0-.986-.1-1.44-.3a3.863 3.863 0 01-1.18-.8c-.333-.334-.6-.728-.8-1.181s-.3-.934-.3-1.439c0-.534.1-1.021.3-1.46.2-.44.467-.827.8-1.16a3.578 3.578 0 011.18-.78 3.761 3.761 0 011.44-.279c1.04 0 1.913.354 2.62 1.06s1.059 1.579 1.059 2.619zm-29.399 0c0 .506-.093.986-.279 1.439s-.447.847-.78 1.181c-.333.333-.72.6-1.16.8s-.927.3-1.46.3c-.506 0-.986-.1-1.439-.3s-.847-.467-1.181-.8a3.85 3.85 0 01-.8-1.181 3.529 3.529 0 01-.301-1.439c0-.534.101-1.021.301-1.46.199-.44.467-.827.8-1.16a3.582 3.582 0 011.181-.78 3.756 3.756 0 011.439-.279c1.04 0 1.914.354 2.62 1.06s1.059 1.579 1.059 2.619zm-29.4 0c0 .506-.093.986-.28 1.439a3.564 3.564 0 01-.779 1.181c-.334.333-.721.6-1.16.8s-.926.3-1.46.3c-.507 0-.986-.1-1.44-.3a3.863 3.863 0 01-1.18-.8c-.333-.334-.6-.728-.8-1.181s-.3-.934-.3-1.439c0-.534.1-1.021.3-1.46.2-.44.467-.827.8-1.16a3.578 3.578 0 011.18-.78 3.761 3.761 0 011.44-.279c1.04 0 1.913.354 2.62 1.06s1.059 1.579 1.059 2.619zm-29.399 0c0 .506-.093.986-.279 1.439s-.447.847-.78 1.181c-.333.333-.72.6-1.16.8s-.927.3-1.46.3c-.506 0-.986-.1-1.439-.3s-.847-.467-1.181-.8a3.85 3.85 0 01-.8-1.181 3.529 3.529 0 01-.301-1.439c0-.534.101-1.021.301-1.46.199-.44.467-.827.8-1.16a3.582 3.582 0 011.181-.78 3.756 3.756 0 011.439-.279c1.04 0 1.914.354 2.62 1.06s1.059 1.579 1.059 2.619zm-29.4 0c0 .506-.093.986-.28 1.439a3.567 3.567 0 01-.78 1.181c-.333.333-.72.6-1.16.8s-.926.3-1.46.3c-.506 0-.986-.1-1.44-.3a3.863 3.863 0 01-1.18-.8 3.868 3.868 0 01-.8-1.181c-.2-.453-.3-.934-.3-1.439 0-.534.1-1.021.3-1.46.2-.44.467-.827.8-1.16a3.578 3.578 0 011.18-.78 3.761 3.761 0 011.44-.279c1.04 0 1.914.354 2.62 1.06s1.06 1.579 1.06 2.619zm-29.399 0c0 .506-.094.986-.28 1.439s-.446.847-.78 1.181c-.332.333-.721.6-1.16.8s-.926.3-1.459.3c-.508 0-.986-.1-1.441-.3a3.863 3.863 0 01-1.18-.8 3.865 3.865 0 01-.799-1.181 3.513 3.513 0 01-.301-1.439c0-.534.1-1.021.301-1.46.199-.44.467-.827.799-1.16a3.578 3.578 0 011.18-.78 3.766 3.766 0 011.441-.279c1.039 0 1.914.354 2.619 1.06.706.705 1.06 1.579 1.06 2.619zm-29.4 0c0 .506-.093.986-.28 1.439a3.564 3.564 0 01-.779 1.181c-.333.333-.721.6-1.16.8-.44.2-.927.3-1.46.3-.507 0-.986-.1-1.44-.3a3.863 3.863 0 01-1.18-.8c-.333-.334-.6-.728-.8-1.181s-.3-.934-.3-1.439c0-.534.1-1.021.3-1.46.2-.44.467-.827.8-1.16a3.578 3.578 0 011.18-.78 3.761 3.761 0 011.44-.279c1.04 0 1.914.354 2.62 1.06.706.705 1.059 1.579 1.059 2.619zm-29.4 0c0 .506-.093.986-.28 1.439a3.564 3.564 0 01-.779 1.181c-.333.333-.721.6-1.16.8-.44.2-.927.3-1.46.3-.507 0-.986-.1-1.44-.3a3.863 3.863 0 01-1.18-.8c-.333-.334-.6-.728-.8-1.181s-.3-.934-.3-1.439c0-.534.1-1.021.3-1.46.2-.44.467-.827.8-1.16a3.578 3.578 0 011.18-.78 3.761 3.761 0 011.44-.279c1.04 0 1.914.354 2.62 1.06.707.705 1.059 1.579 1.059 2.619zm-29.399 0c0 .506-.093.986-.28 1.439a3.564 3.564 0 01-.779 1.181c-.333.333-.721.6-1.16.8-.44.2-.927.3-1.46.3-.507 0-.986-.1-1.44-.3a3.863 3.863 0 01-1.18-.8c-.333-.334-.6-.728-.8-1.181s-.3-.934-.3-1.439c0-.534.1-1.021.3-1.46.2-.44.467-.827.8-1.16a3.578 3.578 0 011.18-.78 3.761 3.761 0 011.44-.279c1.04 0 1.914.354 2.62 1.06.706.705 1.059 1.579 1.059 2.619zm-29.4 0c0 .506-.093.986-.28 1.439a3.564 3.564 0 01-.779 1.181c-.333.333-.721.6-1.16.8-.44.2-.927.3-1.46.3-.507 0-.986-.1-1.44-.3a3.863 3.863 0 01-1.18-.8c-.333-.334-.6-.728-.8-1.181s-.3-.934-.3-1.439c0-.534.1-1.021.3-1.46.2-.44.467-.827.8-1.16a3.578 3.578 0 011.18-.78 3.761 3.761 0 011.44-.279c1.04 0 1.914.354 2.62 1.06.707.705 1.059 1.579 1.059 2.619zm-29.399 0c0 .506-.093.986-.28 1.439a3.564 3.564 0 01-.779 1.181c-.333.333-.721.6-1.16.8-.44.2-.927.3-1.46.3-.507 0-.986-.1-1.44-.3a3.863 3.863 0 01-1.18-.8c-.333-.334-.6-.728-.8-1.181s-.3-.934-.3-1.439c0-.534.1-1.021.3-1.46.2-.44.467-.827.8-1.16a3.578 3.578 0 011.18-.78 3.761 3.761 0 011.44-.279c1.04 0 1.914.354 2.62 1.06.706.705 1.059 1.579 1.059 2.619zm-29.4 0c0 .506-.093.986-.28 1.439a3.564 3.564 0 01-.779 1.181c-.333.333-.721.6-1.16.8-.44.2-.927.3-1.46.3-.507 0-.986-.1-1.44-.3a3.863 3.863 0 01-1.18-.8c-.333-.334-.6-.728-.8-1.181s-.3-.934-.3-1.439c0-.534.1-1.021.3-1.46.2-.44.467-.827.8-1.16a3.578 3.578 0 011.18-.78 3.761 3.761 0 011.44-.279c1.04 0 1.914.354 2.62 1.06.707.705 1.059 1.579 1.059 2.619zm-29.4 0c0 .506-.093.986-.28 1.439a3.564 3.564 0 01-.779 1.181c-.333.333-.721.6-1.16.8-.44.2-.927.3-1.46.3-.507 0-.986-.1-1.44-.3a3.863 3.863 0 01-1.18-.8c-.333-.334-.6-.728-.8-1.181s-.3-.934-.3-1.439c0-.534.1-1.021.3-1.46.2-.44.467-.827.8-1.16a3.578 3.578 0 011.18-.78 3.761 3.761 0 011.44-.279c1.04 0 1.914.354 2.62 1.06.707.705 1.059 1.579 1.059 2.619zm499.793-40c0 .506-.093.986-.28 1.439a3.564 3.564 0 01-.779 1.181c-.334.333-.721.6-1.16.8s-.926.3-1.46.3c-.507 0-.986-.1-1.44-.3a3.863 3.863 0 01-1.18-.8c-.333-.334-.6-.728-.8-1.181s-.3-.934-.3-1.439c0-.534.1-1.021.3-1.46.2-.44.467-.827.8-1.16a3.578 3.578 0 011.18-.78 3.761 3.761 0 011.44-.279c1.04 0 1.913.354 2.62 1.06s1.059 1.579 1.059 2.619zm-29.399 0c0 .506-.093.986-.279 1.439s-.447.847-.78 1.181c-.333.333-.72.6-1.16.8s-.927.3-1.46.3c-.506 0-.986-.1-1.439-.3s-.847-.467-1.181-.8a3.85 3.85 0 01-.8-1.181 3.529 3.529 0 01-.301-1.439c0-.534.101-1.021.301-1.46.199-.44.467-.827.8-1.16a3.582 3.582 0 011.181-.78 3.756 3.756 0 011.439-.279c1.04 0 1.914.354 2.62 1.06s1.059 1.579 1.059 2.619zm-29.401 0c0 .506-.092.986-.279 1.439a3.58 3.58 0 01-.779 1.181c-.334.333-.721.6-1.16.8-.44.2-.927.3-1.461.3-.506 0-.986-.1-1.439-.3s-.846-.467-1.18-.8a3.853 3.853 0 01-.801-1.181 3.545 3.545 0 01-.3-1.439c0-.534.101-1.021.3-1.46.2-.44.467-.827.801-1.16a3.578 3.578 0 011.18-.78 3.756 3.756 0 011.439-.279c1.041 0 1.914.354 2.621 1.06.706.705 1.058 1.579 1.058 2.619zm-29.398 0c0 .506-.094.986-.28 1.439s-.446.847-.78 1.181c-.333.333-.72.6-1.16.8-.439.2-.926.3-1.459.3-.507 0-.986-.1-1.44-.3a3.868 3.868 0 01-1.181-.8 3.865 3.865 0 01-.799-1.181 3.513 3.513 0 01-.301-1.439c0-.534.1-1.021.301-1.46.199-.44.467-.827.799-1.16a3.582 3.582 0 011.181-.78 3.761 3.761 0 011.44-.279c1.039 0 1.913.354 2.619 1.06.706.705 1.06 1.579 1.06 2.619zm-29.401 0c0 .506-.092.986-.279 1.439a3.58 3.58 0 01-.779 1.181c-.334.333-.721.6-1.16.8-.44.2-.927.3-1.461.3-.506 0-.986-.1-1.439-.3s-.846-.467-1.18-.8a3.853 3.853 0 01-.801-1.181 3.545 3.545 0 01-.3-1.439c0-.534.101-1.021.3-1.46.2-.44.467-.827.801-1.16a3.578 3.578 0 011.18-.78 3.756 3.756 0 011.439-.279c1.041 0 1.914.354 2.621 1.06.706.705 1.058 1.579 1.058 2.619zm-29.399 0c0 .506-.093.986-.28 1.439a3.564 3.564 0 01-.779 1.181c-.334.333-.721.6-1.16.8s-.926.3-1.46.3c-.507 0-.986-.1-1.44-.3a3.863 3.863 0 01-1.18-.8c-.333-.334-.6-.728-.8-1.181s-.3-.934-.3-1.439c0-.534.1-1.021.3-1.46.2-.44.467-.827.8-1.16a3.578 3.578 0 011.18-.78 3.761 3.761 0 011.44-.279c1.04 0 1.913.354 2.62 1.06s1.059 1.579 1.059 2.619zm-29.399 0c0 .506-.093.986-.279 1.439s-.447.847-.78 1.181c-.333.333-.72.6-1.16.8s-.927.3-1.46.3c-.506 0-.986-.1-1.439-.3s-.847-.467-1.181-.8a3.85 3.85 0 01-.8-1.181 3.529 3.529 0 01-.301-1.439c0-.534.101-1.021.301-1.46.199-.44.467-.827.8-1.16a3.582 3.582 0 011.181-.78 3.756 3.756 0 011.439-.279c1.04 0 1.914.354 2.62 1.06s1.059 1.579 1.059 2.619zm-29.4 0c0 .506-.093.986-.28 1.439a3.564 3.564 0 01-.779 1.181c-.334.333-.721.6-1.16.8s-.926.3-1.46.3c-.507 0-.986-.1-1.44-.3a3.863 3.863 0 01-1.18-.8c-.333-.334-.6-.728-.8-1.181s-.3-.934-.3-1.439c0-.534.1-1.021.3-1.46.2-.44.467-.827.8-1.16a3.578 3.578 0 011.18-.78 3.761 3.761 0 011.44-.279c1.04 0 1.913.354 2.62 1.06s1.059 1.579 1.059 2.619zm-29.399 0c0 .506-.093.986-.279 1.439s-.447.847-.78 1.181c-.333.333-.72.6-1.16.8s-.927.3-1.46.3c-.506 0-.986-.1-1.439-.3s-.847-.467-1.181-.8a3.85 3.85 0 01-.8-1.181 3.529 3.529 0 01-.301-1.439c0-.534.101-1.021.301-1.46.199-.44.467-.827.8-1.16a3.582 3.582 0 011.181-.78 3.756 3.756 0 011.439-.279c1.04 0 1.914.354 2.62 1.06s1.059 1.579 1.059 2.619zm-29.4 0c0 .506-.093.986-.28 1.439a3.567 3.567 0 01-.78 1.181c-.333.333-.72.6-1.16.8s-.926.3-1.46.3c-.506 0-.986-.1-1.44-.3a3.863 3.863 0 01-1.18-.8 3.868 3.868 0 01-.8-1.181c-.2-.453-.3-.934-.3-1.439 0-.534.1-1.021.3-1.46.2-.44.467-.827.8-1.16a3.578 3.578 0 011.18-.78 3.761 3.761 0 011.44-.279c1.04 0 1.914.354 2.62 1.06s1.06 1.579 1.06 2.619zm-29.399 0c0 .506-.094.986-.28 1.439s-.446.847-.78 1.181c-.332.333-.721.6-1.16.8s-.926.3-1.459.3c-.508 0-.986-.1-1.441-.3a3.863 3.863 0 01-1.18-.8 3.865 3.865 0 01-.799-1.181 3.513 3.513 0 01-.301-1.439c0-.534.1-1.021.301-1.46.199-.44.467-.827.799-1.16a3.578 3.578 0 011.18-.78 3.766 3.766 0 011.441-.279c1.039 0 1.914.354 2.619 1.06.706.705 1.06 1.579 1.06 2.619zm-29.4 0c0 .506-.093.986-.28 1.439a3.564 3.564 0 01-.779 1.181c-.333.333-.721.6-1.16.8-.44.2-.927.3-1.46.3-.507 0-.986-.1-1.44-.3a3.863 3.863 0 01-1.18-.8c-.333-.334-.6-.728-.8-1.181s-.3-.934-.3-1.439c0-.534.1-1.021.3-1.46.2-.44.467-.827.8-1.16a3.578 3.578 0 011.18-.78 3.761 3.761 0 011.44-.279c1.04 0 1.914.354 2.62 1.06.706.705 1.059 1.579 1.059 2.619zm-29.4 0c0 .506-.093.986-.28 1.439a3.564 3.564 0 01-.779 1.181c-.333.333-.721.6-1.16.8-.44.2-.927.3-1.46.3-.507 0-.986-.1-1.44-.3a3.863 3.863 0 01-1.18-.8c-.333-.334-.6-.728-.8-1.181s-.3-.934-.3-1.439c0-.534.1-1.021.3-1.46.2-.44.467-.827.8-1.16a3.578 3.578 0 011.18-.78 3.761 3.761 0 011.44-.279c1.04 0 1.914.354 2.62 1.06.707.705 1.059 1.579 1.059 2.619zm-29.399 0c0 .506-.093.986-.28 1.439a3.564 3.564 0 01-.779 1.181c-.333.333-.721.6-1.16.8-.44.2-.927.3-1.46.3-.507 0-.986-.1-1.44-.3a3.863 3.863 0 01-1.18-.8c-.333-.334-.6-.728-.8-1.181s-.3-.934-.3-1.439c0-.534.1-1.021.3-1.46.2-.44.467-.827.8-1.16a3.578 3.578 0 011.18-.78 3.761 3.761 0 011.44-.279c1.04 0 1.914.354 2.62 1.06.706.705 1.059 1.579 1.059 2.619zm-29.4 0c0 .506-.093.986-.28 1.439a3.564 3.564 0 01-.779 1.181c-.333.333-.721.6-1.16.8-.44.2-.927.3-1.46.3-.507 0-.986-.1-1.44-.3a3.863 3.863 0 01-1.18-.8c-.333-.334-.6-.728-.8-1.181s-.3-.934-.3-1.439c0-.534.1-1.021.3-1.46.2-.44.467-.827.8-1.16a3.578 3.578 0 011.18-.78 3.761 3.761 0 011.44-.279c1.04 0 1.914.354 2.62 1.06.707.705 1.059 1.579 1.059 2.619zm-29.399 0c0 .506-.093.986-.28 1.439a3.564 3.564 0 01-.779 1.181c-.333.333-.721.6-1.16.8-.44.2-.927.3-1.46.3-.507 0-.986-.1-1.44-.3a3.863 3.863 0 01-1.18-.8c-.333-.334-.6-.728-.8-1.181s-.3-.934-.3-1.439c0-.534.1-1.021.3-1.46.2-.44.467-.827.8-1.16a3.578 3.578 0 011.18-.78 3.761 3.761 0 011.44-.279c1.04 0 1.914.354 2.62 1.06.706.705 1.059 1.579 1.059 2.619zm-29.4 0c0 .506-.093.986-.28 1.439a3.564 3.564 0 01-.779 1.181c-.333.333-.721.6-1.16.8-.44.2-.927.3-1.46.3-.507 0-.986-.1-1.44-.3a3.863 3.863 0 01-1.18-.8c-.333-.334-.6-.728-.8-1.181s-.3-.934-.3-1.439c0-.534.1-1.021.3-1.46.2-.44.467-.827.8-1.16a3.578 3.578 0 011.18-.78 3.761 3.761 0 011.44-.279c1.04 0 1.914.354 2.62 1.06.707.705 1.059 1.579 1.059 2.619zm-29.4 0c0 .506-.093.986-.28 1.439a3.564 3.564 0 01-.779 1.181c-.333.333-.721.6-1.16.8-.44.2-.927.3-1.46.3-.507 0-.986-.1-1.44-.3a3.863 3.863 0 01-1.18-.8c-.333-.334-.6-.728-.8-1.181s-.3-.934-.3-1.439c0-.534.1-1.021.3-1.46.2-.44.467-.827.8-1.16a3.578 3.578 0 011.18-.78 3.761 3.761 0 011.44-.279c1.04 0 1.914.354 2.62 1.06.707.705 1.059 1.579 1.059 2.619zm499.793-40c0 .506-.093.986-.28 1.439a3.564 3.564 0 01-.779 1.181c-.334.333-.721.6-1.16.8s-.926.3-1.46.3c-.507 0-.986-.1-1.44-.3a3.863 3.863 0 01-1.18-.8c-.333-.334-.6-.728-.8-1.181s-.3-.934-.3-1.439c0-.534.1-1.021.3-1.46.2-.44.467-.827.8-1.16a3.578 3.578 0 011.18-.78 3.761 3.761 0 011.44-.279c1.04 0 1.913.354 2.62 1.06S511.8 8.04 511.8 9.08zm-29.399 0c0 .506-.093.986-.279 1.439s-.447.847-.78 1.181c-.333.333-.72.6-1.16.8s-.927.3-1.46.3c-.506 0-.986-.1-1.439-.3s-.847-.467-1.181-.8a3.85 3.85 0 01-.8-1.181A3.51 3.51 0 01475 9.08c0-.534.101-1.021.301-1.46.199-.44.467-.827.8-1.16a3.582 3.582 0 011.181-.78 3.756 3.756 0 011.439-.279c1.04 0 1.914.354 2.62 1.06s1.06 1.579 1.06 2.619zM453 9.08c0 .506-.092.986-.279 1.439a3.58 3.58 0 01-.779 1.181c-.334.333-.721.6-1.16.8-.44.2-.927.3-1.461.3-.506 0-.986-.1-1.439-.3s-.846-.467-1.18-.8a3.853 3.853 0 01-.801-1.181 3.545 3.545 0 01-.3-1.439c0-.534.101-1.021.3-1.46.2-.44.467-.827.801-1.16a3.578 3.578 0 011.18-.78 3.756 3.756 0 011.439-.279c1.041 0 1.914.354 2.621 1.06.706.705 1.058 1.579 1.058 2.619zm-29.398 0c0 .506-.094.986-.28 1.439s-.446.847-.78 1.181c-.333.333-.72.6-1.16.8-.439.2-.926.3-1.459.3-.507 0-.986-.1-1.44-.3a3.868 3.868 0 01-1.181-.8 3.865 3.865 0 01-.799-1.181 3.513 3.513 0 01-.301-1.439c0-.534.1-1.021.301-1.46.199-.44.467-.827.799-1.16a3.582 3.582 0 011.181-.78 3.761 3.761 0 011.44-.279c1.039 0 1.913.354 2.619 1.06.706.705 1.06 1.579 1.06 2.619zm-29.401 0c0 .506-.092.986-.279 1.439a3.58 3.58 0 01-.779 1.181c-.334.333-.721.6-1.16.8-.44.2-.927.3-1.461.3-.506 0-.986-.1-1.439-.3s-.846-.467-1.18-.8a3.853 3.853 0 01-.801-1.181 3.545 3.545 0 01-.3-1.439c0-.534.101-1.021.3-1.46.2-.44.467-.827.801-1.16a3.578 3.578 0 011.18-.78 3.756 3.756 0 011.439-.279c1.041 0 1.914.354 2.621 1.06.706.705 1.058 1.579 1.058 2.619zm-29.399 0c0 .506-.093.986-.28 1.439a3.564 3.564 0 01-.779 1.181c-.334.333-.721.6-1.16.8s-.926.3-1.46.3c-.507 0-.986-.1-1.44-.3a3.863 3.863 0 01-1.18-.8c-.333-.334-.6-.728-.8-1.181s-.3-.934-.3-1.439c0-.534.1-1.021.3-1.46.2-.44.467-.827.8-1.16a3.578 3.578 0 011.18-.78 3.761 3.761 0 011.44-.279c1.04 0 1.913.354 2.62 1.06s1.059 1.579 1.059 2.619zm-29.399 0c0 .506-.093.986-.279 1.439s-.447.847-.78 1.181c-.333.333-.72.6-1.16.8s-.927.3-1.46.3c-.506 0-.986-.1-1.439-.3s-.847-.467-1.181-.8a3.85 3.85 0 01-.8-1.181 3.529 3.529 0 01-.301-1.439c0-.534.101-1.021.301-1.46.199-.44.467-.827.8-1.16a3.582 3.582 0 011.181-.78 3.756 3.756 0 011.439-.279c1.04 0 1.914.354 2.62 1.06s1.059 1.579 1.059 2.619zm-29.4 0c0 .506-.093.986-.28 1.439a3.564 3.564 0 01-.779 1.181c-.334.333-.721.6-1.16.8s-.926.3-1.46.3c-.507 0-.986-.1-1.44-.3a3.863 3.863 0 01-1.18-.8c-.333-.334-.6-.728-.8-1.181s-.3-.934-.3-1.439c0-.534.1-1.021.3-1.46.2-.44.467-.827.8-1.16a3.578 3.578 0 011.18-.78 3.761 3.761 0 011.44-.279c1.04 0 1.913.354 2.62 1.06s1.059 1.579 1.059 2.619zm-29.399 0c0 .506-.093.986-.279 1.439s-.447.847-.78 1.181c-.333.333-.72.6-1.16.8s-.927.3-1.46.3c-.506 0-.986-.1-1.439-.3s-.847-.467-1.181-.8a3.85 3.85 0 01-.8-1.181 3.529 3.529 0 01-.301-1.439c0-.534.101-1.021.301-1.46.199-.44.467-.827.8-1.16a3.582 3.582 0 011.181-.78 3.756 3.756 0 011.439-.279c1.04 0 1.914.354 2.62 1.06s1.059 1.579 1.059 2.619zm-29.4 0c0 .506-.093.986-.28 1.439a3.567 3.567 0 01-.78 1.181c-.333.333-.72.6-1.16.8s-.926.3-1.46.3c-.506 0-.986-.1-1.44-.3a3.863 3.863 0 01-1.18-.8 3.868 3.868 0 01-.8-1.181c-.2-.453-.3-.934-.3-1.439 0-.534.1-1.021.3-1.46.2-.44.467-.827.8-1.16a3.578 3.578 0 011.18-.78 3.761 3.761 0 011.44-.279c1.04 0 1.914.354 2.62 1.06s1.06 1.579 1.06 2.619zm-29.399 0c0 .506-.094.986-.28 1.439s-.446.847-.78 1.181c-.332.333-.721.6-1.16.8s-.926.3-1.459.3c-.508 0-.986-.1-1.441-.3a3.863 3.863 0 01-1.18-.8 3.865 3.865 0 01-.799-1.181 3.513 3.513 0 01-.301-1.439c0-.534.1-1.021.301-1.46.199-.44.467-.827.799-1.16a3.578 3.578 0 011.18-.78 3.766 3.766 0 011.441-.279c1.039 0 1.914.354 2.619 1.06.706.705 1.06 1.579 1.06 2.619zm-29.4 0c0 .506-.093.986-.28 1.439a3.564 3.564 0 01-.779 1.181c-.333.333-.721.6-1.16.8-.44.2-.927.3-1.46.3-.507 0-.986-.1-1.44-.3a3.863 3.863 0 01-1.18-.8c-.333-.334-.6-.728-.8-1.181s-.3-.934-.3-1.439c0-.534.1-1.021.3-1.46.2-.44.467-.827.8-1.16a3.578 3.578 0 011.18-.78 3.761 3.761 0 011.44-.279c1.04 0 1.914.354 2.62 1.06.706.705 1.059 1.579 1.059 2.619zm-29.4 0c0 .506-.093.986-.28 1.439a3.564 3.564 0 01-.779 1.181c-.333.333-.721.6-1.16.8-.44.2-.927.3-1.46.3-.507 0-.986-.1-1.44-.3a3.863 3.863 0 01-1.18-.8c-.333-.334-.6-.728-.8-1.181s-.3-.934-.3-1.439c0-.534.1-1.021.3-1.46.2-.44.467-.827.8-1.16a3.578 3.578 0 011.18-.78 3.761 3.761 0 011.44-.279c1.04 0 1.914.354 2.62 1.06.707.705 1.059 1.579 1.059 2.619zm-29.399 0c0 .506-.093.986-.28 1.439a3.564 3.564 0 01-.779 1.181c-.333.333-.721.6-1.16.8-.44.2-.927.3-1.46.3-.507 0-.986-.1-1.44-.3a3.863 3.863 0 01-1.18-.8c-.333-.334-.6-.728-.8-1.181s-.3-.934-.3-1.439c0-.534.1-1.021.3-1.46.2-.44.467-.827.8-1.16a3.578 3.578 0 011.18-.78 3.761 3.761 0 011.44-.279c1.04 0 1.914.354 2.62 1.06.706.705 1.059 1.579 1.059 2.619zm-29.4 0c0 .506-.093.986-.28 1.439a3.564 3.564 0 01-.779 1.181c-.333.333-.721.6-1.16.8-.44.2-.927.3-1.46.3-.507 0-.986-.1-1.44-.3a3.863 3.863 0 01-1.18-.8c-.333-.334-.6-.728-.8-1.181s-.3-.934-.3-1.439c0-.534.1-1.021.3-1.46.2-.44.467-.827.8-1.16a3.578 3.578 0 011.18-.78c.453-.186.933-.28 1.44-.28 1.04 0 1.914.354 2.62 1.06.707.706 1.059 1.58 1.059 2.62zm-29.399 0c0 .506-.093.986-.28 1.439a3.564 3.564 0 01-.779 1.181c-.333.333-.721.6-1.16.8-.44.2-.927.3-1.46.3-.507 0-.986-.1-1.44-.3a3.863 3.863 0 01-1.18-.8c-.333-.334-.6-.728-.8-1.181s-.3-.934-.3-1.439c0-.534.1-1.021.3-1.46.2-.44.467-.827.8-1.16a3.578 3.578 0 011.18-.78 3.75 3.75 0 011.439-.28c1.04 0 1.914.354 2.62 1.06.707.706 1.06 1.58 1.06 2.62zm-29.4 0c0 .506-.093.986-.28 1.439a3.564 3.564 0 01-.779 1.181c-.333.333-.721.6-1.16.8-.44.2-.927.3-1.46.3-.507 0-.986-.1-1.44-.3a3.863 3.863 0 01-1.18-.8c-.333-.334-.6-.728-.8-1.181s-.3-.934-.3-1.439c0-.534.1-1.021.3-1.46.2-.44.467-.827.8-1.16a3.578 3.578 0 011.18-.78 3.761 3.761 0 011.44-.279c1.04 0 1.914.354 2.62 1.06.707.705 1.059 1.579 1.059 2.619zm-29.4 0c0 .506-.093.986-.28 1.439a3.564 3.564 0 01-.779 1.181c-.333.333-.721.6-1.16.8-.44.2-.927.3-1.46.3-.507 0-.986-.1-1.44-.3a3.863 3.863 0 01-1.18-.8c-.333-.334-.6-.728-.8-1.181s-.3-.934-.3-1.439c0-.534.1-1.021.3-1.46.2-.44.467-.827.8-1.16a3.578 3.578 0 011.18-.78c.453-.186.933-.28 1.439-.28 1.04 0 1.914.354 2.62 1.06.708.706 1.06 1.58 1.06 2.62z" fill="#F9F9F9"/></svg>