<svg xmlns="http://www.w3.org/2000/svg" width="194" height="60"><g fill="none"><path d="M10 0h174c5.523 0 10 4.477 10 10v40c0 5.523-4.477 10-10 10H10C4.477 60 0 55.523 0 50V10C0 4.477 4.477 0 10 0z"/><path stroke="#CCC" stroke-width="2" d="M10 1h174a9 9 0 019 9v40a9 9 0 01-9 9H10a9 9 0 01-9-9V10a9 9 0 019-9z"/></g><path d="M56.224 16.846h-.395a.178.178 0 01-.115-.037.244.244 0 01-.07-.098l-.835-2.056h-3.475l-.83 2.056c-.013.036-.037.068-.07.095s-.073.04-.12.04h-.39l2.895-7.075h.51l2.895 7.075zm-4.735-2.571h3.17l-1.445-3.574a2.74 2.74 0 01-.07-.193 6.455 6.455 0 01-.07-.228c-.023.08-.047.156-.07.228a2.97 2.97 0 01-.07.198l-1.445 3.569zm7.35 2.571h-.42l-2.1-4.975h.375c.047 0 .084.012.112.037s.049.053.063.082l1.64 3.926c.033.076.058.149.075.22l.05.21c.017-.07.034-.141.053-.213a1.62 1.62 0 01.072-.217l1.65-3.926a.228.228 0 01.068-.087.168.168 0 01.102-.032h.36l-2.1 4.975zm6.46 0c-.1 0-.162-.047-.185-.14l-.07-.636a4.854 4.854 0 01-.408.36 2.58 2.58 0 01-.422.271 2.07 2.07 0 01-.475.167c-.17.038-.356.058-.56.058a1.65 1.65 0 01-.495-.075 1.238 1.238 0 01-.425-.229 1.142 1.142 0 01-.297-.397 1.378 1.378 0 01-.112-.583c0-.21.06-.405.18-.585.12-.18.308-.337.563-.47.255-.134.583-.24.985-.32.401-.08.884-.127 1.447-.14v-.521c0-.46-.099-.813-.297-1.063-.198-.248-.493-.372-.883-.372-.24 0-.444.033-.612.1a2.228 2.228 0 00-.712.441c-.073.067-.135.1-.185.1a.16.16 0 01-.15-.09l-.085-.145c.26-.261.533-.457.82-.591.287-.133.612-.199.975-.199.267 0 .5.042.7.127.2.085.366.207.498.365s.231.35.298.575c.066.225.1.476.1.752v3.24h-.193zm-2-.265a1.978 1.978 0 00.983-.239 2.14 2.14 0 00.388-.267c.12-.104.238-.216.355-.336v-1.295c-.473.014-.881.05-1.223.107a3.567 3.567 0 00-.845.238c-.222.1-.385.219-.49.357a.76.76 0 00-.157.473c0 .166.027.311.083.432.055.122.127.223.217.301s.195.136.315.172c.119.039.244.057.374.057zm4.765-6.426a.38.38 0 01-.037.168.468.468 0 01-.238.233.424.424 0 01-.34 0 .45.45 0 01-.27-.401.44.44 0 01.13-.315c.04-.04.087-.071.14-.095s.11-.035.17-.035.117.012.17.035a.45.45 0 01.238.238.413.413 0 01.037.172zm-.21 1.716v4.975h-.475v-4.975h.475zm2.625-2.301v7.275h-.475V9.57h.475zm5.185 7.276c-.1 0-.162-.047-.185-.14l-.07-.636a4.854 4.854 0 01-.408.36 2.58 2.58 0 01-.422.271 2.07 2.07 0 01-.475.167c-.17.038-.356.058-.56.058a1.65 1.65 0 01-.495-.075 1.238 1.238 0 01-.425-.229 1.142 1.142 0 01-.297-.397 1.378 1.378 0 01-.112-.583c0-.21.06-.405.18-.585.12-.18.308-.337.563-.47.255-.134.583-.24.985-.32.401-.08.884-.127 1.447-.14v-.521c0-.46-.099-.813-.297-1.063-.198-.248-.493-.372-.883-.372-.24 0-.444.033-.612.1a2.228 2.228 0 00-.712.441c-.073.067-.135.1-.185.1a.16.16 0 01-.15-.09l-.085-.145c.26-.261.533-.457.82-.591.287-.133.612-.199.975-.199.267 0 .5.042.7.127.2.085.366.207.498.365s.231.35.298.575c.066.225.1.476.1.752v3.24h-.193zm-2-.265a1.978 1.978 0 00.983-.239 2.14 2.14 0 00.388-.267c.12-.104.238-.216.355-.336v-1.295c-.473.014-.881.05-1.223.107a3.567 3.567 0 00-.845.238c-.222.1-.385.219-.49.357a.76.76 0 00-.157.473c0 .166.027.311.083.432.055.122.127.223.217.301s.195.136.315.172c.119.039.244.057.374.057zm3.99.265V9.57h.475l.005 3.17c.22-.293.475-.524.765-.694s.617-.255.98-.255c.61 0 1.086.211 1.428.632.341.422.512 1.057.512 1.903 0 .363-.047.702-.143 1.017a2.41 2.41 0 01-.42.82 2.03 2.03 0 01-.681.548c-.269.133-.578.2-.929.2-.347 0-.646-.068-.896-.203a1.841 1.841 0 01-.646-.598l-.03.61c-.01.083-.054.125-.133.125h-.287zm2.087-4.675c-.33 0-.629.085-.896.255s-.506.406-.716.71v2.625c.19.287.401.487.631.603.23.115.496.173.796.173.294 0 .551-.054.771-.16.221-.106.405-.258.554-.453.148-.194.26-.428.335-.699.075-.272.113-.571.113-.897 0-.74-.137-1.284-.411-1.633-.273-.35-.666-.524-1.177-.524zm4.187-2.601v7.275h-.475V9.57h.475zm3.885 2.221c.28 0 .539.048.777.145s.445.237.62.423c.175.185.312.412.41.683.098.27.147.58.147.93 0 .073-.011.123-.033.15-.021.026-.056.04-.102.04h-3.59v.095c0 .373.043.701.13.984.087.284.21.521.37.713s.353.336.58.433c.227.097.48.145.76.145a2.274 2.274 0 001.41-.453c.073-.055.126-.082.16-.082.043 0 .077.017.1.05l.13.16c-.08.1-.186.193-.318.279a2.239 2.239 0 01-.44.223 3.117 3.117 0 01-1.077.203c-.34 0-.65-.06-.93-.178a1.969 1.969 0 01-.721-.518 2.37 2.37 0 01-.465-.833 3.57 3.57 0 01-.164-1.127c0-.356.051-.686.152-.987.102-.302.249-.562.44-.78.191-.219.426-.39.705-.513s.596-.185.949-.185zm.008.355c-.256 0-.486.04-.689.12s-.378.195-.527.345c-.148.15-.268.33-.359.54s-.152.445-.182.705h3.275c0-.267-.037-.506-.11-.717a1.512 1.512 0 00-.31-.538 1.344 1.344 0 00-.479-.337 1.574 1.574 0 00-.619-.118zm7.553-.355c.356 0 .676.061.958.183.282.121.519.294.712.517.193.224.341.493.442.808.102.315.153.668.153 1.058 0 .391-.051.742-.153 1.056-.102.313-.249.581-.442.805s-.431.395-.712.515-.601.181-.958.181-.676-.061-.958-.181-.52-.291-.715-.515a2.272 2.272 0 01-.445-.805 3.4 3.4 0 01-.152-1.056c0-.39.051-.742.152-1.058.102-.314.25-.584.445-.808.195-.223.433-.396.715-.517a2.39 2.39 0 01.958-.183zm0 4.745c.296 0 .556-.051.777-.153.222-.102.407-.247.555-.438.148-.189.259-.419.333-.688.073-.268.11-.568.11-.902 0-.33-.037-.63-.11-.899a1.939 1.939 0 00-.333-.692 1.474 1.474 0 00-.555-.443 1.83 1.83 0 00-.777-.154c-.297 0-.556.052-.777.154a1.484 1.484 0 00-.555.443c-.148.191-.26.422-.335.692-.075.27-.113.569-.113.899 0 .334.038.635.113.902.075.269.187.498.335.688.148.19.333.336.555.438.22.102.48.153.777.153zm3.765.31v-4.975h.26c.086 0 .137.041.15.125l.045.75c.227-.287.49-.518.792-.693a1.972 1.972 0 011.007-.262c.273 0 .515.043.723.13.209.087.381.212.518.375s.24.359.311.59c.07.229.105.49.105.78v3.18h-.476v-3.18c0-.467-.106-.833-.32-1.098-.214-.266-.54-.397-.979-.397-.327 0-.631.084-.91.252-.28.169-.53.399-.75.692v3.73h-.476zm9.194.08c-.337 0-.599-.094-.785-.28s-.28-.475-.28-.865v-3.399h-.715a.134.134 0 01-.09-.03.106.106 0 01-.035-.085v-.185l.85-.061.119-1.78a.142.142 0 01.037-.079.114.114 0 01.087-.035h.223v1.899h1.565v.355h-1.565v3.375c0 .137.017.254.052.353s.084.179.146.242.134.11.218.14c.083.03.173.046.27.046.12 0 .224-.018.311-.053a1.31 1.31 0 00.38-.23c.04-.035.071-.052.095-.052.027 0 .053.017.08.05l.13.21a1.517 1.517 0 01-1.093.464zm2.46-.08V9.57h.475v3.15c.23-.283.492-.509.787-.678.296-.168.627-.252.993-.252.273 0 .515.043.723.13s.381.212.518.375c.136.163.239.359.31.59.07.229.105.49.105.78v3.18h-.475v-3.18c0-.467-.107-.833-.32-1.098-.214-.266-.541-.397-.98-.397-.326 0-.63.084-.91.252a2.683 2.683 0 00-.75.692v3.73h-.476zm7.535-5.055c.279 0 .539.048.777.145s.445.237.619.423c.176.185.313.412.41.683.099.27.148.58.148.93 0 .073-.012.123-.033.15-.021.026-.056.04-.102.04h-3.591v.095c0 .373.044.701.13.984.087.284.21.521.37.713s.353.336.58.433c.227.097.479.145.76.145a2.262 2.262 0 001.112-.267c.125-.069.225-.131.298-.186s.126-.082.16-.082c.043 0 .077.017.1.05l.13.16c-.08.1-.186.193-.317.279a2.267 2.267 0 01-.44.223 3.063 3.063 0 01-.52.147 2.844 2.844 0 01-.557.056c-.341 0-.65-.06-.931-.178s-.521-.291-.721-.518-.355-.504-.466-.833a3.57 3.57 0 01-.164-1.127c0-.356.051-.686.152-.987.103-.302.249-.562.441-.78.191-.219.426-.39.704-.513s.598-.185.951-.185zm.007.355c-.257 0-.485.04-.688.12s-.379.195-.527.345c-.148.15-.268.33-.359.54s-.152.445-.182.705h3.274a2.16 2.16 0 00-.11-.717c-.072-.212-.176-.392-.309-.538s-.293-.259-.479-.337a1.579 1.579 0 00-.62-.118zM71.084 45.315h-3.12c-.35 0-.637-.088-.862-.263s-.388-.393-.487-.652l-1.62-4.425H56.01L54.39 44.4c-.08.23-.238.44-.473.63s-.522.285-.862.285H49.92l8.52-21.69h4.125l8.519 21.69zm-14.04-8.19h6.915l-2.64-7.215c-.12-.319-.253-.697-.398-1.132a26.965 26.965 0 01-.427-1.418c-.14.51-.277.985-.413 1.425-.135.44-.268.825-.397 1.155l-2.64 7.185zm16.065 13.216V29.926h2.265c.24 0 .445.055.615.165.17.109.28.279.33.51l.3 1.425a7.766 7.766 0 012.137-1.725c.805-.44 1.748-.66 2.828-.66.84 0 1.607.175 2.302.524a5.187 5.187 0 011.8 1.522c.505.666.895 1.485 1.17 2.46.275.976.413 2.093.413 3.353 0 1.15-.155 2.216-.465 3.195-.31.98-.752 1.83-1.327 2.55a6.123 6.123 0 01-2.085 1.688c-.815.405-1.728.607-2.738.607-.87 0-1.607-.132-2.212-.397a5.397 5.397 0 01-1.627-1.103v6.301h-3.706zm7.2-17.776c-.771 0-1.428.163-1.973.487-.545.325-1.053.783-1.522 1.373v6.899c.42.521.877.883 1.373 1.088s1.027.308 1.597.308c.56 0 1.067-.105 1.523-.315.455-.21.84-.529 1.155-.96.315-.43.557-.973.728-1.627.17-.655.255-1.428.255-2.318 0-.899-.073-1.662-.217-2.287-.145-.625-.353-1.133-.623-1.522s-.598-.675-.982-.855a3.063 3.063 0 00-1.314-.271zm9.765 17.776V29.926h2.265c.24 0 .445.055.615.165.17.109.28.279.33.51l.3 1.425a7.766 7.766 0 012.137-1.725c.805-.44 1.748-.66 2.828-.66.84 0 1.607.175 2.303.524a5.187 5.187 0 011.8 1.522c.505.666.895 1.485 1.17 2.46.274.976.413 2.093.413 3.353 0 1.15-.156 2.216-.466 3.195-.31.98-.753 1.83-1.327 2.55a6.123 6.123 0 01-2.085 1.688c-.815.405-1.728.607-2.737.607-.871 0-1.608-.132-2.213-.397a5.397 5.397 0 01-1.627-1.103v6.301h-3.706zm7.2-17.776c-.771 0-1.428.163-1.973.487-.545.325-1.053.783-1.522 1.373v6.899c.42.521.877.883 1.373 1.088s1.027.308 1.597.308c.56 0 1.068-.105 1.523-.315s.84-.529 1.154-.96c.315-.43.558-.973.729-1.627.17-.655.254-1.428.254-2.318 0-.899-.072-1.662-.217-2.287s-.353-1.133-.623-1.522a2.465 2.465 0 00-.982-.855 3.055 3.055 0 00-1.313-.271zm27.389-4.995c-.11.22-.237.375-.382.465a.966.966 0 01-.518.136c-.201 0-.426-.078-.676-.233-.25-.154-.545-.327-.885-.517a7.257 7.257 0 00-1.192-.518c-.455-.155-.993-.232-1.612-.232-.561 0-1.048.067-1.463.202s-.766.322-1.05.563c-.285.24-.497.527-.638.862s-.21.703-.21 1.103c0 .51.143.936.428 1.275.284.34.662.63 1.132.87.471.239 1.006.455 1.605.645.6.19 1.213.393 1.838.607s1.237.465 1.837.75a6.335 6.335 0 011.604 1.08c.471.435.848.968 1.133 1.598s.428 1.395.428 2.295c0 .98-.168 1.897-.502 2.752a6.344 6.344 0 01-1.471 2.235c-.645.636-1.432 1.135-2.362 1.5-.93.365-1.995.548-3.194.548-.69 0-1.371-.067-2.041-.203a10.743 10.743 0 01-1.928-.577c-.614-.25-1.189-.55-1.725-.9a8.436 8.436 0 01-1.432-1.17l1.17-1.935c.109-.14.242-.258.396-.353a.973.973 0 01.518-.143c.25 0 .521.103.811.308s.633.433 1.027.683.859.478 1.395.683 1.178.308 1.928.308c1.15 0 2.041-.272 2.67-.818.631-.545.945-1.327.945-2.347 0-.57-.143-1.035-.428-1.396s-.662-.662-1.133-.907a8.512 8.512 0 00-1.604-.623c-.601-.17-1.21-.354-1.83-.555s-1.229-.439-1.829-.72a5.92 5.92 0 01-1.605-1.095c-.471-.45-.848-1.013-1.133-1.688-.285-.676-.428-1.508-.428-2.498 0-.79.158-1.56.473-2.31s.775-1.415 1.381-1.995c.604-.58 1.347-1.045 2.227-1.396.88-.35 1.885-.524 3.016-.524 1.279 0 2.459.2 3.539.6 1.08.4 2 .96 2.761 1.68l-.991 1.905zm9.316 17.986c-1.33 0-2.355-.378-3.076-1.133-.719-.755-1.08-1.797-1.08-3.127V32.7h-1.56a.747.747 0 01-.517-.194c-.146-.13-.219-.325-.219-.585V30.45l2.476-.404.78-4.2a.741.741 0 01.277-.465.879.879 0 01.547-.165h1.92v4.845h4.051v2.64h-4.051v8.34c0 .48.121.855.36 1.125.24.271.56.405.96.405.23 0 .422-.027.578-.082.154-.056.289-.113.404-.173s.218-.117.308-.173a.52.52 0 01.271-.082c.109 0 .199.027.27.082.07.056.145.138.225.248l1.11 1.8c-.54.45-1.16.79-1.86 1.02-.7.229-1.424.345-2.174.345zm13.124-15.87c1.149 0 2.192.185 3.128.555.935.37 1.732.896 2.393 1.575s1.17 1.51 1.529 2.49c.36.979.541 2.075.541 3.285 0 1.22-.181 2.319-.541 3.3-.359.979-.869 1.814-1.529 2.505a6.662 6.662 0 01-2.393 1.59c-.936.37-1.979.555-3.128.555s-2.194-.185-3.135-.555-1.743-.9-2.407-1.59c-.666-.69-1.18-1.525-1.545-2.505s-.548-2.08-.548-3.3c0-1.21.183-2.306.548-3.285.365-.98.879-1.811 1.545-2.49.664-.68 1.467-1.205 2.407-1.575s1.985-.555 3.135-.555zm0 13.004c1.28 0 2.228-.43 2.843-1.29s.922-2.12.922-3.78c0-1.659-.307-2.925-.922-3.795s-1.563-1.305-2.843-1.305c-1.3 0-2.26.438-2.88 1.313s-.93 2.138-.93 3.787c0 1.65.31 2.908.93 3.772.62.866 1.58 1.298 2.88 1.298zm10.485 2.625v-15.39h2.175c.38 0 .646.069.796.21.149.14.249.38.299.72l.226 1.86c.55-.95 1.194-1.7 1.935-2.25s1.57-.825 2.49-.825c.76 0 1.391.175 1.891.524l-.48 2.775c-.03.18-.096.308-.195.383a.663.663 0 01-.404.112c-.15 0-.355-.035-.615-.105-.26-.069-.605-.104-1.035-.104-.77 0-1.43.213-1.98.638-.55.425-1.015 1.047-1.395 1.867v9.585h-3.708zm18.614-15.629c.97 0 1.862.155 2.678.465a5.886 5.886 0 012.107 1.357c.59.595 1.05 1.325 1.38 2.19s.495 1.853.495 2.962c0 .28-.013.513-.038.698a1.089 1.089 0 01-.135.435.546.546 0 01-.262.225 1.12 1.12 0 01-.42.067h-9.511c.11 1.581.535 2.74 1.275 3.48.739.74 1.72 1.11 2.94 1.11.6 0 1.117-.07 1.552-.21a7.277 7.277 0 001.14-.466c.325-.17.61-.324.855-.465.245-.14.482-.21.713-.21.149 0 .279.03.39.09.11.061.205.146.285.256l1.08 1.35c-.41.479-.87.883-1.38 1.207-.51.325-1.043.585-1.598.78s-1.12.332-1.695.413c-.575.079-1.133.119-1.672.119a8.242 8.242 0 01-2.985-.532 6.66 6.66 0 01-2.4-1.575c-.68-.694-1.215-1.555-1.604-2.58-.391-1.024-.586-2.212-.586-3.563 0-1.05.17-2.037.511-2.962.34-.925.827-1.73 1.462-2.415s1.41-1.228 2.326-1.628c.915-.398 1.948-.598 3.097-.598zm.075 2.655c-1.08 0-1.926.305-2.535.915-.609.609-1 1.475-1.17 2.595h6.96c0-.48-.065-.933-.194-1.357a3.135 3.135 0 00-.601-1.118 2.854 2.854 0 00-1.021-.757c-.409-.186-.889-.278-1.439-.278zM35.969 29.803a7.356 7.356 0 013.939-6.681 8.466 8.466 0 00-6.673-3.514c-2.8-.22-5.854 1.631-6.973 1.631-1.182 0-3.892-1.552-6.02-1.552-4.4.071-9.068 3.506-9.068 10.494a19.695 19.695 0 001.134 6.4c1.009 2.892 4.649 9.981 8.446 9.862 1.985-.047 3.388-1.409 5.971-1.409 2.506 0 3.805 1.409 6.02 1.409 3.829-.055 7.122-6.5 8.083-9.399a7.81 7.81 0 01-4.859-7.241zm-4.46-12.936a7.421 7.421 0 001.89-5.712 8.357 8.357 0 00-5.35 2.75 7.538 7.538 0 00-2.017 5.664 6.62 6.62 0 005.477-2.702z" fill="#9D9D9D"/></svg>