<svg xmlns="http://www.w3.org/2000/svg" width="222.697" height="60.032"><g fill="none"><path d="M10 0h202.697c5.523 0 10 4.477 10 10v40.032c0 5.523-4.477 10-10 10H10c-5.523 0-10-4.477-10-10V10C0 4.477 4.477 0 10 0z"/><path stroke="#CCC" stroke-width="2" d="M10 1h202.697a9 9 0 019 9v40.032a9 9 0 01-9 9H10a9 9 0 01-9-9V10a9 9 0 019-9z"/></g><path d="M58.975 14.306c0 .547-.082 1.038-.245 1.475a3.157 3.157 0 01-.69 1.115 2.97 2.97 0 01-1.065.705 3.718 3.718 0 01-1.375.245h-2.58v-7.075h2.58c.503 0 .962.082 1.375.245a2.97 2.97 0 011.065.705c.297.307.527.679.69 1.115.163.437.245.927.245 1.47zm-.53 0c0-.493-.068-.934-.205-1.32s-.329-.713-.578-.979a2.446 2.446 0 00-.897-.61 3.11 3.11 0 00-1.165-.21h-2.065v6.245H55.6c.427 0 .815-.07 1.165-.21s.649-.344.897-.61c.249-.267.441-.593.578-.979s.205-.83.205-1.327zm4.08-1.514c.356 0 .676.061.958.183.282.121.519.294.712.517.193.224.341.493.442.808.102.315.153.668.153 1.058 0 .391-.051.742-.153 1.056-.102.313-.249.581-.442.805s-.431.395-.712.515-.601.181-.958.181-.676-.061-.958-.181-.52-.291-.715-.515a2.272 2.272 0 01-.445-.805 3.4 3.4 0 01-.152-1.056c0-.39.051-.742.152-1.058.102-.314.25-.584.445-.808.195-.223.433-.396.715-.517.282-.123.601-.183.958-.183zm0 4.745c.296 0 .556-.051.777-.153.222-.102.407-.247.555-.438.148-.189.259-.419.333-.688.073-.268.11-.568.11-.902 0-.33-.037-.63-.11-.899a1.939 1.939 0 00-.333-.692 1.474 1.474 0 00-.555-.443 1.83 1.83 0 00-.777-.154c-.297 0-.556.052-.777.154a1.484 1.484 0 00-.555.443c-.148.191-.26.422-.335.692-.075.27-.113.569-.113.899 0 .334.038.635.113.902.075.269.187.498.335.688.148.19.333.336.555.438.221.102.48.153.777.153zm3.065-4.665h.365c.046 0 .085.012.115.037.03.025.05.053.06.082l1.255 3.926c.023.076.042.149.055.22l.04.21a5.413 5.413 0 01.125-.43l1.335-3.96c.023-.073.07-.11.14-.11h.195c.073 0 .122.037.145.11l1.315 3.96c.05.149.09.295.12.435l.042-.212c.015-.072.036-.146.063-.223l1.26-3.926c.026-.079.083-.119.17-.119h.35l-1.665 4.975h-.35c-.054 0-.092-.035-.115-.105l-1.365-4.039a2.51 2.51 0 01-.08-.3 3.3 3.3 0 01-.075.3l-1.38 4.039c-.02.07-.06.105-.12.105h-.335l-1.665-4.975zm8.32 4.974v-4.975h.26c.087 0 .137.041.15.125l.045.75a2.8 2.8 0 01.792-.693 1.97 1.97 0 011.007-.262c.273 0 .514.043.723.13.208.087.381.212.518.375.136.163.24.359.31.59.07.229.105.49.105.78v3.18h-.475v-3.18c0-.467-.107-.833-.32-1.098-.213-.266-.54-.397-.98-.397-.327 0-.63.084-.91.252-.28.169-.53.399-.75.692v3.73h-.475zm6.274-7.275v7.275h-.474v-7.275h.474zm3.906 2.221c.356 0 .676.061.958.183.282.121.519.294.712.517.193.224.341.493.442.808.102.315.153.668.153 1.058 0 .391-.051.742-.153 1.056-.102.313-.249.581-.442.805s-.431.395-.712.515-.601.181-.958.181-.676-.061-.958-.181-.52-.291-.715-.515a2.272 2.272 0 01-.445-.805 3.4 3.4 0 01-.152-1.056c0-.39.051-.742.152-1.058.102-.314.25-.584.445-.808.195-.223.433-.396.715-.517.282-.123.601-.183.958-.183zm0 4.745c.296 0 .556-.051.777-.153.222-.102.407-.247.555-.438.148-.189.259-.419.333-.688.073-.268.11-.568.11-.902 0-.33-.037-.63-.11-.899a1.939 1.939 0 00-.333-.692 1.474 1.474 0 00-.555-.443 1.83 1.83 0 00-.777-.154c-.297 0-.556.052-.777.154a1.484 1.484 0 00-.555.443c-.148.191-.26.422-.335.692-.075.27-.113.569-.113.899 0 .334.038.635.113.902.075.269.187.498.335.688.148.19.333.336.555.438.22.102.48.153.777.153zm6.939.309c-.1 0-.162-.047-.185-.14l-.07-.636a4.854 4.854 0 01-.408.36 2.58 2.58 0 01-.422.271 2.07 2.07 0 01-.475.167c-.17.038-.356.058-.56.058a1.65 1.65 0 01-.495-.075 1.238 1.238 0 01-.425-.229 1.142 1.142 0 01-.297-.397 1.378 1.378 0 01-.112-.583c0-.21.06-.405.18-.585.12-.18.308-.337.563-.47.255-.134.583-.24.985-.32.401-.08.884-.127 1.447-.14v-.521c0-.46-.099-.813-.297-1.063-.198-.248-.493-.372-.883-.372-.24 0-.444.033-.612.1a2.228 2.228 0 00-.712.441c-.073.067-.135.1-.185.1a.16.16 0 01-.15-.09l-.085-.145c.26-.261.533-.457.82-.591.287-.133.612-.199.975-.199.267 0 .5.042.7.127.2.085.366.207.498.365s.231.35.298.575c.066.225.1.476.1.752v3.24h-.193zm-2-.264a1.978 1.978 0 00.983-.239 2.14 2.14 0 00.388-.267c.12-.104.238-.216.355-.336v-1.295c-.473.014-.881.05-1.223.107a3.567 3.567 0 00-.845.238c-.222.1-.385.219-.49.357a.76.76 0 00-.157.473c0 .166.027.311.083.432.055.122.127.223.217.301s.195.136.315.172c.119.038.244.057.374.057zm7.469.264c-.083 0-.13-.043-.144-.13l-.05-.785c-.22.3-.478.538-.773.715s-.626.266-.994.266c-.611 0-1.087-.212-1.429-.636-.342-.423-.513-1.058-.513-1.904 0-.363.047-.703.143-1.018a2.41 2.41 0 01.42-.82 2.03 2.03 0 01.681-.548c.269-.133.578-.199.929-.199.337 0 .629.063.876.188s.461.307.641.547v-2.95h.475v7.275h-.262zm-1.826-.32c.33 0 .629-.085.896-.255s.506-.406.716-.71v-2.625c-.194-.283-.406-.483-.639-.6-.232-.117-.495-.175-.789-.175s-.551.053-.771.159a1.523 1.523 0 00-.554.453c-.148.194-.26.428-.335.7-.075.271-.113.57-.113.897 0 .739.137 1.284.411 1.632.275.35.667.524 1.178.524zm8.082-4.734c.356 0 .676.061.958.183.282.121.519.294.712.517.193.224.341.493.442.808.102.315.153.668.153 1.058 0 .391-.051.742-.153 1.056-.102.313-.249.581-.442.805s-.431.395-.712.515-.601.181-.958.181-.676-.061-.958-.181-.52-.291-.715-.515a2.272 2.272 0 01-.445-.805 3.4 3.4 0 01-.152-1.056c0-.39.051-.742.152-1.058.102-.314.25-.584.445-.808.195-.223.433-.396.715-.517.282-.123.601-.183.958-.183zm0 4.745c.296 0 .556-.051.777-.153.222-.102.407-.247.555-.438.148-.189.259-.419.333-.688.073-.268.11-.568.11-.902 0-.33-.037-.63-.11-.899a1.939 1.939 0 00-.333-.692 1.474 1.474 0 00-.555-.443 1.83 1.83 0 00-.777-.154c-.297 0-.556.052-.777.154a1.484 1.484 0 00-.555.443c-.148.191-.26.422-.335.692-.075.27-.113.569-.113.899 0 .334.038.635.113.902.075.269.187.498.335.688.148.19.333.336.555.438.221.102.48.153.777.153zm3.765.309v-4.975h.26c.087 0 .137.041.15.125l.045.75a2.8 2.8 0 01.792-.693 1.97 1.97 0 011.007-.262c.273 0 .514.043.723.13.208.087.381.212.518.375.136.163.24.359.31.59.07.229.105.49.105.78v3.18h-.475v-3.18c0-.467-.107-.833-.32-1.098-.213-.266-.54-.397-.98-.397-.327 0-.63.084-.91.252-.28.169-.53.399-.75.692v3.73h-.475zM33.393 29.142L19.485 15.198l17.693 10.157-3.785 3.787zM15.858 14.379a2.45 2.45 0 00-1.367 2.225v27.807a2.447 2.447 0 001.367 2.223l16.168-16.129-16.168-16.126zm26.791 14.215l-3.711-2.144-4.14 4.064 4.14 4.064 3.787-2.149a2.528 2.528 0 00-.076-3.831v-.004zM19.485 45.82l17.693-10.157-3.787-3.787L19.485 45.82zm44.909-3.443c.91 0 1.703-.083 2.377-.248a9.977 9.977 0 001.928-.683v-3.944h-2.715c-.26 0-.465-.072-.615-.218a.711.711 0 01-.225-.532v-2.28h7.215v8.775c-.55.399-1.123.747-1.718 1.042-.595.295-1.23.538-1.905.728-.675.19-1.398.332-2.167.428-.771.095-1.6.143-2.49.143-1.58 0-3.035-.275-4.365-.825a10.356 10.356 0 01-3.45-2.295c-.97-.98-1.728-2.15-2.272-3.51-.545-1.36-.817-2.845-.817-4.455 0-1.63.265-3.125.795-4.485.53-1.359 1.282-2.529 2.257-3.51s2.158-1.74 3.547-2.28c1.39-.54 2.95-.81 4.68-.81 1.77 0 3.302.262 4.598.787 1.295.525 2.393 1.208 3.292 2.048l-1.17 1.83c-.23.37-.535.555-.915.555-.24 0-.485-.08-.735-.24-.32-.189-.647-.38-.982-.569a6.647 6.647 0 00-1.11-.495 9.045 9.045 0 00-1.365-.346 10.045 10.045 0 00-1.747-.135c-1.07 0-2.038.18-2.903.54s-1.603.875-2.212 1.545-1.08 1.476-1.41 2.415c-.33.94-.495 1.99-.495 3.15 0 1.25.175 2.362.525 3.337.35.976.84 1.798 1.47 2.468a6.32 6.32 0 002.25 1.537c.869.355 1.819.532 2.849.532zm18.09-12.66c1.15 0 2.192.185 3.128.555.935.37 1.732.896 2.392 1.575.66.68 1.17 1.51 1.53 2.49.36.979.54 2.075.54 3.285 0 1.22-.18 2.319-.54 3.3-.36.979-.87 1.814-1.53 2.505a6.666 6.666 0 01-2.392 1.59c-.936.37-1.978.555-3.128.555s-2.195-.185-3.135-.555-1.743-.9-2.408-1.59c-.665-.69-1.18-1.525-1.545-2.505s-.547-2.08-.547-3.3c0-1.21.182-2.306.547-3.285.365-.98.88-1.811 1.545-2.49s1.468-1.205 2.408-1.575 1.985-.555 3.135-.555zm0 13.005c1.28 0 2.228-.43 2.843-1.29.615-.86.922-2.12.922-3.78 0-1.659-.308-2.925-.922-3.795-.615-.87-1.563-1.305-2.843-1.305-1.3 0-2.26.438-2.88 1.313s-.93 2.138-.93 3.787c0 1.65.31 2.908.93 3.772.62.866 1.58 1.298 2.88 1.298zm17.054-13.005c1.15 0 2.192.185 3.128.555.935.37 1.732.896 2.392 1.575.66.68 1.17 1.51 1.53 2.49.36.979.54 2.075.54 3.285 0 1.22-.18 2.319-.54 3.3-.36.979-.87 1.814-1.53 2.505a6.666 6.666 0 01-2.392 1.59c-.936.37-1.978.555-3.128.555s-2.195-.185-3.135-.555-1.743-.9-2.408-1.59c-.665-.69-1.18-1.525-1.545-2.505s-.547-2.08-.547-3.3c0-1.21.182-2.306.547-3.285.365-.98.88-1.811 1.545-2.49s1.468-1.205 2.408-1.575 1.985-.555 3.135-.555zm0 13.005c1.28 0 2.228-.43 2.843-1.29.615-.86.922-2.12.922-3.78 0-1.659-.308-2.925-.922-3.795-.615-.87-1.563-1.305-2.843-1.305-1.3 0-2.26.438-2.88 1.313s-.93 2.138-.93 3.787c0 1.65.31 2.908.93 3.772.621.866 1.581 1.298 2.88 1.298zm15.811-13.035c.66 0 1.279.067 1.859.203.58.135 1.11.332 1.59.592h4.426v1.38c0 .23-.061.41-.18.54-.121.131-.326.221-.615.271l-1.381.255a4.82 4.82 0 01.315 1.74c0 .76-.152 1.447-.458 2.063-.305.614-.725 1.138-1.26 1.567s-1.17.763-1.904.997a7.82 7.82 0 01-2.393.353c-.58 0-1.146-.055-1.695-.165-.48.293-.72.62-.72.982 0 .313.143.541.427.688.285.146.66.249 1.125.31.466.061.993.091 1.583.091s1.194.025 1.815.075c.619.05 1.225.138 1.814.264a5.3 5.3 0 011.582.594 3.17 3.17 0 011.125 1.106c.285.467.428 1.066.428 1.798 0 .683-.167 1.345-.502 1.987-.336.642-.82 1.214-1.455 1.715-.635.502-1.412.905-2.332 1.212-.92.306-1.971.459-3.15.459-1.17 0-2.186-.112-3.045-.338-.86-.225-1.573-.524-2.138-.899s-.988-.808-1.268-1.298-.42-1-.42-1.53c0-.72.22-1.325.66-1.814.44-.49 1.05-.88 1.83-1.17-.38-.21-.685-.49-.915-.84-.23-.351-.345-.806-.345-1.365 0-.23.04-.468.12-.713s.203-.487.367-.728a3.65 3.65 0 01.623-.683c.25-.215.545-.407.885-.577-.78-.42-1.393-.979-1.837-1.68-.445-.7-.667-1.521-.667-2.46 0-.76.152-1.448.458-2.063a4.6 4.6 0 011.275-1.575 5.798 5.798 0 011.935-.998 8.195 8.195 0 012.438-.346zm4.064 16.307c0-.307-.09-.557-.27-.751a1.784 1.784 0 00-.734-.451 5.32 5.32 0 00-1.088-.237 10.644 10.644 0 00-1.32-.077h-1.439c-.496 0-.973-.055-1.434-.165-.42.23-.757.503-1.012.817a1.676 1.676 0 00-.383 1.088c0 .27.067.522.203.758.135.234.35.437.645.607.295.17.678.302 1.147.397.47.095 1.045.143 1.726.143.689 0 1.284-.054 1.784-.161s.913-.255 1.237-.444c.325-.188.563-.413.713-.674s.225-.545.225-.85zm-4.064-8.717c.459 0 .859-.063 1.199-.188s.623-.297.848-.518a2.1 2.1 0 00.51-.795c.115-.31.174-.649.174-1.02 0-.76-.229-1.362-.684-1.808s-1.137-.668-2.047-.668-1.593.223-2.048.668-.683 1.048-.683 1.808c0 .359.058.695.173 1.005a2.2 2.2 0 00.51.803c.226.225.511.399.854.524a3.48 3.48 0 001.194.189zm14.144-14.22v22.29h-3.705v-22.29h3.705zm10.545 6.66c.97 0 1.861.155 2.678.465a5.895 5.895 0 012.107 1.357c.59.595 1.049 1.325 1.379 2.19s.496 1.853.496 2.962c0 .28-.014.513-.038.698a1.089 1.089 0 01-.135.435c-.065.104-.153.18-.263.225s-.25.067-.42.067h-9.51c.109 1.581.535 2.74 1.275 3.48.739.74 1.719 1.11 2.939 1.11.6 0 1.117-.07 1.553-.21a7.317 7.317 0 001.14-.466c.325-.17.61-.324.854-.465.246-.14.482-.21.713-.21.15 0 .279.03.391.09a.886.886 0 01.285.256l1.08 1.35c-.41.479-.871.883-1.381 1.207-.51.325-1.043.585-1.598.78s-1.119.332-1.695.413c-.574.079-1.132.119-1.672.119a8.237 8.237 0 01-2.984-.532 6.652 6.652 0 01-2.4-1.575c-.68-.694-1.215-1.555-1.605-2.58-.39-1.024-.585-2.212-.585-3.563 0-1.05.17-2.037.511-2.962.34-.925.826-1.73 1.462-2.415a6.886 6.886 0 012.325-1.628c.916-.398 1.948-.598 3.098-.598zm.075 2.656c-1.08 0-1.925.305-2.535.915-.609.609-1 1.475-1.17 2.595h6.961c0-.48-.065-.933-.195-1.357a3.15 3.15 0 00-.6-1.118 2.854 2.854 0 00-1.021-.757c-.41-.187-.89-.278-1.44-.278zm19.769 5.339v7.635h-4.035v-21.69h7.065c1.45 0 2.704.171 3.765.511s1.936.814 2.625 1.425c.69.61 1.2 1.34 1.53 2.189.33.851.495 1.78.495 2.79 0 1.051-.176 2.013-.525 2.888s-.875 1.628-1.574 2.258c-.701.63-1.576 1.12-2.625 1.47-1.051.351-2.281.525-3.69.525h-3.031zm0-3.15h3.03c.739 0 1.385-.092 1.935-.277.551-.185 1.006-.45 1.365-.795s.63-.765.811-1.26c.18-.495.27-1.048.27-1.658 0-.579-.09-1.104-.27-1.574-.181-.471-.451-.87-.811-1.2s-.814-.583-1.365-.758c-.55-.175-1.195-.263-1.935-.263h-3.03v7.785zm18.315-11.505v22.29h-3.704v-22.29h3.704zm16.246 22.29h-1.666c-.35 0-.625-.053-.824-.157-.201-.105-.351-.317-.45-.638l-.33-1.095c-.39.35-.772.657-1.147.922a7.006 7.006 0 01-1.162.668c-.4.18-.826.314-1.275.405-.45.09-.95.135-1.5.135a5.89 5.89 0 01-1.801-.264 3.885 3.885 0 01-1.417-.79 3.58 3.58 0 01-.923-1.31c-.22-.521-.33-1.129-.33-1.82 0-.582.152-1.157.458-1.724.306-.567.813-1.078 1.522-1.535.71-.456 1.655-.835 2.835-1.136 1.181-.302 2.646-.452 4.396-.452v-.906c0-1.037-.218-1.806-.652-2.305-.436-.499-1.068-.748-1.898-.748-.6 0-1.1.07-1.5.21-.399.141-.747.298-1.042.473s-.567.332-.817.473c-.25.14-.525.21-.825.21-.25 0-.465-.065-.646-.195-.18-.13-.324-.29-.435-.479l-.675-1.186c1.77-1.62 3.904-2.43 6.404-2.43.9 0 1.703.147 2.408.442s1.303.705 1.793 1.229a5.294 5.294 0 011.117 1.883c.255.73.383 1.53.383 2.4v9.72zm-7.202-2.309c.381 0 .73-.035 1.051-.104.32-.069.623-.173.907-.311.285-.138.56-.308.825-.509.265-.202.532-.441.803-.717v-2.576c-1.08 0-1.982.068-2.708.204s-1.308.31-1.747.521c-.44.212-.753.458-.938.74a1.638 1.638 0 00-.277.922c0 .654.191 1.123.577 1.404.385.284.888.426 1.507.426zm15.766 6.54c-.109.26-.252.457-.427.592s-.442.203-.803.203h-2.76l2.88-6.165-6.225-14.25h3.24c.299 0 .529.069.689.21.16.14.279.3.359.479l3.285 7.98c.11.26.205.53.285.81.08.28.15.561.21.84.08-.29.167-.569.263-.84.095-.27.197-.545.308-.825l3.09-7.965c.08-.2.212-.364.397-.495a1.06 1.06 0 01.623-.194h2.97l-8.384 19.62z" fill="#9D9D9D"/></svg>