<svg xmlns="http://www.w3.org/2000/svg" width="113" height="113"><path fill="#FFF" d="M56.5 0C87.704 0 113 25.296 113 56.5S87.704 113 56.5 113 0 87.704 0 56.5 25.296 0 56.5 0z"/><path fill="#A90019" d="M90.07 52.788l-31.439-27.03a3.156 3.156 0 00-4.099 0l-31.438 27.03a3.148 3.148 0 104.099 4.777L56.58 32.278l29.391 25.288c.57.487 1.299.753 2.051.749a3.137 3.137 0 002.05-5.525l-.002-.002zm-32.465-16.1a1.575 1.575 0 00-2.049 0L31.87 57.135a1.523 1.523 0 00-.551 1.179v29.553a1.574 1.574 0 001.573 1.576h47.391a1.572 1.572 0 001.563-1.576V58.313a1.56 1.56 0 00-.537-1.179L57.605 36.688zm21.092 49.607H34.47V59.034l22.115-19.068 22.118 19.073-.006 27.256z"/></svg>