<svg xmlns="http://www.w3.org/2000/svg" xmlns:xlink="http://www.w3.org/1999/xlink" viewBox="0 0 196 100" class="sqm-logo"><path fill="#6A131B" d="M161.238 18.815l.274.282v-.568z"/><path fill="#FFF" d="M182.529 2.996h1.49v56.877h-1.49zm-3.002 0h1.49v56.877h-1.49zm-3.004 0v31.568l1.491 1.536V2.996zm-3.002 2.997v25.478l1.491 1.536V4.438zm15.013-2.997h1.144v56.877h-1.144zm-3.002 0h1.491v56.877h-1.491zM170.52 9.127v19.251l1.492 1.538V7.569zm-3.002 3.133v13.025l1.491 1.536V10.704zm-3.002 3.134v6.798l1.49 1.536v-9.89zm-3.004 3.135v.568l1.491 1.536v-3.66z"/><defs><path id="a" d="M132.8 2.996v56.877h10.406V37.396l18.032-18.581-15.153-15.819z"/></defs><clipPath id="b"><use xlink:href="#a" overflow="visible"/></clipPath><g clip-path="url(#b)" fill="#809D82"><path d="M138.456 2.995h1.491v56.878h-1.491zm3.002 0h1.491v56.878h-1.491zm3.003 0h1.491v56.878h-1.491zm3.003 0h1.49v56.878h-1.49zm-18.017 0h1.492v56.878h-1.492zm3.004 0h1.49v56.878h-1.49zm3.003 0h1.491v56.878h-1.491zm15.013 0h1.491v56.878h-1.491zm3.002 0h1.491v56.878h-1.491zm3.004 0h1.49v56.878h-1.49zm3.002 0h1.489v56.878h-1.489z"/></g><path fill="#FFF" d="M132.8 2.996v56.877h10.406V37.396l18.032-18.581-15.153-15.819zM46.834 50.781c-1.025 2.201-2.456 4.051-4.291 5.541-1.836 1.498-4.026 2.639-6.57 3.426-2.545.787-5.366 1.18-8.463 1.18-4.347 0-8.61-.746-12.794-2.242-4.184-1.494-7.986-3.787-11.408-6.885l7.416-8.883c2.607 2.12 5.284 3.806 8.027 5.052 2.743 1.253 5.745 1.875 9.005 1.875 2.607 0 4.63-.475 6.07-1.424 1.44-.952 2.161-2.27 2.161-3.952v-.165c0-.814-.15-1.533-.45-2.158-.3-.625-.872-1.208-1.717-1.754-.844-.542-2.016-1.084-3.513-1.63-1.499-.542-3.446-1.11-5.843-1.709-2.886-.708-5.501-1.495-7.845-2.364-2.343-.869-4.33-1.942-5.964-3.219a12.986 12.986 0 01-3.798-4.769c-.899-1.901-1.349-4.262-1.349-7.088v-.163c0-2.608.485-4.957 1.457-7.05a16.031 16.031 0 014.09-5.417c1.753-1.521 3.849-2.691 6.284-3.505 2.434-.817 5.121-1.224 8.054-1.224 4.183 0 8.027.625 11.532 1.875a33.41 33.41 0 019.656 5.379l-6.52 9.453c-2.554-1.739-5.052-3.11-7.496-4.115-2.446-1.006-4.89-1.51-7.334-1.51-2.445 0-4.278.478-5.501 1.428-1.222.951-1.834 2.13-1.834 3.546v.162c0 .925.177 1.724.531 2.401.353.682.993 1.294 1.919 1.836.926.543 2.193 1.059 3.8 1.548 1.608.489 3.635 1.058 6.088 1.71 2.887.763 5.46 1.618 7.721 2.566 2.261.952 4.166 2.093 5.72 3.425 1.553 1.329 2.725 2.893 3.513 4.685.79 1.795 1.187 3.94 1.187 6.439v.162c-.001 2.824-.516 5.339-1.541 7.537zm65.43 11.045l-6.275-5.625a30.593 30.593 0 01-7.905 3.625c-2.825.844-5.84 1.266-9.044 1.266-4.4 0-8.449-.775-12.144-2.322-3.694-1.551-6.885-3.641-9.575-6.274-2.69-2.635-4.781-5.732-6.275-9.29s-2.24-7.374-2.24-11.451v-.162c0-4.073.758-7.891 2.281-11.447 1.521-3.558 3.626-6.683 6.315-9.373 2.69-2.688 5.895-4.808 9.616-6.355C80.738 2.865 84.8 2.094 89.2 2.094s8.447.771 12.143 2.321c3.694 1.548 6.888 3.641 9.574 6.272 2.688 2.638 4.78 5.732 6.274 9.29 1.494 3.561 2.242 7.379 2.242 11.451v.162a28.71 28.71 0 01-1.306 8.64 29.06 29.06 0 01-3.747 7.739l5.867 4.973-7.983 8.884zm-5.951-30.235c0-2.443-.422-4.751-1.264-6.926-.843-2.173-2.035-4.074-3.585-5.703-1.548-1.631-3.383-2.921-5.5-3.874-2.119-.949-4.429-1.423-6.927-1.423-2.556 0-4.878.459-6.968 1.385-2.093.923-3.885 2.199-5.38 3.829-1.493 1.63-2.661 3.519-3.504 5.665s-1.263 4.438-1.263 6.885v.162c0 2.447.42 4.754 1.263 6.927.843 2.176 2.038 4.076 3.586 5.707a17.34 17.34 0 005.46 3.869c2.091.952 4.413 1.427 6.968 1.427 2.661 0 5.161-.516 7.497-1.551l-9.289-7.901 17.356-.489c1.03-2.282 1.549-4.891 1.549-7.826v-.163h.001zM11.505 89.986H7.253v7.477H3V74.348h8.505c5.282 0 8.746 3.26 8.746 7.75 0 4.494-3.225 7.888-8.746 7.888zm-.067-11.181H7.253v6.723h4.148c3.019 0 4.39-1.336 4.39-3.358.001-1.924-1.541-3.365-4.353-3.365zM40.25 97.463l-5.692-8.402h-3.601v8.402h-4.252V74.348h9.225c4.733 0 8.163 2.572 8.163 7.066 0 3.736-2.47 6-4.938 6.857l6.378 9.19-5.283.002zm-4.39-18.69h-4.904v5.828h4.698c2.573 0 3.91-1.027 3.91-3.152 0-1.82-1.303-2.676-3.704-2.676zm14.068 7.098c0-6.344 4.424-11.969 11.18-11.969 6.755 0 11.145 5.69 11.145 12.037 0 6.346-4.423 11.967-11.145 11.967-6.756 0-11.18-5.691-11.18-12.035zm17.799.068c0-4.113-2.367-7.785-6.619-7.785s-6.653 3.602-6.653 7.717 2.4 7.787 6.653 7.787c4.287 0 6.619-3.601 6.619-7.719zm19.553 4.047h-4.251v7.477h-4.254V74.348h8.505c5.282 0 8.746 3.26 8.746 7.75 0 4.494-3.224 7.888-8.746 7.888zm-.067-11.181h-4.184v6.723h4.148c3.019 0 4.39-1.336 4.39-3.358 0-1.924-1.542-3.365-4.354-3.365zm15.266 18.658V74.348h15.398v4.426H106.73v3.979h10.117v4.455H106.73v5.867h11.832v4.389l-16.083-.001zm36.736 0l-5.691-8.402h-3.603v8.402h-4.253V74.348h9.227c4.732 0 8.162 2.572 8.162 7.066 0 3.736-2.47 6-4.938 6.857l6.379 9.19-5.283.002zm-4.39-18.69h-4.904v5.828h4.698c2.572 0 3.908-1.027 3.908-3.152 0-1.82-1.3-2.676-3.702-2.676zm24.321 0v18.688h-4.252V78.773h-7.99v-4.426h20.232v4.426h-7.99zm20.651 18.69V86.9l-8.916-12.553h5.417l5.694 8.161 5.521-8.161H193l-8.95 12.586v10.528l-4.253.002z"/><path d="M46.472 50.782c-1.025 2.2-2.456 4.05-4.291 5.541-1.836 1.497-4.026 2.638-6.57 3.425-2.545.787-5.366 1.18-8.463 1.18-4.347 0-8.61-.746-12.794-2.24S6.368 54.9 2.946 51.802l7.416-8.884c2.607 2.119 5.284 3.806 8.027 5.052 2.743 1.253 5.745 1.874 9.005 1.874 2.607 0 4.63-.474 6.07-1.424 1.44-.951 2.161-2.269 2.161-3.951v-.166c0-.812-.15-1.532-.45-2.157-.3-.625-.872-1.208-1.717-1.754-.844-.542-2.016-1.085-3.513-1.63-1.499-.543-3.446-1.11-5.843-1.709-2.886-.708-5.501-1.495-7.845-2.364-2.343-.869-4.33-1.942-5.964-3.219a12.998 12.998 0 01-3.799-4.769c-.899-1.901-1.349-4.263-1.349-7.089v-.162c0-2.608.485-4.957 1.457-7.051a16.05 16.05 0 014.09-5.417c1.753-1.521 3.849-2.69 6.284-3.504 2.434-.817 5.121-1.224 8.054-1.224 4.183 0 8.027.625 11.532 1.875a33.41 33.41 0 019.656 5.379l-6.52 9.452c-2.554-1.739-5.052-3.109-7.496-4.114-2.446-1.006-4.89-1.51-7.334-1.51-2.445 0-4.278.478-5.501 1.427-1.222.952-1.834 2.131-1.834 3.546v.162c0 .926.177 1.725.531 2.402.353.682.993 1.294 1.919 1.836s2.193 1.059 3.8 1.548c1.608.489 3.635 1.058 6.088 1.71 2.887.762 5.46 1.618 7.721 2.566 2.261.952 4.166 2.093 5.72 3.425 1.553 1.329 2.725 2.893 3.513 4.684.79 1.796 1.187 3.94 1.187 6.44v.162c-.001 2.824-.515 5.339-1.54 7.538zM111.9 61.826l-6.275-5.624a30.66 30.66 0 01-7.905 3.625c-2.826.844-5.84 1.266-9.044 1.266-4.401 0-8.449-.776-12.144-2.323-3.694-1.551-6.885-3.64-9.575-6.273-2.689-2.635-4.78-5.733-6.275-9.29-1.495-3.558-2.24-7.375-2.24-11.451v-.162c0-4.073.758-7.891 2.281-11.448 1.521-3.557 3.626-6.682 6.315-9.372 2.69-2.688 5.895-4.808 9.616-6.355 3.721-1.551 7.783-2.322 12.183-2.322 4.401 0 8.447.771 12.144 2.322 3.693 1.548 6.888 3.64 9.574 6.272 2.688 2.638 4.779 5.732 6.274 9.29 1.493 3.561 2.241 7.378 2.241 11.451v.162c0 2.988-.438 5.868-1.305 8.64a29.108 29.108 0 01-3.748 7.739l5.866 4.971-7.983 8.882zm-5.949-30.235c0-2.443-.422-4.751-1.264-6.926-.845-2.173-2.037-4.074-3.586-5.704-1.547-1.63-3.381-2.921-5.5-3.873-2.119-.949-4.429-1.423-6.926-1.423-2.555 0-4.878.459-6.967 1.385-2.093.922-3.885 2.198-5.38 3.829-1.494 1.63-2.662 3.519-3.504 5.665-.843 2.145-1.263 4.438-1.263 6.885v.162c0 2.446.42 4.754 1.263 6.927.842 2.175 2.038 4.076 3.585 5.706a17.342 17.342 0 005.46 3.87c2.091.952 4.413 1.427 6.967 1.427 2.662 0 5.161-.517 7.497-1.551l-9.289-7.902 17.356-.488c1.029-2.282 1.549-4.891 1.549-7.826l.002-.163zM11.143 89.986H6.891v7.478H2.638V74.35h8.505c5.282 0 8.746 3.258 8.746 7.75s-3.225 7.886-8.746 7.886zm-.068-11.179H6.891v6.724h4.148c3.019 0 4.39-1.339 4.39-3.359.001-1.925-1.542-3.365-4.354-3.365zm28.813 18.657l-5.692-8.401h-3.601v8.401h-4.252V74.35h9.225c4.733 0 8.163 2.57 8.163 7.064 0 3.736-2.47 6-4.938 6.857l6.378 9.19-5.283.003zm-4.39-18.691h-4.904v5.828h4.698c2.573 0 3.91-1.026 3.91-3.152 0-1.819-1.303-2.676-3.704-2.676zm14.067 7.098c0-6.344 4.424-11.969 11.18-11.969 6.755 0 11.145 5.69 11.145 12.037 0 6.346-4.423 11.968-11.145 11.968-6.755 0-11.18-5.692-11.18-12.036zm17.8.068c0-4.113-2.367-7.784-6.619-7.784s-6.653 3.602-6.653 7.716c0 4.115 2.4 7.787 6.653 7.787 4.286 0 6.619-3.601 6.619-7.719zm19.553 4.047h-4.251v7.478h-4.253V74.35h8.505c5.282 0 8.745 3.258 8.745 7.75s-3.224 7.886-8.746 7.886zm-.068-11.179h-4.183v6.724h4.148c3.019 0 4.39-1.339 4.39-3.359.001-1.925-1.542-3.365-4.355-3.365zm15.267 18.657V74.35h15.398v4.424h-11.146v3.979h10.117v4.456h-10.117v5.866h11.832v4.39l-16.084-.001zm36.737 0l-5.691-8.401h-3.604v8.401h-4.252V74.35h9.227c4.732 0 8.16 2.57 8.16 7.064 0 3.736-2.469 6-4.938 6.857l6.379 9.19-5.281.003zm-4.391-18.691h-4.904v5.828h4.698c2.572 0 3.909-1.026 3.909-3.152 0-1.819-1.303-2.676-3.703-2.676zm24.32 0v18.688h-4.252V78.773h-7.99v-4.426h20.232v4.426h-7.99zm20.653 18.691V86.9l-8.916-12.553h5.416l5.694 8.161 5.521-8.161h5.488l-8.951 12.586v10.528l-4.252.003z" fill="#FCFCFC"/></svg>