<svg xmlns="http://www.w3.org/2000/svg" width="340.157" height="340.158" viewBox="21.738 197.79 340.157 340.158"><path d="M361.895 517.662l-20.287 20.286m20.287-186.362l-186.36 186.362m186.36-75.643l-75.642 75.643m75.642-241.717L120.178 537.948m241.717-131.002L230.894 537.948m131.001-297.074L64.821 537.948m297.074-38.74l-38.738 38.74m38.738-204.813L157.084 537.948m204.811-94.096L267.8 537.948m94.095-260.171l-260.17 260.171m260.17-149.455L212.442 537.948M361.895 222.42L46.368 537.948m315.527-57.19l-57.189 57.19m57.189-223.266L138.631 537.948m223.264-112.549L249.347 537.948m112.548-278.623L83.272 537.948m278.623-167.907L193.989 537.948m167.906-333.979L27.917 537.947" fill="none" stroke="#FFF" stroke-miterlimit="10"/></svg>