<svg xmlns="http://www.w3.org/2000/svg" width="340.157" height="340.158" viewBox="21.738 197.79 340.157 340.158"><path d="M21.739 218.077l20.286-20.286M21.739 384.152l186.36-186.362M21.738 273.434l75.644-75.643M21.739 439.507l241.717-241.716M21.739 328.793L152.74 197.791M21.739 494.865l297.074-297.074M21.739 236.53l38.738-38.739M21.738 402.603l204.813-204.812M21.739 291.887l94.095-94.096m-94.095 260.17l260.17-260.17M21.739 347.245l149.454-149.454M21.739 513.318l315.527-315.527M21.739 254.98l57.19-57.189m-57.19 223.265l223.265-223.265M21.738 310.339L134.287 197.79M21.739 476.414l278.623-278.623M21.739 365.698l167.907-167.907M21.739 531.769l333.979-333.978" fill="none" stroke="#FFF" stroke-miterlimit="10"/></svg>